<svg width="638" height="381" viewBox="0 0 638 381" fill="none" xmlns="http://www.w3.org/2000/svg">
<rect y="44" width="636" height="82" fill="#2A2A2A"/>
<rect y="290" width="636" height="89" fill="#2A2A2A"/>
<rect y="208" width="636" height="82" fill="#2A2A2A"/>
<rect y="126" width="636" height="82" fill="#2A2A2A"/>
<rect width="636" height="44" fill="#3D7CEB"/>
<line y1="43.5" x2="636" y2="43.5" stroke="black"/>
<line y1="-1" x2="23.2806" y2="-1" transform="matrix(-0.63419 0.773178 -0.843831 -0.536608 56.3286 14)" stroke="white" stroke-width="2"/>
<line y1="-1" x2="22.3585" y2="-1" transform="matrix(-0.894602 -0.446864 0.541611 -0.840629 35.4448 31.9694)" stroke="white" stroke-width="2"/>
<line y1="-1" x2="20.7837" y2="-1" transform="matrix(0.90192 -0.431904 0.525508 0.850789 15.509 22.9765)" stroke="white" stroke-width="2"/>
<line y1="-1" x2="22.2208" y2="-1" transform="matrix(0.868875 0.495031 -0.592171 0.805813 62.0071 14)" stroke="white" stroke-width="2"/>
<line y1="-1" x2="20.8989" y2="-1" transform="matrix(-0.923834 0.382794 -0.471357 -0.881942 81.3143 24)" stroke="white" stroke-width="2"/>
<path d="M74.7813 66V68.5H67.375V66H74.7813ZM69.0703 78V65.1328C69.0703 64.263 69.2396 63.5417 69.5781 62.9687C69.9219 62.3958 70.3906 61.9661 70.9844 61.6797C71.5781 61.3932 72.2526 61.25 73.0078 61.25C73.5182 61.25 73.9844 61.2891 74.4063 61.3672C74.8333 61.4453 75.151 61.5156 75.3594 61.5781L74.7656 64.0781C74.6354 64.0365 74.474 63.9974 74.2812 63.9609C74.0937 63.9245 73.901 63.9062 73.7031 63.9062C73.2135 63.9062 72.8724 64.0208 72.6797 64.25C72.487 64.474 72.3906 64.7891 72.3906 65.1953V78H69.0703ZM84.5098 72.8906V66H87.8379V78H84.6426V75.8203H84.5176C84.2467 76.5234 83.7962 77.0885 83.166 77.5156C82.541 77.9427 81.778 78.1563 80.877 78.1563C80.0749 78.1563 79.3691 77.974 78.7598 77.6094C78.1504 77.2448 77.6738 76.7266 77.3301 76.0547C76.9915 75.3828 76.8197 74.5781 76.8145 73.6406V66H80.1426V73.0469C80.1478 73.7552 80.3379 74.3151 80.7129 74.7266C81.0879 75.138 81.5905 75.3437 82.2207 75.3437C82.6217 75.3437 82.9967 75.2526 83.3457 75.0703C83.6947 74.8828 83.9759 74.6068 84.1895 74.2422C84.4082 73.8776 84.515 73.4271 84.5098 72.8906ZM93.8281 71.0625V78H90.5V66H93.6719V68.1172H93.8125C94.0781 67.4193 94.5234 66.8672 95.1484 66.4609C95.7734 66.0495 96.5312 65.8438 97.4219 65.8438C98.2552 65.8438 98.9818 66.026 99.6016 66.3906C100.221 66.7552 100.703 67.276 101.047 67.9531C101.391 68.625 101.563 69.4271 101.563 70.3594V78H98.2344V70.9531C98.2396 70.2187 98.0521 69.6458 97.6719 69.2344C97.2917 68.8177 96.7682 68.6094 96.1016 68.6094C95.6536 68.6094 95.2578 68.7057 94.9141 68.8984C94.5755 69.0911 94.3099 69.3724 94.1172 69.7422C93.9297 70.1068 93.8333 70.5469 93.8281 71.0625ZM109.607 78.2344C108.378 78.2344 107.321 77.974 106.436 77.4531C105.555 76.9271 104.878 76.1979 104.404 75.2656C103.936 74.3333 103.701 73.2604 103.701 72.0469C103.701 70.8177 103.938 69.7396 104.412 68.8125C104.891 67.8802 105.571 67.1536 106.451 66.6328C107.331 66.1068 108.378 65.8438 109.592 65.8438C110.639 65.8438 111.555 66.0339 112.342 66.4141C113.128 66.7943 113.751 67.3281 114.209 68.0156C114.667 68.7031 114.92 69.5104 114.967 70.4375H111.826C111.738 69.8385 111.503 69.3568 111.123 68.9922C110.748 68.6224 110.256 68.4375 109.646 68.4375C109.131 68.4375 108.68 68.5781 108.295 68.8594C107.915 69.1354 107.618 69.5391 107.404 70.0703C107.191 70.6016 107.084 71.2448 107.084 72C107.084 72.7656 107.188 73.4167 107.396 73.9531C107.61 74.4896 107.91 74.8984 108.295 75.1797C108.68 75.4609 109.131 75.6016 109.646 75.6016C110.027 75.6016 110.368 75.5234 110.67 75.3672C110.977 75.2109 111.23 74.9844 111.428 74.6875C111.631 74.3854 111.764 74.0234 111.826 73.6016H114.967C114.915 74.5182 114.665 75.3255 114.217 76.0234C113.774 76.7161 113.162 77.2578 112.381 77.6484C111.6 78.0391 110.675 78.2344 109.607 78.2344ZM123.48 66V68.5H116.254V66H123.48ZM117.895 63.125H121.223V74.3125C121.223 74.6198 121.27 74.8594 121.363 75.0312C121.457 75.1979 121.587 75.3151 121.754 75.3828C121.926 75.4505 122.124 75.4844 122.348 75.4844C122.504 75.4844 122.66 75.4714 122.816 75.4453C122.973 75.4141 123.092 75.3906 123.176 75.375L123.699 77.8516C123.533 77.9036 123.298 77.9635 122.996 78.0313C122.694 78.1042 122.327 78.1484 121.895 78.1641C121.092 78.1953 120.389 78.0885 119.785 77.8437C119.186 77.599 118.72 77.2187 118.387 76.7031C118.053 76.1875 117.889 75.5365 117.895 74.75V63.125ZM125.648 78V66H128.977V78H125.648ZM127.32 64.4531C126.826 64.4531 126.401 64.2891 126.047 63.9609C125.698 63.6276 125.523 63.2292 125.523 62.7656C125.523 62.3073 125.698 61.9141 126.047 61.5859C126.401 61.2526 126.826 61.0859 127.32 61.0859C127.815 61.0859 128.237 61.2526 128.586 61.5859C128.94 61.9141 129.117 62.3073 129.117 62.7656C129.117 63.2292 128.94 63.6276 128.586 63.9609C128.237 64.2891 127.815 64.4531 127.32 64.4531ZM137.064 78.2344C135.851 78.2344 134.801 77.9766 133.916 77.4609C133.036 76.9401 132.356 76.2161 131.877 75.2891C131.398 74.3568 131.158 73.276 131.158 72.0469C131.158 70.8073 131.398 69.724 131.877 68.7969C132.356 67.8646 133.036 67.1406 133.916 66.625C134.801 66.1042 135.851 65.8438 137.064 65.8438C138.278 65.8438 139.325 66.1042 140.205 66.625C141.09 67.1406 141.773 67.8646 142.252 68.7969C142.731 69.724 142.971 70.8073 142.971 72.0469C142.971 73.276 142.731 74.3568 142.252 75.2891C141.773 76.2161 141.09 76.9401 140.205 77.4609C139.325 77.9766 138.278 78.2344 137.064 78.2344ZM137.08 75.6562C137.632 75.6562 138.093 75.5 138.463 75.1875C138.833 74.8698 139.111 74.4375 139.299 73.8906C139.492 73.3437 139.588 72.7214 139.588 72.0234C139.588 71.3255 139.492 70.7031 139.299 70.1562C139.111 69.6094 138.833 69.1771 138.463 68.8594C138.093 68.5417 137.632 68.3828 137.08 68.3828C136.523 68.3828 136.054 68.5417 135.674 68.8594C135.299 69.1771 135.015 69.6094 134.822 70.1562C134.635 70.7031 134.541 71.3255 134.541 72.0234C134.541 72.7214 134.635 73.3437 134.822 73.8906C135.015 74.4375 135.299 74.8698 135.674 75.1875C136.054 75.5 136.523 75.6562 137.08 75.6562ZM148.463 71.0625V78H145.135V66H148.307V68.1172H148.447C148.713 67.4193 149.158 66.8672 149.783 66.4609C150.408 66.0495 151.166 65.8438 152.057 65.8438C152.89 65.8438 153.617 66.026 154.236 66.3906C154.856 66.7552 155.338 67.276 155.682 67.9531C156.025 68.625 156.197 69.4271 156.197 70.3594V78H152.869V70.9531C152.874 70.2187 152.687 69.6458 152.307 69.2344C151.926 68.8177 151.403 68.6094 150.736 68.6094C150.288 68.6094 149.893 68.7057 149.549 68.8984C149.21 69.0911 148.945 69.3724 148.752 69.7422C148.564 70.1068 148.468 70.5469 148.463 71.0625Z" fill="#4695F1"/>
<path d="M165.258 78V62H175.664V64.4297H168.156V68.7734H175.125V71.2031H168.156V75.5703H175.727V78H165.258ZM180.809 66L183.23 70.4297L185.691 66H188.684L185.066 72L188.746 78H185.77L183.23 73.6797L180.715 78H177.715L181.371 72L177.809 66H180.809ZM190.871 82.5V66H193.652V67.9844H193.816C193.962 67.6927 194.168 67.3828 194.434 67.0547C194.699 66.7214 195.059 66.4375 195.512 66.2031C195.965 65.9635 196.543 65.8438 197.246 65.8438C198.173 65.8438 199.009 66.0807 199.754 66.5547C200.504 67.0234 201.098 67.7187 201.535 68.6406C201.978 69.5573 202.199 70.6823 202.199 72.0156C202.199 73.3333 201.983 74.4531 201.551 75.375C201.118 76.2969 200.53 77 199.785 77.4844C199.04 77.9688 198.197 78.2109 197.254 78.2109C196.566 78.2109 195.996 78.0964 195.543 77.8672C195.09 77.638 194.725 77.362 194.449 77.0391C194.178 76.7109 193.967 76.401 193.816 76.1094H193.699V82.5H190.871ZM193.645 72C193.645 72.776 193.754 73.4557 193.973 74.0391C194.197 74.6224 194.517 75.0781 194.934 75.4062C195.355 75.7292 195.866 75.8906 196.465 75.8906C197.09 75.8906 197.613 75.724 198.035 75.3906C198.457 75.0521 198.775 74.5911 198.988 74.0078C199.207 73.4193 199.316 72.75 199.316 72C199.316 71.2552 199.21 70.5937 198.996 70.0156C198.783 69.4375 198.465 68.9844 198.043 68.6562C197.621 68.3281 197.095 68.1641 196.465 68.1641C195.861 68.1641 195.348 68.3229 194.926 68.6406C194.504 68.9583 194.184 69.4036 193.965 69.9766C193.751 70.5495 193.645 71.224 193.645 72ZM209.934 78.2344C208.73 78.2344 207.691 77.9844 206.816 77.4844C205.947 76.9792 205.277 76.2656 204.809 75.3437C204.34 74.4167 204.105 73.3255 204.105 72.0703C204.105 70.8359 204.34 69.7526 204.809 68.8203C205.283 67.8828 205.944 67.1536 206.793 66.6328C207.642 66.1068 208.639 65.8438 209.785 65.8438C210.525 65.8438 211.223 65.9635 211.879 66.2031C212.54 66.4375 213.124 66.8021 213.629 67.2969C214.139 67.7917 214.54 68.4219 214.832 69.1875C215.124 69.9479 215.27 70.8542 215.27 71.9062V72.7734H205.434V70.8672H212.559C212.553 70.3255 212.436 69.8437 212.207 69.4219C211.978 68.9948 211.658 68.6589 211.246 68.4141C210.84 68.1693 210.366 68.0469 209.824 68.0469C209.246 68.0469 208.738 68.1875 208.301 68.4687C207.863 68.7448 207.522 69.1094 207.277 69.5625C207.038 70.0104 206.915 70.5026 206.91 71.0391V72.7031C206.91 73.401 207.038 74 207.293 74.5C207.548 74.9948 207.905 75.375 208.363 75.6406C208.822 75.901 209.358 76.0312 209.973 76.0312C210.384 76.0312 210.757 75.974 211.09 75.8594C211.423 75.7396 211.712 75.5651 211.957 75.3359C212.202 75.1068 212.387 74.8229 212.512 74.4844L215.152 74.7812C214.986 75.4792 214.668 76.0885 214.199 76.6094C213.736 77.125 213.142 77.526 212.418 77.8125C211.694 78.0937 210.866 78.2344 209.934 78.2344ZM217.662 78V66H220.404V68H220.529C220.748 67.3073 221.123 66.7734 221.654 66.3984C222.191 66.0182 222.803 65.8281 223.49 65.8281C223.646 65.8281 223.821 65.8359 224.014 65.8516C224.212 65.862 224.376 65.8802 224.506 65.9062V68.5078C224.386 68.4661 224.196 68.4297 223.936 68.3984C223.68 68.362 223.433 68.3437 223.193 68.3437C222.678 68.3437 222.214 68.4557 221.803 68.6797C221.396 68.8984 221.076 69.2031 220.842 69.5937C220.607 69.9844 220.49 70.4349 220.49 70.9453V78H217.662ZM226.385 78V66H229.213V78H226.385ZM227.807 64.2969C227.359 64.2969 226.973 64.1484 226.65 63.8516C226.327 63.5495 226.166 63.1875 226.166 62.7656C226.166 62.3385 226.327 61.9766 226.65 61.6797C226.973 61.3776 227.359 61.2266 227.807 61.2266C228.26 61.2266 228.645 61.3776 228.963 61.6797C229.286 61.9766 229.447 62.3385 229.447 62.7656C229.447 63.1875 229.286 63.5495 228.963 63.8516C228.645 64.1484 228.26 64.2969 227.807 64.2969ZM237.434 78.2344C236.23 78.2344 235.191 77.9844 234.316 77.4844C233.447 76.9792 232.777 76.2656 232.309 75.3437C231.84 74.4167 231.605 73.3255 231.605 72.0703C231.605 70.8359 231.84 69.7526 232.309 68.8203C232.783 67.8828 233.444 67.1536 234.293 66.6328C235.142 66.1068 236.139 65.8438 237.285 65.8438C238.025 65.8438 238.723 65.9635 239.379 66.2031C240.04 66.4375 240.624 66.8021 241.129 67.2969C241.639 67.7917 242.04 68.4219 242.332 69.1875C242.624 69.9479 242.77 70.8542 242.77 71.9062V72.7734H232.934V70.8672H240.059C240.053 70.3255 239.936 69.8437 239.707 69.4219C239.478 68.9948 239.158 68.6589 238.746 68.4141C238.34 68.1693 237.866 68.0469 237.324 68.0469C236.746 68.0469 236.238 68.1875 235.801 68.4687C235.363 68.7448 235.022 69.1094 234.777 69.5625C234.538 70.0104 234.415 70.5026 234.41 71.0391V72.7031C234.41 73.401 234.538 74 234.793 74.5C235.048 74.9948 235.405 75.375 235.863 75.6406C236.322 75.901 236.858 76.0312 237.473 76.0312C237.884 76.0312 238.257 75.974 238.59 75.8594C238.923 75.7396 239.212 75.5651 239.457 75.3359C239.702 75.1068 239.887 74.8229 240.012 74.4844L242.652 74.7812C242.486 75.4792 242.168 76.0885 241.699 76.6094C241.236 77.125 240.642 77.526 239.918 77.8125C239.194 78.0937 238.366 78.2344 237.434 78.2344ZM247.99 70.9687V78H245.162V66H247.865V68.0391H248.006C248.282 67.3672 248.722 66.8333 249.326 66.4375C249.936 66.0417 250.688 65.8438 251.584 65.8438C252.412 65.8438 253.133 66.0208 253.748 66.375C254.368 66.7292 254.847 67.2422 255.186 67.9141C255.529 68.5859 255.699 69.401 255.693 70.3594V78H252.865V70.7969C252.865 69.9948 252.657 69.3672 252.24 68.9141C251.829 68.4609 251.258 68.2344 250.529 68.2344C250.035 68.2344 249.594 68.3437 249.209 68.5625C248.829 68.776 248.529 69.0859 248.311 69.4922C248.097 69.8984 247.99 70.3906 247.99 70.9687ZM263.803 78.2344C262.605 78.2344 261.576 77.9714 260.717 77.4453C259.863 76.9193 259.204 76.1927 258.74 75.2656C258.282 74.3333 258.053 73.2604 258.053 72.0469C258.053 70.8281 258.287 69.7526 258.756 68.8203C259.225 67.8828 259.886 67.1536 260.74 66.6328C261.6 66.1068 262.615 65.8438 263.787 65.8438C264.761 65.8438 265.623 66.0234 266.373 66.3828C267.128 66.737 267.73 67.2396 268.178 67.8906C268.626 68.5365 268.881 69.2917 268.943 70.1562H266.24C266.131 69.5781 265.87 69.0964 265.459 68.7109C265.053 68.3203 264.508 68.125 263.826 68.125C263.248 68.125 262.74 68.2812 262.303 68.5937C261.865 68.901 261.524 69.3437 261.279 69.9219C261.04 70.5 260.92 71.1927 260.92 72C260.92 72.8177 261.04 73.5208 261.279 74.1094C261.519 74.6927 261.855 75.1432 262.287 75.4609C262.725 75.7734 263.238 75.9297 263.826 75.9297C264.243 75.9297 264.615 75.8516 264.943 75.6953C265.277 75.5339 265.555 75.3021 265.779 75C266.003 74.6979 266.157 74.3307 266.24 73.8984H268.943C268.876 74.7474 268.626 75.5 268.193 76.1562C267.761 76.8073 267.173 77.3177 266.428 77.6875C265.683 78.0521 264.808 78.2344 263.803 78.2344ZM276.578 78.2344C275.375 78.2344 274.336 77.9844 273.461 77.4844C272.591 76.9792 271.922 76.2656 271.453 75.3437C270.984 74.4167 270.75 73.3255 270.75 72.0703C270.75 70.8359 270.984 69.7526 271.453 68.8203C271.927 67.8828 272.589 67.1536 273.438 66.6328C274.286 66.1068 275.284 65.8438 276.43 65.8438C277.169 65.8438 277.867 65.9635 278.523 66.2031C279.185 66.4375 279.768 66.8021 280.273 67.2969C280.784 67.7917 281.185 68.4219 281.477 69.1875C281.768 69.9479 281.914 70.8542 281.914 71.9062V72.7734H272.078V70.8672H279.203C279.198 70.3255 279.081 69.8437 278.852 69.4219C278.622 68.9948 278.302 68.6589 277.891 68.4141C277.484 68.1693 277.01 68.0469 276.469 68.0469C275.891 68.0469 275.383 68.1875 274.945 68.4687C274.508 68.7448 274.167 69.1094 273.922 69.5625C273.682 70.0104 273.56 70.5026 273.555 71.0391V72.7031C273.555 73.401 273.682 74 273.938 74.5C274.193 74.9948 274.549 75.375 275.008 75.6406C275.466 75.901 276.003 76.0312 276.617 76.0312C277.029 76.0312 277.401 75.974 277.734 75.8594C278.068 75.7396 278.357 75.5651 278.602 75.3359C278.846 75.1068 279.031 74.8229 279.156 74.4844L281.797 74.7812C281.63 75.4792 281.313 76.0885 280.844 76.6094C280.38 77.125 279.786 77.526 279.063 77.8125C278.339 78.0937 277.51 78.2344 276.578 78.2344ZM194.646 89V105H192.803V89H194.646ZM202.898 105.25C201.815 105.25 200.865 104.992 200.047 104.477C199.234 103.961 198.599 103.24 198.141 102.312C197.688 101.385 197.461 100.302 197.461 99.0625C197.461 97.8125 197.688 96.7214 198.141 95.7891C198.599 94.8568 199.234 94.1328 200.047 93.6172C200.865 93.1016 201.815 92.8438 202.898 92.8438C203.982 92.8438 204.93 93.1016 205.742 93.6172C206.56 94.1328 207.195 94.8568 207.648 95.7891C208.107 96.7214 208.336 97.8125 208.336 99.0625C208.336 100.302 208.107 101.385 207.648 102.312C207.195 103.24 206.56 103.961 205.742 104.477C204.93 104.992 203.982 105.25 202.898 105.25ZM202.898 103.594C203.721 103.594 204.398 103.383 204.93 102.961C205.461 102.539 205.854 101.984 206.109 101.297C206.365 100.609 206.492 99.8646 206.492 99.0625C206.492 98.2604 206.365 97.513 206.109 96.8203C205.854 96.1276 205.461 95.5677 204.93 95.1406C204.398 94.7135 203.721 94.5 202.898 94.5C202.076 94.5 201.398 94.7135 200.867 95.1406C200.336 95.5677 199.943 96.1276 199.688 96.8203C199.432 97.513 199.305 98.2604 199.305 99.0625C199.305 99.8646 199.432 100.609 199.688 101.297C199.943 101.984 200.336 102.539 200.867 102.961C201.398 103.383 202.076 103.594 202.898 103.594ZM215.994 109.75C215.104 109.75 214.338 109.635 213.697 109.406C213.057 109.182 212.523 108.885 212.096 108.516C211.674 108.151 211.338 107.76 211.088 107.344L212.557 106.313C212.723 106.531 212.934 106.781 213.189 107.062C213.445 107.349 213.794 107.596 214.236 107.805C214.684 108.018 215.27 108.125 215.994 108.125C216.963 108.125 217.762 107.891 218.393 107.422C219.023 106.953 219.338 106.219 219.338 105.219V102.781H219.182C219.046 103 218.854 103.271 218.604 103.594C218.359 103.911 218.005 104.195 217.541 104.445C217.083 104.69 216.463 104.812 215.682 104.812C214.713 104.812 213.843 104.583 213.072 104.125C212.307 103.667 211.7 103 211.252 102.125C210.809 101.25 210.588 100.187 210.588 98.9375C210.588 97.7083 210.804 96.638 211.236 95.7266C211.669 94.8099 212.27 94.1016 213.041 93.6016C213.812 93.0964 214.702 92.8438 215.713 92.8438C216.494 92.8438 217.114 92.974 217.572 93.2344C218.036 93.4896 218.39 93.7812 218.635 94.1094C218.885 94.4323 219.077 94.6979 219.213 94.9062H219.4V93H221.182V105.344C221.182 106.375 220.947 107.214 220.479 107.859C220.015 108.51 219.39 108.987 218.604 109.289C217.822 109.596 216.952 109.75 215.994 109.75ZM215.932 103.156C216.671 103.156 217.296 102.987 217.807 102.648C218.317 102.31 218.705 101.823 218.971 101.188C219.236 100.552 219.369 99.7917 219.369 98.9062C219.369 98.0417 219.239 97.2786 218.979 96.6172C218.718 95.9557 218.333 95.4375 217.822 95.0625C217.312 94.6875 216.682 94.5 215.932 94.5C215.15 94.5 214.499 94.6979 213.979 95.0937C213.463 95.4896 213.075 96.0208 212.814 96.6875C212.559 97.3542 212.432 98.0937 212.432 98.9062C212.432 99.7396 212.562 100.477 212.822 101.117C213.088 101.753 213.479 102.253 213.994 102.617C214.515 102.977 215.161 103.156 215.932 103.156Z" fill="#FFF6A5"/>
<path d="M285.197 71.25C285.197 69.2812 285.452 67.4714 285.963 65.8203C286.479 64.1641 287.213 62.6406 288.166 61.25H289.791C289.416 61.7656 289.064 62.401 288.736 63.1562C288.413 63.9062 288.13 64.7318 287.885 65.6328C287.64 66.5286 287.447 67.4557 287.307 68.4141C287.171 69.3724 287.104 70.3177 287.104 71.25C287.104 72.4896 287.223 73.7474 287.463 75.0234C287.702 76.2995 288.025 77.4844 288.432 78.5781C288.838 79.6719 289.291 80.5625 289.791 81.25H288.166C287.213 79.8594 286.479 78.3385 285.963 76.6875C285.452 75.0312 285.197 73.2187 285.197 71.25ZM296.449 71.25C296.449 73.2187 296.191 75.0312 295.676 76.6875C295.165 78.3385 294.434 79.8594 293.48 81.25H291.855C292.23 80.7344 292.579 80.099 292.902 79.3438C293.23 78.5938 293.517 77.7708 293.762 76.875C294.007 75.974 294.197 75.0443 294.332 74.0859C294.473 73.1224 294.543 72.1771 294.543 71.25C294.543 70.0104 294.423 68.7526 294.184 67.4766C293.944 66.2005 293.621 65.0156 293.215 63.9219C292.809 62.8281 292.355 61.9375 291.855 61.25H293.48C294.434 62.6406 295.165 64.1641 295.676 65.8203C296.191 67.4714 296.449 69.2812 296.449 71.25Z" fill="#FFD600"/>
<path d="M299.607 71.2812V70.3125C300.477 70.3125 301.084 70.1302 301.428 69.7656C301.777 69.401 301.951 68.7917 301.951 67.9375V65.4375C301.951 64.7187 302.019 64.0964 302.154 63.5703C302.295 63.0443 302.521 62.6094 302.834 62.2656C303.146 61.9219 303.563 61.6667 304.084 61.5C304.605 61.3333 305.248 61.25 306.014 61.25V62.7812C305.41 62.7812 304.933 62.875 304.584 63.0625C304.24 63.25 303.995 63.5417 303.85 63.9375C303.709 64.3281 303.639 64.8281 303.639 65.4375V68.5625C303.639 68.9687 303.584 69.3385 303.475 69.6719C303.37 70.0052 303.175 70.2917 302.889 70.5312C302.602 70.7708 302.193 70.9557 301.662 71.0859C301.136 71.2161 300.451 71.2812 299.607 71.2812ZM306.014 81.25C305.248 81.25 304.605 81.1667 304.084 81C303.563 80.8333 303.146 80.5781 302.834 80.2344C302.521 79.8906 302.295 79.4557 302.154 78.9297C302.019 78.4036 301.951 77.7813 301.951 77.0625V74.5625C301.951 73.7083 301.777 73.099 301.428 72.7344C301.084 72.3698 300.477 72.1875 299.607 72.1875V71.2187C300.451 71.2187 301.136 71.2839 301.662 71.4141C302.193 71.5443 302.602 71.7292 302.889 71.9687C303.175 72.2083 303.37 72.4948 303.475 72.8281C303.584 73.1615 303.639 73.5312 303.639 73.9375V77.0625C303.639 77.6719 303.709 78.1719 303.85 78.5625C303.995 78.9531 304.24 79.2422 304.584 79.4297C304.933 79.6224 305.41 79.7188 306.014 79.7188V81.25ZM299.607 72.1875V70.3125H301.451V72.1875H299.607ZM188.088 105.125C187.702 105.125 187.372 104.987 187.096 104.711C186.82 104.435 186.682 104.104 186.682 103.719C186.682 103.333 186.82 103.003 187.096 102.727C187.372 102.451 187.702 102.312 188.088 102.312C188.473 102.312 188.804 102.451 189.08 102.727C189.356 103.003 189.494 103.333 189.494 103.719C189.494 103.974 189.429 104.208 189.299 104.422C189.174 104.635 189.005 104.807 188.791 104.937C188.583 105.063 188.348 105.125 188.088 105.125ZM225.213 98.25C225.213 96.2812 225.468 94.4714 225.979 92.8203C226.494 91.1641 227.229 89.6406 228.182 88.25H229.807C229.432 88.7656 229.08 89.401 228.752 90.1562C228.429 90.9062 228.145 91.7318 227.9 92.6328C227.656 93.5286 227.463 94.4557 227.322 95.4141C227.187 96.3724 227.119 97.3177 227.119 98.25C227.119 99.4896 227.239 100.747 227.479 102.023C227.718 103.299 228.041 104.484 228.447 105.578C228.854 106.672 229.307 107.563 229.807 108.25H228.182C227.229 106.859 226.494 105.339 225.979 103.687C225.468 102.031 225.213 100.219 225.213 98.25ZM565.52 98.25C565.52 100.219 565.262 102.031 564.746 103.687C564.236 105.339 563.504 106.859 562.551 108.25H560.926C561.301 107.734 561.65 107.099 561.973 106.344C562.301 105.594 562.587 104.771 562.832 103.875C563.077 102.974 563.267 102.044 563.402 101.086C563.543 100.122 563.613 99.1771 563.613 98.25C563.613 97.0104 563.493 95.7526 563.254 94.4766C563.014 93.2005 562.691 92.0156 562.285 90.9219C561.879 89.8281 561.426 88.9375 560.926 88.25H562.551C563.504 89.6406 564.236 91.1641 564.746 92.8203C565.262 94.4714 565.52 96.2812 565.52 98.25ZM74.1563 341.219V342.187C73.2865 342.187 72.6771 342.37 72.3281 342.734C71.9844 343.099 71.8125 343.708 71.8125 344.562V347.062C71.8125 347.781 71.7422 348.404 71.6016 348.93C71.4661 349.456 71.2422 349.891 70.9297 350.234C70.6172 350.578 70.2005 350.833 69.6797 351C69.1589 351.167 68.5156 351.25 67.75 351.25V349.719C68.3542 349.719 68.8281 349.622 69.1719 349.43C69.5208 349.242 69.7656 348.953 69.9063 348.563C70.0521 348.172 70.125 347.672 70.125 347.062V343.937C70.125 343.531 70.1771 343.161 70.2813 342.828C70.3906 342.495 70.5885 342.208 70.875 341.969C71.1615 341.729 71.5677 341.544 72.0938 341.414C72.625 341.284 73.3125 341.219 74.1563 341.219ZM67.75 331.25C68.5156 331.25 69.1589 331.333 69.6797 331.5C70.2005 331.667 70.6172 331.922 70.9297 332.266C71.2422 332.609 71.4661 333.044 71.6016 333.57C71.7422 334.096 71.8125 334.719 71.8125 335.437V337.937C71.8125 338.792 71.9844 339.401 72.3281 339.766C72.6771 340.13 73.2865 340.312 74.1563 340.312V341.281C73.3125 341.281 72.625 341.216 72.0938 341.086C71.5677 340.956 71.1615 340.771 70.875 340.531C70.5885 340.292 70.3906 340.005 70.2813 339.672C70.1771 339.339 70.125 338.969 70.125 338.562V335.437C70.125 334.828 70.0521 334.328 69.9063 333.937C69.7656 333.542 69.5208 333.25 69.1719 333.062C68.8281 332.875 68.3542 332.781 67.75 332.781V331.25ZM74.1563 340.312V342.187H72.3125V340.312H74.1563Z" fill="#C581C7"/>
<path d="M110.688 105.25C109.563 105.25 108.594 104.984 107.781 104.453C106.969 103.922 106.344 103.19 105.906 102.258C105.469 101.326 105.25 100.26 105.25 99.0625C105.25 97.8437 105.474 96.7682 105.922 95.8359C106.375 94.8984 107.005 94.1667 107.813 93.6406C108.625 93.1094 109.573 92.8438 110.656 92.8438C111.5 92.8438 112.26 93 112.938 93.3125C113.615 93.625 114.169 94.0625 114.602 94.625C115.034 95.1875 115.302 95.8437 115.406 96.5937H113.563C113.422 96.0469 113.109 95.5625 112.625 95.1406C112.146 94.7135 111.5 94.5 110.688 94.5C109.969 94.5 109.339 94.6875 108.797 95.0625C108.26 95.4323 107.841 95.9557 107.539 96.6328C107.242 97.3047 107.094 98.0937 107.094 99C107.094 99.9271 107.24 100.734 107.531 101.422C107.828 102.109 108.245 102.643 108.781 103.023C109.323 103.404 109.958 103.594 110.688 103.594C111.167 103.594 111.602 103.51 111.992 103.344C112.383 103.177 112.714 102.938 112.984 102.625C113.255 102.312 113.448 101.937 113.563 101.5H115.406C115.302 102.208 115.044 102.846 114.633 103.414C114.227 103.977 113.688 104.424 113.016 104.758C112.349 105.086 111.573 105.25 110.688 105.25ZM122.977 105.25C121.893 105.25 120.943 104.992 120.125 104.477C119.313 103.961 118.677 103.24 118.219 102.312C117.766 101.385 117.539 100.302 117.539 99.0625C117.539 97.8125 117.766 96.7214 118.219 95.7891C118.677 94.8568 119.313 94.1328 120.125 93.6172C120.943 93.1016 121.893 92.8438 122.977 92.8438C124.06 92.8438 125.008 93.1016 125.82 93.6172C126.638 94.1328 127.273 94.8568 127.727 95.7891C128.185 96.7214 128.414 97.8125 128.414 99.0625C128.414 100.302 128.185 101.385 127.727 102.312C127.273 103.24 126.638 103.961 125.82 104.477C125.008 104.992 124.06 105.25 122.977 105.25ZM122.977 103.594C123.799 103.594 124.477 103.383 125.008 102.961C125.539 102.539 125.932 101.984 126.188 101.297C126.443 100.609 126.57 99.8646 126.57 99.0625C126.57 98.2604 126.443 97.513 126.188 96.8203C125.932 96.1276 125.539 95.5677 125.008 95.1406C124.477 94.7135 123.799 94.5 122.977 94.5C122.154 94.5 121.477 94.7135 120.945 95.1406C120.414 95.5677 120.021 96.1276 119.766 96.8203C119.51 97.513 119.383 98.2604 119.383 99.0625C119.383 99.8646 119.51 100.609 119.766 101.297C120.021 101.984 120.414 102.539 120.945 102.961C121.477 103.383 122.154 103.594 122.977 103.594ZM133.072 97.7812V105H131.229V93H133.01V94.875H133.166C133.447 94.2656 133.874 93.776 134.447 93.4063C135.02 93.0313 135.76 92.8438 136.666 92.8438C137.479 92.8438 138.189 93.0104 138.799 93.3437C139.408 93.6719 139.882 94.1719 140.221 94.8437C140.559 95.5104 140.729 96.3542 140.729 97.375V105H138.885V97.5C138.885 96.5573 138.64 95.8229 138.15 95.2969C137.661 94.7656 136.989 94.5 136.135 94.5C135.546 94.5 135.02 94.6276 134.557 94.8828C134.098 95.138 133.736 95.5104 133.471 96C133.205 96.4896 133.072 97.0833 133.072 97.7812ZM152.598 95.6875L150.941 96.1562C150.837 95.8802 150.684 95.612 150.48 95.3516C150.283 95.0859 150.012 94.8672 149.668 94.6953C149.324 94.5234 148.884 94.4375 148.348 94.4375C147.613 94.4375 147.001 94.6068 146.512 94.9453C146.027 95.2786 145.785 95.7031 145.785 96.2187C145.785 96.6771 145.952 97.0391 146.285 97.3047C146.618 97.5703 147.139 97.7917 147.848 97.9687L149.629 98.4063C150.702 98.6667 151.501 99.0651 152.027 99.6016C152.553 100.133 152.816 100.818 152.816 101.656C152.816 102.344 152.618 102.958 152.223 103.5C151.832 104.042 151.285 104.469 150.582 104.781C149.879 105.094 149.061 105.25 148.129 105.25C146.905 105.25 145.892 104.984 145.09 104.453C144.288 103.922 143.78 103.146 143.566 102.125L145.316 101.687C145.483 102.333 145.798 102.818 146.262 103.141C146.73 103.464 147.342 103.625 148.098 103.625C148.957 103.625 149.639 103.443 150.145 103.078C150.655 102.708 150.91 102.266 150.91 101.75C150.91 101.333 150.764 100.984 150.473 100.703C150.181 100.417 149.733 100.203 149.129 100.062L147.129 99.5937C146.03 99.3333 145.223 98.9297 144.707 98.3828C144.197 97.8307 143.941 97.1406 143.941 96.3125C143.941 95.6354 144.132 95.0365 144.512 94.5156C144.897 93.9948 145.421 93.5859 146.082 93.2891C146.749 92.9922 147.504 92.8438 148.348 92.8438C149.535 92.8438 150.467 93.1042 151.145 93.625C151.827 94.1458 152.311 94.8333 152.598 95.6875ZM160.467 105.25C159.383 105.25 158.433 104.992 157.615 104.477C156.803 103.961 156.167 103.24 155.709 102.312C155.256 101.385 155.029 100.302 155.029 99.0625C155.029 97.8125 155.256 96.7214 155.709 95.7891C156.167 94.8568 156.803 94.1328 157.615 93.6172C158.433 93.1016 159.383 92.8438 160.467 92.8438C161.55 92.8438 162.498 93.1016 163.311 93.6172C164.128 94.1328 164.764 94.8568 165.217 95.7891C165.675 96.7214 165.904 97.8125 165.904 99.0625C165.904 100.302 165.675 101.385 165.217 102.312C164.764 103.24 164.128 103.961 163.311 104.477C162.498 104.992 161.55 105.25 160.467 105.25ZM160.467 103.594C161.29 103.594 161.967 103.383 162.498 102.961C163.029 102.539 163.423 101.984 163.678 101.297C163.933 100.609 164.061 99.8646 164.061 99.0625C164.061 98.2604 163.933 97.513 163.678 96.8203C163.423 96.1276 163.029 95.5677 162.498 95.1406C161.967 94.7135 161.29 94.5 160.467 94.5C159.644 94.5 158.967 94.7135 158.436 95.1406C157.904 95.5677 157.511 96.1276 157.256 96.8203C157.001 97.513 156.873 98.2604 156.873 99.0625C156.873 99.8646 157.001 100.609 157.256 101.297C157.511 101.984 157.904 102.539 158.436 102.961C158.967 103.383 159.644 103.594 160.467 103.594ZM170.563 89V105H168.719V89H170.563ZM178.971 105.25C177.814 105.25 176.817 104.995 175.979 104.484C175.145 103.969 174.502 103.25 174.049 102.328C173.601 101.401 173.377 100.323 173.377 99.0938C173.377 97.8646 173.601 96.7812 174.049 95.8437C174.502 94.901 175.132 94.1667 175.939 93.6406C176.752 93.1094 177.7 92.8438 178.783 92.8438C179.408 92.8438 180.025 92.9479 180.635 93.1562C181.244 93.3646 181.799 93.7031 182.299 94.1719C182.799 94.6354 183.197 95.25 183.494 96.0156C183.791 96.7812 183.939 97.724 183.939 98.8437V99.625H174.689V98.0312H182.064C182.064 97.3542 181.929 96.75 181.658 96.2187C181.393 95.6875 181.012 95.2682 180.518 94.9609C180.028 94.6536 179.45 94.5 178.783 94.5C178.049 94.5 177.413 94.6823 176.877 95.0469C176.346 95.4062 175.937 95.875 175.65 96.4531C175.364 97.0312 175.221 97.651 175.221 98.3125V99.375C175.221 100.281 175.377 101.049 175.689 101.68C176.007 102.305 176.447 102.781 177.01 103.109C177.572 103.432 178.226 103.594 178.971 103.594C179.455 103.594 179.893 103.526 180.283 103.391C180.679 103.25 181.02 103.042 181.307 102.766C181.593 102.484 181.814 102.135 181.971 101.719L183.752 102.219C183.564 102.823 183.249 103.354 182.807 103.812C182.364 104.266 181.817 104.62 181.166 104.875C180.515 105.125 179.783 105.25 178.971 105.25Z" fill="#39B8FF"/>
<path d="M231.902 94V92.5937C231.902 92.1667 231.978 91.7135 232.129 91.2344C232.285 90.75 232.509 90.2839 232.801 89.8359C233.098 89.3828 233.454 88.9896 233.871 88.6562L234.871 89.4687C234.543 89.9375 234.257 90.4271 234.012 90.9375C233.772 91.4427 233.652 91.9844 233.652 92.5625V94H231.902ZM235.902 94V92.5937C235.902 92.1667 235.978 91.7135 236.129 91.2344C236.285 90.75 236.509 90.2839 236.801 89.8359C237.098 89.3828 237.454 88.9896 237.871 88.6562L238.871 89.4687C238.543 89.9375 238.257 90.4271 238.012 90.9375C237.772 91.4427 237.652 91.9844 237.652 92.5625V94H235.902ZM554.828 89V90.4062C554.828 90.8333 554.75 91.2891 554.594 91.7734C554.443 92.2526 554.219 92.7187 553.922 93.1719C553.63 93.6198 553.276 94.0104 552.859 94.3438L551.859 93.5313C552.188 93.0625 552.471 92.5755 552.711 92.0703C552.956 91.5599 553.078 91.0156 553.078 90.4375V89H554.828ZM558.828 89V90.4062C558.828 90.8333 558.75 91.2891 558.594 91.7734C558.443 92.2526 558.219 92.7187 557.922 93.1719C557.63 93.6198 557.276 94.0104 556.859 94.3438L555.859 93.5313C556.188 93.0625 556.471 92.5755 556.711 92.0703C556.956 91.5599 557.078 91.0156 557.078 90.4375V89H558.828Z" fill="#CE6B40"/>
<path d="M241.156 105V89H243V94.9062H243.156C243.292 94.6979 243.479 94.4323 243.719 94.1094C243.964 93.7812 244.313 93.4896 244.766 93.2344C245.224 92.974 245.844 92.8438 246.625 92.8438C247.635 92.8438 248.526 93.0964 249.297 93.6016C250.068 94.1068 250.669 94.8229 251.102 95.75C251.534 96.6771 251.75 97.7708 251.75 99.0313C251.75 100.302 251.534 101.404 251.102 102.336C250.669 103.263 250.07 103.982 249.305 104.492C248.539 104.997 247.656 105.25 246.656 105.25C245.885 105.25 245.268 105.122 244.805 104.867C244.341 104.607 243.984 104.312 243.734 103.984C243.484 103.651 243.292 103.375 243.156 103.156H242.938V105H241.156ZM242.969 99C242.969 99.9062 243.102 100.706 243.367 101.398C243.633 102.086 244.021 102.625 244.531 103.016C245.042 103.401 245.667 103.594 246.406 103.594C247.177 103.594 247.82 103.391 248.336 102.984C248.857 102.573 249.247 102.021 249.508 101.328C249.773 100.63 249.906 99.8542 249.906 99C249.906 98.1562 249.776 97.3958 249.516 96.7187C249.26 96.0365 248.872 95.4974 248.352 95.1016C247.836 94.7005 247.188 94.5 246.406 94.5C245.656 94.5 245.026 94.6901 244.516 95.0703C244.005 95.4453 243.62 95.9714 243.359 96.6484C243.099 97.3203 242.969 98.1042 242.969 99ZM259.445 105.25C258.362 105.25 257.411 104.992 256.594 104.477C255.781 103.961 255.146 103.24 254.688 102.312C254.234 101.385 254.008 100.302 254.008 99.0625C254.008 97.8125 254.234 96.7214 254.688 95.7891C255.146 94.8568 255.781 94.1328 256.594 93.6172C257.411 93.1016 258.362 92.8438 259.445 92.8438C260.529 92.8438 261.477 93.1016 262.289 93.6172C263.107 94.1328 263.742 94.8568 264.195 95.7891C264.654 96.7214 264.883 97.8125 264.883 99.0625C264.883 100.302 264.654 101.385 264.195 102.312C263.742 103.24 263.107 103.961 262.289 104.477C261.477 104.992 260.529 105.25 259.445 105.25ZM259.445 103.594C260.268 103.594 260.945 103.383 261.477 102.961C262.008 102.539 262.401 101.984 262.656 101.297C262.911 100.609 263.039 99.8646 263.039 99.0625C263.039 98.2604 262.911 97.513 262.656 96.8203C262.401 96.1276 262.008 95.5677 261.477 95.1406C260.945 94.7135 260.268 94.5 259.445 94.5C258.622 94.5 257.945 94.7135 257.414 95.1406C256.883 95.5677 256.49 96.1276 256.234 96.8203C255.979 97.513 255.852 98.2604 255.852 99.0625C255.852 99.8646 255.979 100.609 256.234 101.297C256.49 101.984 256.883 102.539 257.414 102.961C257.945 103.383 258.622 103.594 259.445 103.594ZM272.916 93V94.5625H266.697V93H272.916ZM268.51 90.125H270.354V101.562C270.354 102.083 270.429 102.474 270.58 102.734C270.736 102.99 270.934 103.161 271.174 103.25C271.419 103.333 271.676 103.375 271.947 103.375C272.15 103.375 272.317 103.365 272.447 103.344C272.577 103.318 272.682 103.297 272.76 103.281L273.135 104.937C273.01 104.984 272.835 105.031 272.611 105.078C272.387 105.13 272.104 105.156 271.76 105.156C271.239 105.156 270.729 105.044 270.229 104.82C269.734 104.596 269.322 104.255 268.994 103.797C268.671 103.339 268.51 102.76 268.51 102.062V90.125ZM277.791 97.7812V105H275.947V89H277.791V94.875H277.947C278.229 94.2552 278.65 93.763 279.213 93.3984C279.781 93.0286 280.536 92.8438 281.479 92.8438C282.296 92.8438 283.012 93.0078 283.627 93.3359C284.242 93.6589 284.718 94.1562 285.057 94.8281C285.4 95.4948 285.572 96.3437 285.572 97.375V105H283.729V97.5C283.729 96.5469 283.481 95.8099 282.986 95.2891C282.497 94.763 281.817 94.5 280.947 94.5C280.343 94.5 279.801 94.6276 279.322 94.8828C278.848 95.138 278.473 95.5104 278.197 96C277.926 96.4896 277.791 97.0833 277.791 97.7812ZM300.477 93V94.5625H294.008V93H300.477ZM295.945 105V91.3438C295.945 90.6562 296.107 90.0833 296.43 89.625C296.753 89.1667 297.172 88.8229 297.687 88.5937C298.203 88.3646 298.747 88.25 299.32 88.25C299.773 88.25 300.143 88.2865 300.43 88.3594C300.716 88.4323 300.93 88.5 301.07 88.5625L300.539 90.1562C300.445 90.125 300.315 90.0859 300.148 90.0391C299.987 89.9922 299.773 89.9687 299.508 89.9687C298.898 89.9687 298.458 90.1224 298.188 90.4297C297.922 90.737 297.789 91.1875 297.789 91.7812V105H295.945ZM310.623 100.094V93H312.467V105H310.623V102.969H310.498C310.217 103.578 309.779 104.096 309.186 104.523C308.592 104.945 307.842 105.156 306.936 105.156C306.186 105.156 305.519 104.992 304.936 104.664C304.352 104.331 303.894 103.831 303.561 103.164C303.227 102.492 303.061 101.646 303.061 100.625V93H304.904V100.5C304.904 101.375 305.149 102.073 305.639 102.594C306.133 103.115 306.764 103.375 307.529 103.375C307.988 103.375 308.454 103.258 308.928 103.023C309.407 102.789 309.808 102.43 310.131 101.945C310.459 101.461 310.623 100.844 310.623 100.094ZM317.688 97.7812V105H315.844V93H317.625V94.875H317.781C318.063 94.2656 318.49 93.776 319.063 93.4063C319.635 93.0313 320.375 92.8438 321.281 92.8438C322.094 92.8438 322.805 93.0104 323.414 93.3437C324.023 93.6719 324.497 94.1719 324.836 94.8437C325.174 95.5104 325.344 96.3542 325.344 97.375V105H323.5V97.5C323.5 96.5573 323.255 95.8229 322.766 95.2969C322.276 94.7656 321.604 94.5 320.75 94.5C320.161 94.5 319.635 94.6276 319.172 94.8828C318.714 95.138 318.352 95.5104 318.086 96C317.82 96.4896 317.688 97.0833 317.688 97.7812ZM333.588 105.25C332.463 105.25 331.494 104.984 330.682 104.453C329.869 103.922 329.244 103.19 328.807 102.258C328.369 101.326 328.15 100.26 328.15 99.0625C328.15 97.8437 328.374 96.7682 328.822 95.8359C329.275 94.8984 329.906 94.1667 330.713 93.6406C331.525 93.1094 332.473 92.8438 333.557 92.8438C334.4 92.8438 335.161 93 335.838 93.3125C336.515 93.625 337.07 94.0625 337.502 94.625C337.934 95.1875 338.202 95.8437 338.307 96.5937H336.463C336.322 96.0469 336.01 95.5625 335.525 95.1406C335.046 94.7135 334.4 94.5 333.588 94.5C332.869 94.5 332.239 94.6875 331.697 95.0625C331.161 95.4323 330.742 95.9557 330.439 96.6328C330.143 97.3047 329.994 98.0937 329.994 99C329.994 99.9271 330.14 100.734 330.432 101.422C330.729 102.109 331.145 102.643 331.682 103.023C332.223 103.404 332.859 103.594 333.588 103.594C334.067 103.594 334.502 103.51 334.893 103.344C335.283 103.177 335.614 102.938 335.885 102.625C336.156 102.312 336.348 101.937 336.463 101.5H338.307C338.202 102.208 337.945 102.846 337.533 103.414C337.127 103.977 336.588 104.424 335.916 104.758C335.249 105.086 334.473 105.25 333.588 105.25ZM346.221 93V94.5625H340.002V93H346.221ZM341.814 90.125H343.658V101.562C343.658 102.083 343.734 102.474 343.885 102.734C344.041 102.99 344.239 103.161 344.479 103.25C344.723 103.333 344.981 103.375 345.252 103.375C345.455 103.375 345.622 103.365 345.752 103.344C345.882 103.318 345.986 103.297 346.064 103.281L346.439 104.937C346.314 104.984 346.14 105.031 345.916 105.078C345.692 105.13 345.408 105.156 345.064 105.156C344.544 105.156 344.033 105.044 343.533 104.82C343.038 104.596 342.627 104.255 342.299 103.797C341.976 103.339 341.814 102.76 341.814 102.062V90.125ZM348.994 105V93H350.838V105H348.994ZM349.932 91C349.572 91 349.262 90.8776 349.002 90.6328C348.747 90.388 348.619 90.0938 348.619 89.75C348.619 89.4063 348.747 89.112 349.002 88.8672C349.262 88.6224 349.572 88.5 349.932 88.5C350.291 88.5 350.598 88.6224 350.854 88.8672C351.114 89.112 351.244 89.4063 351.244 89.75C351.244 90.0938 351.114 90.388 350.854 90.6328C350.598 90.8776 350.291 91 349.932 91ZM359.09 105.25C358.007 105.25 357.056 104.992 356.238 104.477C355.426 103.961 354.79 103.24 354.332 102.312C353.879 101.385 353.652 100.302 353.652 99.0625C353.652 97.8125 353.879 96.7214 354.332 95.7891C354.79 94.8568 355.426 94.1328 356.238 93.6172C357.056 93.1016 358.007 92.8438 359.09 92.8438C360.173 92.8438 361.121 93.1016 361.934 93.6172C362.751 94.1328 363.387 94.8568 363.84 95.7891C364.298 96.7214 364.527 97.8125 364.527 99.0625C364.527 100.302 364.298 101.385 363.84 102.312C363.387 103.24 362.751 103.961 361.934 104.477C361.121 104.992 360.173 105.25 359.09 105.25ZM359.09 103.594C359.913 103.594 360.59 103.383 361.121 102.961C361.652 102.539 362.046 101.984 362.301 101.297C362.556 100.609 362.684 99.8646 362.684 99.0625C362.684 98.2604 362.556 97.513 362.301 96.8203C362.046 96.1276 361.652 95.5677 361.121 95.1406C360.59 94.7135 359.913 94.5 359.09 94.5C358.267 94.5 357.59 94.7135 357.059 95.1406C356.527 95.5677 356.134 96.1276 355.879 96.8203C355.624 97.513 355.496 98.2604 355.496 99.0625C355.496 99.8646 355.624 100.609 355.879 101.297C356.134 101.984 356.527 102.539 357.059 102.961C357.59 103.383 358.267 103.594 359.09 103.594ZM369.186 97.7812V105H367.342V93H369.123V94.875H369.279C369.561 94.2656 369.988 93.776 370.561 93.4063C371.133 93.0313 371.873 92.8438 372.779 92.8438C373.592 92.8438 374.303 93.0104 374.912 93.3437C375.521 93.6719 375.995 94.1719 376.334 94.8437C376.673 95.5104 376.842 96.3542 376.842 97.375V105H374.998V97.5C374.998 96.5573 374.753 95.8229 374.264 95.2969C373.774 94.7656 373.102 94.5 372.248 94.5C371.66 94.5 371.133 94.6276 370.67 94.8828C370.212 95.138 369.85 95.5104 369.584 96C369.318 96.4896 369.186 97.0833 369.186 97.7812ZM383.742 105.281C382.982 105.281 382.292 105.138 381.672 104.852C381.052 104.56 380.56 104.141 380.195 103.594C379.831 103.042 379.648 102.375 379.648 101.594C379.648 100.906 379.784 100.349 380.055 99.9219C380.326 99.4896 380.688 99.151 381.141 98.9062C381.594 98.6615 382.094 98.4792 382.641 98.3594C383.193 98.2344 383.747 98.1354 384.305 98.0625C385.034 97.9687 385.625 97.8984 386.078 97.8516C386.536 97.7995 386.87 97.7135 387.078 97.5937C387.292 97.474 387.398 97.2656 387.398 96.9687V96.9062C387.398 96.1354 387.188 95.5365 386.766 95.1094C386.349 94.6823 385.716 94.4687 384.867 94.4687C383.987 94.4687 383.297 94.6615 382.797 95.0469C382.297 95.4323 381.945 95.8437 381.742 96.2812L379.992 95.6562C380.305 94.9271 380.721 94.3594 381.242 93.9531C381.768 93.5417 382.341 93.2552 382.961 93.0937C383.586 92.9271 384.201 92.8438 384.805 92.8438C385.19 92.8438 385.633 92.8906 386.133 92.9844C386.638 93.0729 387.125 93.2578 387.594 93.5391C388.068 93.8203 388.461 94.2448 388.773 94.8125C389.086 95.3802 389.242 96.1406 389.242 97.0938V105H387.398V103.375H387.305C387.18 103.635 386.971 103.914 386.68 104.211C386.388 104.508 386 104.76 385.516 104.969C385.031 105.177 384.44 105.281 383.742 105.281ZM384.023 103.625C384.753 103.625 385.367 103.482 385.867 103.195C386.372 102.909 386.753 102.539 387.008 102.086C387.268 101.633 387.398 101.156 387.398 100.656V98.9687C387.32 99.0625 387.148 99.1484 386.883 99.2266C386.622 99.2995 386.32 99.3646 385.977 99.4219C385.638 99.474 385.307 99.5208 384.984 99.5625C384.667 99.599 384.409 99.6302 384.211 99.6562C383.732 99.7187 383.284 99.8203 382.867 99.9609C382.456 100.096 382.122 100.302 381.867 100.578C381.617 100.849 381.492 101.219 381.492 101.687C381.492 102.328 381.729 102.812 382.203 103.141C382.682 103.464 383.289 103.625 384.023 103.625ZM394.451 89V105H392.607V89H394.451ZM407.547 105.281C406.786 105.281 406.096 105.138 405.477 104.852C404.857 104.56 404.365 104.141 404 103.594C403.635 103.042 403.453 102.375 403.453 101.594C403.453 100.906 403.589 100.349 403.859 99.9219C404.13 99.4896 404.492 99.151 404.945 98.9062C405.398 98.6615 405.898 98.4792 406.445 98.3594C406.997 98.2344 407.552 98.1354 408.109 98.0625C408.839 97.9687 409.43 97.8984 409.883 97.8516C410.341 97.7995 410.674 97.7135 410.883 97.5937C411.096 97.474 411.203 97.2656 411.203 96.9687V96.9062C411.203 96.1354 410.992 95.5365 410.57 95.1094C410.154 94.6823 409.521 94.4687 408.672 94.4687C407.792 94.4687 407.102 94.6615 406.602 95.0469C406.102 95.4323 405.75 95.8437 405.547 96.2812L403.797 95.6562C404.109 94.9271 404.526 94.3594 405.047 93.9531C405.573 93.5417 406.146 93.2552 406.766 93.0937C407.391 92.9271 408.005 92.8438 408.609 92.8438C408.995 92.8438 409.438 92.8906 409.938 92.9844C410.443 93.0729 410.93 93.2578 411.398 93.5391C411.872 93.8203 412.266 94.2448 412.578 94.8125C412.891 95.3802 413.047 96.1406 413.047 97.0938V105H411.203V103.375H411.109C410.984 103.635 410.776 103.914 410.484 104.211C410.193 104.508 409.805 104.76 409.32 104.969C408.836 105.177 408.245 105.281 407.547 105.281ZM407.828 103.625C408.557 103.625 409.172 103.482 409.672 103.195C410.177 102.909 410.557 102.539 410.812 102.086C411.073 101.633 411.203 101.156 411.203 100.656V98.9687C411.125 99.0625 410.953 99.1484 410.688 99.2266C410.427 99.2995 410.125 99.3646 409.781 99.4219C409.443 99.474 409.112 99.5208 408.789 99.5625C408.471 99.599 408.214 99.6302 408.016 99.6562C407.536 99.7187 407.089 99.8203 406.672 99.9609C406.26 100.096 405.927 100.302 405.672 100.578C405.422 100.849 405.297 101.219 405.297 101.687C405.297 102.328 405.534 102.812 406.008 103.141C406.487 103.464 407.094 103.625 407.828 103.625ZM418.256 97.7812V105H416.412V93H418.193V94.875H418.35C418.631 94.2656 419.058 93.776 419.631 93.4063C420.204 93.0313 420.943 92.8438 421.85 92.8438C422.662 92.8438 423.373 93.0104 423.982 93.3437C424.592 93.6719 425.066 94.1719 425.404 94.8437C425.743 95.5104 425.912 96.3542 425.912 97.375V105H424.068V97.5C424.068 96.5573 423.824 95.8229 423.334 95.2969C422.844 94.7656 422.173 94.5 421.318 94.5C420.73 94.5 420.204 94.6276 419.74 94.8828C419.282 95.138 418.92 95.5104 418.654 96C418.389 96.4896 418.256 97.0833 418.256 97.7812ZM433.813 105.25C432.813 105.25 431.93 104.997 431.164 104.492C430.398 103.982 429.799 103.263 429.367 102.336C428.935 101.404 428.719 100.302 428.719 99.0313C428.719 97.7708 428.935 96.6771 429.367 95.75C429.799 94.8229 430.401 94.1068 431.172 93.6016C431.943 93.0964 432.833 92.8438 433.844 92.8438C434.625 92.8438 435.242 92.974 435.695 93.2344C436.154 93.4896 436.503 93.7812 436.742 94.1094C436.987 94.4323 437.177 94.6979 437.313 94.9062H437.469V89H439.313V105H437.531V103.156H437.313C437.177 103.375 436.984 103.651 436.734 103.984C436.484 104.312 436.128 104.607 435.664 104.867C435.201 105.122 434.583 105.25 433.813 105.25ZM434.063 103.594C434.802 103.594 435.427 103.401 435.938 103.016C436.448 102.625 436.836 102.086 437.102 101.398C437.367 100.706 437.5 99.9062 437.5 99C437.5 98.1042 437.37 97.3203 437.109 96.6484C436.849 95.9714 436.464 95.4453 435.953 95.0703C435.443 94.6901 434.813 94.5 434.063 94.5C433.281 94.5 432.63 94.7005 432.109 95.1016C431.594 95.4974 431.206 96.0365 430.945 96.7187C430.69 97.3958 430.563 98.1562 430.563 99C430.563 99.8542 430.693 100.63 430.953 101.328C431.219 102.021 431.609 102.573 432.125 102.984C432.646 103.391 433.292 103.594 434.063 103.594ZM462.883 97C462.883 98.6875 462.578 100.146 461.969 101.375C461.359 102.604 460.523 103.552 459.461 104.219C458.398 104.885 457.185 105.219 455.82 105.219C454.456 105.219 453.242 104.885 452.18 104.219C451.117 103.552 450.281 102.604 449.672 101.375C449.063 100.146 448.758 98.6875 448.758 97C448.758 95.3125 449.063 93.8542 449.672 92.625C450.281 91.3958 451.117 90.4479 452.18 89.7812C453.242 89.1146 454.456 88.7812 455.82 88.7812C457.185 88.7812 458.398 89.1146 459.461 89.7812C460.523 90.4479 461.359 91.3958 461.969 92.625C462.578 93.8542 462.883 95.3125 462.883 97ZM461.008 97C461.008 95.6146 460.776 94.4453 460.313 93.4922C459.854 92.5391 459.232 91.8177 458.445 91.3281C457.664 90.8385 456.789 90.5937 455.82 90.5937C454.852 90.5937 453.974 90.8385 453.188 91.3281C452.406 91.8177 451.784 92.5391 451.32 93.4922C450.862 94.4453 450.633 95.6146 450.633 97C450.633 98.3854 450.862 99.5547 451.32 100.508C451.784 101.461 452.406 102.182 453.188 102.672C453.974 103.161 454.852 103.406 455.82 103.406C456.789 103.406 457.664 103.161 458.445 102.672C459.232 102.182 459.854 101.461 460.313 100.508C460.776 99.5547 461.008 98.3854 461.008 97ZM479.641 97C479.641 98.6875 479.336 100.146 478.727 101.375C478.117 102.604 477.281 103.552 476.219 104.219C475.156 104.885 473.943 105.219 472.578 105.219C471.214 105.219 470 104.885 468.938 104.219C467.875 103.552 467.039 102.604 466.43 101.375C465.82 100.146 465.516 98.6875 465.516 97C465.516 95.3125 465.82 93.8542 466.43 92.625C467.039 91.3958 467.875 90.4479 468.938 89.7812C470 89.1146 471.214 88.7812 472.578 88.7812C473.943 88.7812 475.156 89.1146 476.219 89.7812C477.281 90.4479 478.117 91.3958 478.727 92.625C479.336 93.8542 479.641 95.3125 479.641 97ZM477.766 97C477.766 95.6146 477.534 94.4453 477.07 93.4922C476.612 92.5391 475.99 91.8177 475.203 91.3281C474.422 90.8385 473.547 90.5937 472.578 90.5937C471.609 90.5937 470.732 90.8385 469.945 91.3281C469.164 91.8177 468.542 92.5391 468.078 93.4922C467.62 94.4453 467.391 95.6146 467.391 97C467.391 98.3854 467.62 99.5547 468.078 100.508C468.542 101.461 469.164 102.182 469.945 102.672C470.732 103.161 471.609 103.406 472.578 103.406C473.547 103.406 474.422 103.161 475.203 102.672C475.99 102.182 476.612 101.461 477.07 100.508C477.534 99.5547 477.766 98.3854 477.766 97ZM482.898 105V89H488.305C489.56 89 490.586 89.2266 491.383 89.6797C492.185 90.1276 492.779 90.7344 493.164 91.5C493.549 92.2656 493.742 93.1198 493.742 94.0625C493.742 95.0052 493.549 95.862 493.164 96.6328C492.784 97.4036 492.195 98.0182 491.398 98.4766C490.602 98.9297 489.581 99.1562 488.336 99.1562H484.461V97.4375H488.273C489.133 97.4375 489.823 97.2891 490.344 96.9922C490.865 96.6953 491.242 96.2943 491.477 95.7891C491.716 95.2786 491.836 94.7031 491.836 94.0625C491.836 93.4219 491.716 92.849 491.477 92.3437C491.242 91.8385 490.862 91.4427 490.336 91.1562C489.81 90.8646 489.112 90.7187 488.242 90.7187H484.836V105H482.898ZM505.52 105L501.863 93H503.801L506.395 102.188H506.52L509.082 93H511.051L513.582 102.156H513.707L516.301 93H518.238L514.582 105H512.77L510.145 95.7812H509.957L507.332 105H505.52ZM520.676 105V93H522.52V105H520.676ZM521.613 91C521.254 91 520.944 90.8776 520.684 90.6328C520.428 90.388 520.301 90.0938 520.301 89.75C520.301 89.4063 520.428 89.112 520.684 88.8672C520.944 88.6224 521.254 88.5 521.613 88.5C521.973 88.5 522.28 88.6224 522.535 88.8672C522.796 89.112 522.926 89.4063 522.926 89.75C522.926 90.0938 522.796 90.388 522.535 90.6328C522.28 90.8776 521.973 91 521.613 91ZM531.115 93V94.5625H524.896V93H531.115ZM526.709 90.125H528.553V101.562C528.553 102.083 528.628 102.474 528.779 102.734C528.936 102.99 529.133 103.161 529.373 103.25C529.618 103.333 529.876 103.375 530.146 103.375C530.35 103.375 530.516 103.365 530.646 103.344C530.777 103.318 530.881 103.297 530.959 103.281L531.334 104.937C531.209 104.984 531.035 105.031 530.811 105.078C530.587 105.13 530.303 105.156 529.959 105.156C529.438 105.156 528.928 105.044 528.428 104.82C527.933 104.596 527.521 104.255 527.193 103.797C526.87 103.339 526.709 102.76 526.709 102.062V90.125ZM535.99 97.7812V105H534.146V89H535.99V94.875H536.146C536.428 94.2552 536.85 93.763 537.412 93.3984C537.98 93.0286 538.735 92.8438 539.678 92.8438C540.495 92.8438 541.212 93.0078 541.826 93.3359C542.441 93.6589 542.917 94.1562 543.256 94.8281C543.6 95.4948 543.771 96.3437 543.771 97.375V105H541.928V97.5C541.928 96.5469 541.68 95.8099 541.186 95.2891C540.696 94.763 540.016 94.5 539.146 94.5C538.542 94.5 538.001 94.6276 537.521 94.8828C537.048 95.138 536.673 95.5104 536.396 96C536.126 96.4896 535.99 97.0833 535.99 97.7812ZM548.488 105.125C548.103 105.125 547.772 104.987 547.496 104.711C547.22 104.435 547.082 104.104 547.082 103.719C547.082 103.333 547.22 103.003 547.496 102.727C547.772 102.451 548.103 102.312 548.488 102.312C548.874 102.312 549.204 102.451 549.48 102.727C549.757 103.003 549.895 103.333 549.895 103.719C549.895 103.974 549.829 104.208 549.699 104.422C549.574 104.635 549.405 104.807 549.191 104.937C548.983 105.063 548.749 105.125 548.488 105.125ZM548.488 96.2187C548.103 96.2187 547.772 96.0807 547.496 95.8047C547.22 95.5286 547.082 95.1979 547.082 94.8125C547.082 94.4271 547.22 94.0964 547.496 93.8203C547.772 93.5443 548.103 93.4063 548.488 93.4063C548.874 93.4063 549.204 93.5443 549.48 93.8203C549.757 94.0964 549.895 94.4271 549.895 94.8125C549.895 95.0677 549.829 95.3021 549.699 95.5156C549.574 95.7292 549.405 95.901 549.191 96.0312C548.983 96.1562 548.749 96.2187 548.488 96.2187Z" fill="#FF9B71"/>
<line x1="1" x2="1" y2="379" stroke="black" stroke-width="2"/>
<line x1="637" x2="637" y2="379" stroke="black" stroke-width="2"/>
<line x1="636" y1="1" y2="1" stroke="black" stroke-width="2"/>
<line x1="636" y1="380" y2="380" stroke="black" stroke-width="2"/>
<ellipse cx="616.693" cy="22" rx="5.67857" ry="5" fill="#82E800"/>
<ellipse cx="578.079" cy="22" rx="5.67857" ry="5" fill="#C90202"/>
<ellipse cx="597.386" cy="22" rx="5.67857" ry="5" fill="#CCEB0F"/>
</svg>
