<svg width="638" height="381" viewBox="0 0 638 381" fill="none" xmlns="http://www.w3.org/2000/svg">
<g filter="url(#filter0_b_12_5)">
<rect y="44" width="636" height="82" fill="white"/>
</g>
<g filter="url(#filter1_b_12_5)">
<rect y="290" width="636" height="89" fill="white"/>
</g>
<g filter="url(#filter2_b_12_5)">
<rect y="208" width="636" height="82" fill="white"/>
</g>
<g filter="url(#filter3_b_12_5)">
<rect y="126" width="636" height="82" fill="white"/>
</g>
<g filter="url(#filter4_b_12_5)">
<rect width="636" height="44" fill="#3D7CEB"/>
</g>
<g filter="url(#filter5_b_12_5)">
<line y1="43.5" x2="636" y2="43.5" stroke="black"/>
</g>
<g filter="url(#filter6_b_12_5)">
<line x1="52.727" y1="13.6866" x2="35.727" y2="31.6866" stroke="black" stroke-width="2"/>
<line y1="-1" x2="22.3585" y2="-1" transform="matrix(-0.894602 -0.446864 0.541611 -0.840629 30.002 30.9694)" stroke="black" stroke-width="2"/>
<line y1="-1" x2="20.7837" y2="-1" transform="matrix(0.90192 -0.431904 0.525508 0.850789 10.0661 22.9765)" stroke="black" stroke-width="2"/>
<line y1="-1" x2="22.2208" y2="-1" transform="matrix(0.868875 0.495031 -0.592171 0.805813 56.5643 13)" stroke="black" stroke-width="2"/>
<line y1="-1" x2="20.8989" y2="-1" transform="matrix(-0.923834 0.382794 -0.471357 -0.881942 75.8714 22)" stroke="black" stroke-width="2"/>
</g>
<g filter="url(#filter7_b_12_5)">
<path d="M74.7813 66V68.5H67.375V66H74.7813ZM69.0703 78V65.1328C69.0703 64.263 69.2396 63.5417 69.5781 62.9687C69.9219 62.3958 70.3906 61.9661 70.9844 61.6797C71.5781 61.3932 72.2526 61.25 73.0078 61.25C73.5182 61.25 73.9844 61.2891 74.4063 61.3672C74.8333 61.4453 75.151 61.5156 75.3594 61.5781L74.7656 64.0781C74.6354 64.0365 74.474 63.9974 74.2812 63.9609C74.0937 63.9245 73.901 63.9062 73.7031 63.9062C73.2135 63.9062 72.8724 64.0208 72.6797 64.25C72.487 64.474 72.3906 64.7891 72.3906 65.1953V78H69.0703ZM84.5098 72.8906V66H87.8379V78H84.6426V75.8203H84.5176C84.2467 76.5234 83.7962 77.0885 83.166 77.5156C82.541 77.9427 81.778 78.1563 80.877 78.1563C80.0749 78.1563 79.3691 77.974 78.7598 77.6094C78.1504 77.2448 77.6738 76.7266 77.3301 76.0547C76.9915 75.3828 76.8197 74.5781 76.8145 73.6406V66H80.1426V73.0469C80.1478 73.7552 80.3379 74.3151 80.7129 74.7266C81.0879 75.138 81.5905 75.3437 82.2207 75.3437C82.6217 75.3437 82.9967 75.2526 83.3457 75.0703C83.6947 74.8828 83.9759 74.6068 84.1895 74.2422C84.4082 73.8776 84.515 73.4271 84.5098 72.8906ZM93.8281 71.0625V78H90.5V66H93.6719V68.1172H93.8125C94.0781 67.4193 94.5234 66.8672 95.1484 66.4609C95.7734 66.0495 96.5312 65.8438 97.4219 65.8438C98.2552 65.8438 98.9818 66.026 99.6016 66.3906C100.221 66.7552 100.703 67.276 101.047 67.9531C101.391 68.625 101.563 69.4271 101.563 70.3594V78H98.2344V70.9531C98.2396 70.2187 98.0521 69.6458 97.6719 69.2344C97.2917 68.8177 96.7682 68.6094 96.1016 68.6094C95.6536 68.6094 95.2578 68.7057 94.9141 68.8984C94.5755 69.0911 94.3099 69.3724 94.1172 69.7422C93.9297 70.1068 93.8333 70.5469 93.8281 71.0625ZM109.607 78.2344C108.378 78.2344 107.321 77.974 106.436 77.4531C105.555 76.9271 104.878 76.1979 104.404 75.2656C103.936 74.3333 103.701 73.2604 103.701 72.0469C103.701 70.8177 103.938 69.7396 104.412 68.8125C104.891 67.8802 105.571 67.1536 106.451 66.6328C107.331 66.1068 108.378 65.8438 109.592 65.8438C110.639 65.8438 111.555 66.0339 112.342 66.4141C113.128 66.7943 113.751 67.3281 114.209 68.0156C114.667 68.7031 114.92 69.5104 114.967 70.4375H111.826C111.738 69.8385 111.503 69.3568 111.123 68.9922C110.748 68.6224 110.256 68.4375 109.646 68.4375C109.131 68.4375 108.68 68.5781 108.295 68.8594C107.915 69.1354 107.618 69.5391 107.404 70.0703C107.191 70.6016 107.084 71.2448 107.084 72C107.084 72.7656 107.188 73.4167 107.396 73.9531C107.61 74.4896 107.91 74.8984 108.295 75.1797C108.68 75.4609 109.131 75.6016 109.646 75.6016C110.027 75.6016 110.368 75.5234 110.67 75.3672C110.977 75.2109 111.23 74.9844 111.428 74.6875C111.631 74.3854 111.764 74.0234 111.826 73.6016H114.967C114.915 74.5182 114.665 75.3255 114.217 76.0234C113.774 76.7161 113.162 77.2578 112.381 77.6484C111.6 78.0391 110.675 78.2344 109.607 78.2344ZM123.48 66V68.5H116.254V66H123.48ZM117.895 63.125H121.223V74.3125C121.223 74.6198 121.27 74.8594 121.363 75.0312C121.457 75.1979 121.587 75.3151 121.754 75.3828C121.926 75.4505 122.124 75.4844 122.348 75.4844C122.504 75.4844 122.66 75.4714 122.816 75.4453C122.973 75.4141 123.092 75.3906 123.176 75.375L123.699 77.8516C123.533 77.9036 123.298 77.9635 122.996 78.0313C122.694 78.1042 122.327 78.1484 121.895 78.1641C121.092 78.1953 120.389 78.0885 119.785 77.8437C119.186 77.599 118.72 77.2187 118.387 76.7031C118.053 76.1875 117.889 75.5365 117.895 74.75V63.125ZM125.648 78V66H128.977V78H125.648ZM127.32 64.4531C126.826 64.4531 126.401 64.2891 126.047 63.9609C125.698 63.6276 125.523 63.2292 125.523 62.7656C125.523 62.3073 125.698 61.9141 126.047 61.5859C126.401 61.2526 126.826 61.0859 127.32 61.0859C127.815 61.0859 128.237 61.2526 128.586 61.5859C128.94 61.9141 129.117 62.3073 129.117 62.7656C129.117 63.2292 128.94 63.6276 128.586 63.9609C128.237 64.2891 127.815 64.4531 127.32 64.4531ZM137.064 78.2344C135.851 78.2344 134.801 77.9766 133.916 77.4609C133.036 76.9401 132.356 76.2161 131.877 75.2891C131.398 74.3568 131.158 73.276 131.158 72.0469C131.158 70.8073 131.398 69.724 131.877 68.7969C132.356 67.8646 133.036 67.1406 133.916 66.625C134.801 66.1042 135.851 65.8438 137.064 65.8438C138.278 65.8438 139.325 66.1042 140.205 66.625C141.09 67.1406 141.773 67.8646 142.252 68.7969C142.731 69.724 142.971 70.8073 142.971 72.0469C142.971 73.276 142.731 74.3568 142.252 75.2891C141.773 76.2161 141.09 76.9401 140.205 77.4609C139.325 77.9766 138.278 78.2344 137.064 78.2344ZM137.08 75.6562C137.632 75.6562 138.093 75.5 138.463 75.1875C138.833 74.8698 139.111 74.4375 139.299 73.8906C139.492 73.3437 139.588 72.7214 139.588 72.0234C139.588 71.3255 139.492 70.7031 139.299 70.1562C139.111 69.6094 138.833 69.1771 138.463 68.8594C138.093 68.5417 137.632 68.3828 137.08 68.3828C136.523 68.3828 136.054 68.5417 135.674 68.8594C135.299 69.1771 135.015 69.6094 134.822 70.1562C134.635 70.7031 134.541 71.3255 134.541 72.0234C134.541 72.7214 134.635 73.3437 134.822 73.8906C135.015 74.4375 135.299 74.8698 135.674 75.1875C136.054 75.5 136.523 75.6562 137.08 75.6562ZM148.463 71.0625V78H145.135V66H148.307V68.1172H148.447C148.713 67.4193 149.158 66.8672 149.783 66.4609C150.408 66.0495 151.166 65.8438 152.057 65.8438C152.89 65.8438 153.617 66.026 154.236 66.3906C154.856 66.7552 155.338 67.276 155.682 67.9531C156.025 68.625 156.197 69.4271 156.197 70.3594V78H152.869V70.9531C152.874 70.2187 152.687 69.6458 152.307 69.2344C151.926 68.8177 151.403 68.6094 150.736 68.6094C150.288 68.6094 149.893 68.7057 149.549 68.8984C149.21 69.0911 148.945 69.3724 148.752 69.7422C148.564 70.1068 148.468 70.5469 148.463 71.0625Z" fill="#4695F1"/>
<path d="M170.445 78.2344C169.242 78.2344 168.203 77.9844 167.328 77.4844C166.458 76.9792 165.789 76.2656 165.32 75.3437C164.852 74.4167 164.617 73.3255 164.617 72.0703C164.617 70.8359 164.852 69.7526 165.32 68.8203C165.794 67.8828 166.456 67.1536 167.305 66.6328C168.154 66.1068 169.151 65.8438 170.297 65.8438C171.036 65.8438 171.734 65.9635 172.391 66.2031C173.052 66.4375 173.635 66.8021 174.141 67.2969C174.651 67.7917 175.052 68.4219 175.344 69.1875C175.635 69.9479 175.781 70.8542 175.781 71.9062V72.7734H165.945V70.8672H173.07C173.065 70.3255 172.948 69.8437 172.719 69.4219C172.49 68.9948 172.169 68.6589 171.758 68.4141C171.352 68.1693 170.878 68.0469 170.336 68.0469C169.758 68.0469 169.25 68.1875 168.813 68.4687C168.375 68.7448 168.034 69.1094 167.789 69.5625C167.549 70.0104 167.427 70.5026 167.422 71.0391V72.7031C167.422 73.401 167.549 74 167.805 74.5C168.06 74.9948 168.417 75.375 168.875 75.6406C169.333 75.901 169.87 76.0312 170.484 76.0312C170.896 76.0312 171.268 75.974 171.602 75.8594C171.935 75.7396 172.224 75.5651 172.469 75.3359C172.714 75.1068 172.898 74.8229 173.023 74.4844L175.664 74.7812C175.497 75.4792 175.18 76.0885 174.711 76.6094C174.247 77.125 173.654 77.526 172.93 77.8125C172.206 78.0937 171.378 78.2344 170.445 78.2344ZM180.229 66L182.65 70.4297L185.111 66H188.104L184.486 72L188.166 78H185.189L182.65 73.6797L180.135 78H177.135L180.791 72L177.229 66H180.229ZM190.291 82.5V66H193.072V67.9844H193.236C193.382 67.6927 193.588 67.3828 193.854 67.0547C194.119 66.7214 194.479 66.4375 194.932 66.2031C195.385 65.9635 195.963 65.8438 196.666 65.8438C197.593 65.8438 198.429 66.0807 199.174 66.5547C199.924 67.0234 200.518 67.7187 200.955 68.6406C201.398 69.5573 201.619 70.6823 201.619 72.0156C201.619 73.3333 201.403 74.4531 200.971 75.375C200.538 76.2969 199.95 77 199.205 77.4844C198.46 77.9688 197.617 78.2109 196.674 78.2109C195.986 78.2109 195.416 78.0964 194.963 77.8672C194.51 77.638 194.145 77.362 193.869 77.0391C193.598 76.7109 193.387 76.401 193.236 76.1094H193.119V82.5H190.291ZM193.064 72C193.064 72.776 193.174 73.4557 193.393 74.0391C193.617 74.6224 193.937 75.0781 194.354 75.4062C194.775 75.7292 195.286 75.8906 195.885 75.8906C196.51 75.8906 197.033 75.724 197.455 75.3906C197.877 75.0521 198.195 74.5911 198.408 74.0078C198.627 73.4193 198.736 72.75 198.736 72C198.736 71.2552 198.63 70.5937 198.416 70.0156C198.202 69.4375 197.885 68.9844 197.463 68.6562C197.041 68.3281 196.515 68.1641 195.885 68.1641C195.281 68.1641 194.768 68.3229 194.346 68.6406C193.924 68.9583 193.604 69.4036 193.385 69.9766C193.171 70.5495 193.064 71.224 193.064 72ZM209.354 78.2344C208.15 78.2344 207.111 77.9844 206.236 77.4844C205.367 76.9792 204.697 76.2656 204.229 75.3437C203.76 74.4167 203.525 73.3255 203.525 72.0703C203.525 70.8359 203.76 69.7526 204.229 68.8203C204.702 67.8828 205.364 67.1536 206.213 66.6328C207.062 66.1068 208.059 65.8438 209.205 65.8438C209.945 65.8438 210.643 65.9635 211.299 66.2031C211.96 66.4375 212.544 66.8021 213.049 67.2969C213.559 67.7917 213.96 68.4219 214.252 69.1875C214.544 69.9479 214.689 70.8542 214.689 71.9062V72.7734H204.854V70.8672H211.979C211.973 70.3255 211.856 69.8437 211.627 69.4219C211.398 68.9948 211.077 68.6589 210.666 68.4141C210.26 68.1693 209.786 68.0469 209.244 68.0469C208.666 68.0469 208.158 68.1875 207.721 68.4687C207.283 68.7448 206.942 69.1094 206.697 69.5625C206.458 70.0104 206.335 70.5026 206.33 71.0391V72.7031C206.33 73.401 206.458 74 206.713 74.5C206.968 74.9948 207.325 75.375 207.783 75.6406C208.242 75.901 208.778 76.0312 209.393 76.0312C209.804 76.0312 210.176 75.974 210.51 75.8594C210.843 75.7396 211.132 75.5651 211.377 75.3359C211.622 75.1068 211.807 74.8229 211.932 74.4844L214.572 74.7812C214.406 75.4792 214.088 76.0885 213.619 76.6094C213.156 77.125 212.562 77.526 211.838 77.8125C211.114 78.0937 210.286 78.2344 209.354 78.2344ZM217.082 78V66H219.824V68H219.949C220.168 67.3073 220.543 66.7734 221.074 66.3984C221.611 66.0182 222.223 65.8281 222.91 65.8281C223.066 65.8281 223.241 65.8359 223.434 65.8516C223.632 65.862 223.796 65.8802 223.926 65.9062V68.5078C223.806 68.4661 223.616 68.4297 223.355 68.3984C223.1 68.362 222.853 68.3437 222.613 68.3437C222.098 68.3437 221.634 68.4557 221.223 68.6797C220.816 68.8984 220.496 69.2031 220.262 69.5937C220.027 69.9844 219.91 70.4349 219.91 70.9453V78H217.082ZM225.805 78V66H228.633V78H225.805ZM227.227 64.2969C226.779 64.2969 226.393 64.1484 226.07 63.8516C225.747 63.5495 225.586 63.1875 225.586 62.7656C225.586 62.3385 225.747 61.9766 226.07 61.6797C226.393 61.3776 226.779 61.2266 227.227 61.2266C227.68 61.2266 228.065 61.3776 228.383 61.6797C228.706 61.9766 228.867 62.3385 228.867 62.7656C228.867 63.1875 228.706 63.5495 228.383 63.8516C228.065 64.1484 227.68 64.2969 227.227 64.2969ZM236.854 78.2344C235.65 78.2344 234.611 77.9844 233.736 77.4844C232.867 76.9792 232.197 76.2656 231.729 75.3437C231.26 74.4167 231.025 73.3255 231.025 72.0703C231.025 70.8359 231.26 69.7526 231.729 68.8203C232.202 67.8828 232.864 67.1536 233.713 66.6328C234.562 66.1068 235.559 65.8438 236.705 65.8438C237.445 65.8438 238.143 65.9635 238.799 66.2031C239.46 66.4375 240.044 66.8021 240.549 67.2969C241.059 67.7917 241.46 68.4219 241.752 69.1875C242.044 69.9479 242.189 70.8542 242.189 71.9062V72.7734H232.354V70.8672H239.479C239.473 70.3255 239.356 69.8437 239.127 69.4219C238.898 68.9948 238.577 68.6589 238.166 68.4141C237.76 68.1693 237.286 68.0469 236.744 68.0469C236.166 68.0469 235.658 68.1875 235.221 68.4687C234.783 68.7448 234.442 69.1094 234.197 69.5625C233.958 70.0104 233.835 70.5026 233.83 71.0391V72.7031C233.83 73.401 233.958 74 234.213 74.5C234.468 74.9948 234.825 75.375 235.283 75.6406C235.742 75.901 236.278 76.0312 236.893 76.0312C237.304 76.0312 237.676 75.974 238.01 75.8594C238.343 75.7396 238.632 75.5651 238.877 75.3359C239.122 75.1068 239.307 74.8229 239.432 74.4844L242.072 74.7812C241.906 75.4792 241.588 76.0885 241.119 76.6094C240.656 77.125 240.062 77.526 239.338 77.8125C238.614 78.0937 237.786 78.2344 236.854 78.2344ZM247.41 70.9687V78H244.582V66H247.285V68.0391H247.426C247.702 67.3672 248.142 66.8333 248.746 66.4375C249.355 66.0417 250.108 65.8438 251.004 65.8438C251.832 65.8438 252.553 66.0208 253.168 66.375C253.788 66.7292 254.267 67.2422 254.605 67.9141C254.949 68.5859 255.118 69.401 255.113 70.3594V78H252.285V70.7969C252.285 69.9948 252.077 69.3672 251.66 68.9141C251.249 68.4609 250.678 68.2344 249.949 68.2344C249.454 68.2344 249.014 68.3437 248.629 68.5625C248.249 68.776 247.949 69.0859 247.73 69.4922C247.517 69.8984 247.41 70.3906 247.41 70.9687ZM263.223 78.2344C262.025 78.2344 260.996 77.9714 260.137 77.4453C259.283 76.9193 258.624 76.1927 258.16 75.2656C257.702 74.3333 257.473 73.2604 257.473 72.0469C257.473 70.8281 257.707 69.7526 258.176 68.8203C258.645 67.8828 259.306 67.1536 260.16 66.6328C261.02 66.1068 262.035 65.8438 263.207 65.8438C264.181 65.8438 265.043 66.0234 265.793 66.3828C266.548 66.737 267.15 67.2396 267.598 67.8906C268.046 68.5365 268.301 69.2917 268.363 70.1562H265.66C265.551 69.5781 265.29 69.0964 264.879 68.7109C264.473 68.3203 263.928 68.125 263.246 68.125C262.668 68.125 262.16 68.2812 261.723 68.5937C261.285 68.901 260.944 69.3437 260.699 69.9219C260.46 70.5 260.34 71.1927 260.34 72C260.34 72.8177 260.46 73.5208 260.699 74.1094C260.939 74.6927 261.275 75.1432 261.707 75.4609C262.145 75.7734 262.658 75.9297 263.246 75.9297C263.663 75.9297 264.035 75.8516 264.363 75.6953C264.697 75.5339 264.975 75.3021 265.199 75C265.423 74.6979 265.577 74.3307 265.66 73.8984H268.363C268.296 74.7474 268.046 75.5 267.613 76.1562C267.181 76.8073 266.592 77.3177 265.848 77.6875C265.103 78.0521 264.228 78.2344 263.223 78.2344ZM275.998 78.2344C274.795 78.2344 273.756 77.9844 272.881 77.4844C272.011 76.9792 271.342 76.2656 270.873 75.3437C270.404 74.4167 270.17 73.3255 270.17 72.0703C270.17 70.8359 270.404 69.7526 270.873 68.8203C271.347 67.8828 272.008 67.1536 272.857 66.6328C273.706 66.1068 274.704 65.8438 275.85 65.8438C276.589 65.8438 277.287 65.9635 277.943 66.2031C278.605 66.4375 279.188 66.8021 279.693 67.2969C280.204 67.7917 280.605 68.4219 280.896 69.1875C281.188 69.9479 281.334 70.8542 281.334 71.9062V72.7734H271.498V70.8672H278.623C278.618 70.3255 278.501 69.8437 278.271 69.4219C278.042 68.9948 277.722 68.6589 277.311 68.4141C276.904 68.1693 276.43 68.0469 275.889 68.0469C275.311 68.0469 274.803 68.1875 274.365 68.4687C273.928 68.7448 273.587 69.1094 273.342 69.5625C273.102 70.0104 272.98 70.5026 272.975 71.0391V72.7031C272.975 73.401 273.102 74 273.357 74.5C273.613 74.9948 273.969 75.375 274.428 75.6406C274.886 75.901 275.423 76.0312 276.037 76.0312C276.449 76.0312 276.821 75.974 277.154 75.8594C277.488 75.7396 277.777 75.5651 278.021 75.3359C278.266 75.1068 278.451 74.8229 278.576 74.4844L281.217 74.7812C281.05 75.4792 280.732 76.0885 280.264 76.6094C279.8 77.125 279.206 77.526 278.482 77.8125C277.758 78.0937 276.93 78.2344 275.998 78.2344ZM194.646 89V105H192.803V89H194.646ZM202.898 105.25C201.815 105.25 200.865 104.992 200.047 104.477C199.234 103.961 198.599 103.24 198.141 102.312C197.688 101.385 197.461 100.302 197.461 99.0625C197.461 97.8125 197.688 96.7214 198.141 95.7891C198.599 94.8568 199.234 94.1328 200.047 93.6172C200.865 93.1016 201.815 92.8438 202.898 92.8438C203.982 92.8438 204.93 93.1016 205.742 93.6172C206.56 94.1328 207.195 94.8568 207.648 95.7891C208.107 96.7214 208.336 97.8125 208.336 99.0625C208.336 100.302 208.107 101.385 207.648 102.312C207.195 103.24 206.56 103.961 205.742 104.477C204.93 104.992 203.982 105.25 202.898 105.25ZM202.898 103.594C203.721 103.594 204.398 103.383 204.93 102.961C205.461 102.539 205.854 101.984 206.109 101.297C206.365 100.609 206.492 99.8646 206.492 99.0625C206.492 98.2604 206.365 97.513 206.109 96.8203C205.854 96.1276 205.461 95.5677 204.93 95.1406C204.398 94.7135 203.721 94.5 202.898 94.5C202.076 94.5 201.398 94.7135 200.867 95.1406C200.336 95.5677 199.943 96.1276 199.688 96.8203C199.432 97.513 199.305 98.2604 199.305 99.0625C199.305 99.8646 199.432 100.609 199.688 101.297C199.943 101.984 200.336 102.539 200.867 102.961C201.398 103.383 202.076 103.594 202.898 103.594ZM215.994 109.75C215.104 109.75 214.338 109.635 213.697 109.406C213.057 109.182 212.523 108.885 212.096 108.516C211.674 108.151 211.338 107.76 211.088 107.344L212.557 106.313C212.723 106.531 212.934 106.781 213.189 107.062C213.445 107.349 213.794 107.596 214.236 107.805C214.684 108.018 215.27 108.125 215.994 108.125C216.963 108.125 217.762 107.891 218.393 107.422C219.023 106.953 219.338 106.219 219.338 105.219V102.781H219.182C219.046 103 218.854 103.271 218.604 103.594C218.359 103.911 218.005 104.195 217.541 104.445C217.083 104.69 216.463 104.812 215.682 104.812C214.713 104.812 213.843 104.583 213.072 104.125C212.307 103.667 211.7 103 211.252 102.125C210.809 101.25 210.588 100.187 210.588 98.9375C210.588 97.7083 210.804 96.638 211.236 95.7266C211.669 94.8099 212.27 94.1016 213.041 93.6016C213.812 93.0964 214.702 92.8438 215.713 92.8438C216.494 92.8438 217.114 92.974 217.572 93.2344C218.036 93.4896 218.39 93.7812 218.635 94.1094C218.885 94.4323 219.077 94.6979 219.213 94.9062H219.4V93H221.182V105.344C221.182 106.375 220.947 107.214 220.479 107.859C220.015 108.51 219.39 108.987 218.604 109.289C217.822 109.596 216.952 109.75 215.994 109.75ZM215.932 103.156C216.671 103.156 217.296 102.987 217.807 102.648C218.317 102.31 218.705 101.823 218.971 101.188C219.236 100.552 219.369 99.7917 219.369 98.9062C219.369 98.0417 219.239 97.2786 218.979 96.6172C218.718 95.9557 218.333 95.4375 217.822 95.0625C217.312 94.6875 216.682 94.5 215.932 94.5C215.15 94.5 214.499 94.6979 213.979 95.0937C213.463 95.4896 213.075 96.0208 212.814 96.6875C212.559 97.3542 212.432 98.0937 212.432 98.9062C212.432 99.7396 212.562 100.477 212.822 101.117C213.088 101.753 213.479 102.253 213.994 102.617C214.515 102.977 215.161 103.156 215.932 103.156Z" fill="#FFF6A5"/>
<path d="M284.617 71.25C284.617 69.2812 284.872 67.4714 285.383 65.8203C285.898 64.1641 286.633 62.6406 287.586 61.25H289.211C288.836 61.7656 288.484 62.401 288.156 63.1562C287.833 63.9062 287.549 64.7318 287.305 65.6328C287.06 66.5286 286.867 67.4557 286.727 68.4141C286.591 69.3724 286.523 70.3177 286.523 71.25C286.523 72.4896 286.643 73.7474 286.883 75.0234C287.122 76.2995 287.445 77.4844 287.852 78.5781C288.258 79.6719 288.711 80.5625 289.211 81.25H287.586C286.633 79.8594 285.898 78.3385 285.383 76.6875C284.872 75.0312 284.617 73.2187 284.617 71.25ZM295.869 71.25C295.869 73.2187 295.611 75.0312 295.096 76.6875C294.585 78.3385 293.854 79.8594 292.9 81.25H291.275C291.65 80.7344 291.999 80.099 292.322 79.3438C292.65 78.5938 292.937 77.7708 293.182 76.875C293.426 75.974 293.617 75.0443 293.752 74.0859C293.893 73.1224 293.963 72.1771 293.963 71.25C293.963 70.0104 293.843 68.7526 293.604 67.4766C293.364 66.2005 293.041 65.0156 292.635 63.9219C292.229 62.8281 291.775 61.9375 291.275 61.25H292.9C293.854 62.6406 294.585 64.1641 295.096 65.8203C295.611 67.4714 295.869 69.2812 295.869 71.25Z" fill="#FFD600"/>
<path d="M299.027 71.2812V70.3125C299.897 70.3125 300.504 70.1302 300.848 69.7656C301.197 69.401 301.371 68.7917 301.371 67.9375V65.4375C301.371 64.7187 301.439 64.0964 301.574 63.5703C301.715 63.0443 301.941 62.6094 302.254 62.2656C302.566 61.9219 302.983 61.6667 303.504 61.5C304.025 61.3333 304.668 61.25 305.434 61.25V62.7812C304.829 62.7812 304.353 62.875 304.004 63.0625C303.66 63.25 303.415 63.5417 303.27 63.9375C303.129 64.3281 303.059 64.8281 303.059 65.4375V68.5625C303.059 68.9687 303.004 69.3385 302.895 69.6719C302.79 70.0052 302.595 70.2917 302.309 70.5312C302.022 70.7708 301.613 70.9557 301.082 71.0859C300.556 71.2161 299.871 71.2812 299.027 71.2812ZM305.434 81.25C304.668 81.25 304.025 81.1667 303.504 81C302.983 80.8333 302.566 80.5781 302.254 80.2344C301.941 79.8906 301.715 79.4557 301.574 78.9297C301.439 78.4036 301.371 77.7813 301.371 77.0625V74.5625C301.371 73.7083 301.197 73.099 300.848 72.7344C300.504 72.3698 299.897 72.1875 299.027 72.1875V71.2187C299.871 71.2187 300.556 71.2839 301.082 71.4141C301.613 71.5443 302.022 71.7292 302.309 71.9687C302.595 72.2083 302.79 72.4948 302.895 72.8281C303.004 73.1615 303.059 73.5312 303.059 73.9375V77.0625C303.059 77.6719 303.129 78.1719 303.27 78.5625C303.415 78.9531 303.66 79.2422 304.004 79.4297C304.353 79.6224 304.829 79.7188 305.434 79.7188V81.25ZM299.027 72.1875V70.3125H300.871V72.1875H299.027ZM188.088 105.125C187.702 105.125 187.372 104.987 187.096 104.711C186.82 104.435 186.682 104.104 186.682 103.719C186.682 103.333 186.82 103.003 187.096 102.727C187.372 102.451 187.702 102.312 188.088 102.312C188.473 102.312 188.804 102.451 189.08 102.727C189.356 103.003 189.494 103.333 189.494 103.719C189.494 103.974 189.429 104.208 189.299 104.422C189.174 104.635 189.005 104.807 188.791 104.937C188.583 105.063 188.348 105.125 188.088 105.125ZM225.213 98.25C225.213 96.2812 225.468 94.4714 225.979 92.8203C226.494 91.1641 227.229 89.6406 228.182 88.25H229.807C229.432 88.7656 229.08 89.401 228.752 90.1562C228.429 90.9062 228.145 91.7318 227.9 92.6328C227.656 93.5286 227.463 94.4557 227.322 95.4141C227.187 96.3724 227.119 97.3177 227.119 98.25C227.119 99.4896 227.239 100.747 227.479 102.023C227.718 103.299 228.041 104.484 228.447 105.578C228.854 106.672 229.307 107.563 229.807 108.25H228.182C227.229 106.859 226.494 105.339 225.979 103.687C225.468 102.031 225.213 100.219 225.213 98.25ZM558.344 98.25C558.344 100.219 558.086 102.031 557.57 103.687C557.06 105.339 556.328 106.859 555.375 108.25H553.75C554.125 107.734 554.474 107.099 554.797 106.344C555.125 105.594 555.411 104.771 555.656 103.875C555.901 102.974 556.091 102.044 556.227 101.086C556.367 100.122 556.438 99.1771 556.438 98.25C556.438 97.0104 556.318 95.7526 556.078 94.4766C555.839 93.2005 555.516 92.0156 555.109 90.9219C554.703 89.8281 554.25 88.9375 553.75 88.25H555.375C556.328 89.6406 557.06 91.1641 557.57 92.8203C558.086 94.4714 558.344 96.2812 558.344 98.25ZM74.1563 341.219V342.187C73.2865 342.187 72.6771 342.37 72.3281 342.734C71.9844 343.099 71.8125 343.708 71.8125 344.562V347.062C71.8125 347.781 71.7422 348.404 71.6016 348.93C71.4661 349.456 71.2422 349.891 70.9297 350.234C70.6172 350.578 70.2005 350.833 69.6797 351C69.1589 351.167 68.5156 351.25 67.75 351.25V349.719C68.3542 349.719 68.8281 349.622 69.1719 349.43C69.5208 349.242 69.7656 348.953 69.9063 348.563C70.0521 348.172 70.125 347.672 70.125 347.062V343.937C70.125 343.531 70.1771 343.161 70.2813 342.828C70.3906 342.495 70.5885 342.208 70.875 341.969C71.1615 341.729 71.5677 341.544 72.0938 341.414C72.625 341.284 73.3125 341.219 74.1563 341.219ZM67.75 331.25C68.5156 331.25 69.1589 331.333 69.6797 331.5C70.2005 331.667 70.6172 331.922 70.9297 332.266C71.2422 332.609 71.4661 333.044 71.6016 333.57C71.7422 334.096 71.8125 334.719 71.8125 335.437V337.937C71.8125 338.792 71.9844 339.401 72.3281 339.766C72.6771 340.13 73.2865 340.312 74.1563 340.312V341.281C73.3125 341.281 72.625 341.216 72.0938 341.086C71.5677 340.956 71.1615 340.771 70.875 340.531C70.5885 340.292 70.3906 340.005 70.2813 339.672C70.1771 339.339 70.125 338.969 70.125 338.562V335.437C70.125 334.828 70.0521 334.328 69.9063 333.937C69.7656 333.542 69.5208 333.25 69.1719 333.062C68.8281 332.875 68.3542 332.781 67.75 332.781V331.25ZM74.1563 340.312V342.187H72.3125V340.312H74.1563Z" fill="#C581C7"/>
<path d="M110.688 105.25C109.563 105.25 108.594 104.984 107.781 104.453C106.969 103.922 106.344 103.19 105.906 102.258C105.469 101.326 105.25 100.26 105.25 99.0625C105.25 97.8437 105.474 96.7682 105.922 95.8359C106.375 94.8984 107.005 94.1667 107.813 93.6406C108.625 93.1094 109.573 92.8438 110.656 92.8438C111.5 92.8438 112.26 93 112.938 93.3125C113.615 93.625 114.169 94.0625 114.602 94.625C115.034 95.1875 115.302 95.8437 115.406 96.5937H113.563C113.422 96.0469 113.109 95.5625 112.625 95.1406C112.146 94.7135 111.5 94.5 110.688 94.5C109.969 94.5 109.339 94.6875 108.797 95.0625C108.26 95.4323 107.841 95.9557 107.539 96.6328C107.242 97.3047 107.094 98.0937 107.094 99C107.094 99.9271 107.24 100.734 107.531 101.422C107.828 102.109 108.245 102.643 108.781 103.023C109.323 103.404 109.958 103.594 110.688 103.594C111.167 103.594 111.602 103.51 111.992 103.344C112.383 103.177 112.714 102.938 112.984 102.625C113.255 102.312 113.448 101.937 113.563 101.5H115.406C115.302 102.208 115.044 102.846 114.633 103.414C114.227 103.977 113.688 104.424 113.016 104.758C112.349 105.086 111.573 105.25 110.688 105.25ZM122.977 105.25C121.893 105.25 120.943 104.992 120.125 104.477C119.313 103.961 118.677 103.24 118.219 102.312C117.766 101.385 117.539 100.302 117.539 99.0625C117.539 97.8125 117.766 96.7214 118.219 95.7891C118.677 94.8568 119.313 94.1328 120.125 93.6172C120.943 93.1016 121.893 92.8438 122.977 92.8438C124.06 92.8438 125.008 93.1016 125.82 93.6172C126.638 94.1328 127.273 94.8568 127.727 95.7891C128.185 96.7214 128.414 97.8125 128.414 99.0625C128.414 100.302 128.185 101.385 127.727 102.312C127.273 103.24 126.638 103.961 125.82 104.477C125.008 104.992 124.06 105.25 122.977 105.25ZM122.977 103.594C123.799 103.594 124.477 103.383 125.008 102.961C125.539 102.539 125.932 101.984 126.188 101.297C126.443 100.609 126.57 99.8646 126.57 99.0625C126.57 98.2604 126.443 97.513 126.188 96.8203C125.932 96.1276 125.539 95.5677 125.008 95.1406C124.477 94.7135 123.799 94.5 122.977 94.5C122.154 94.5 121.477 94.7135 120.945 95.1406C120.414 95.5677 120.021 96.1276 119.766 96.8203C119.51 97.513 119.383 98.2604 119.383 99.0625C119.383 99.8646 119.51 100.609 119.766 101.297C120.021 101.984 120.414 102.539 120.945 102.961C121.477 103.383 122.154 103.594 122.977 103.594ZM133.072 97.7812V105H131.229V93H133.01V94.875H133.166C133.447 94.2656 133.874 93.776 134.447 93.4063C135.02 93.0313 135.76 92.8438 136.666 92.8438C137.479 92.8438 138.189 93.0104 138.799 93.3437C139.408 93.6719 139.882 94.1719 140.221 94.8437C140.559 95.5104 140.729 96.3542 140.729 97.375V105H138.885V97.5C138.885 96.5573 138.64 95.8229 138.15 95.2969C137.661 94.7656 136.989 94.5 136.135 94.5C135.546 94.5 135.02 94.6276 134.557 94.8828C134.098 95.138 133.736 95.5104 133.471 96C133.205 96.4896 133.072 97.0833 133.072 97.7812ZM152.598 95.6875L150.941 96.1562C150.837 95.8802 150.684 95.612 150.48 95.3516C150.283 95.0859 150.012 94.8672 149.668 94.6953C149.324 94.5234 148.884 94.4375 148.348 94.4375C147.613 94.4375 147.001 94.6068 146.512 94.9453C146.027 95.2786 145.785 95.7031 145.785 96.2187C145.785 96.6771 145.952 97.0391 146.285 97.3047C146.618 97.5703 147.139 97.7917 147.848 97.9687L149.629 98.4063C150.702 98.6667 151.501 99.0651 152.027 99.6016C152.553 100.133 152.816 100.818 152.816 101.656C152.816 102.344 152.618 102.958 152.223 103.5C151.832 104.042 151.285 104.469 150.582 104.781C149.879 105.094 149.061 105.25 148.129 105.25C146.905 105.25 145.892 104.984 145.09 104.453C144.288 103.922 143.78 103.146 143.566 102.125L145.316 101.687C145.483 102.333 145.798 102.818 146.262 103.141C146.73 103.464 147.342 103.625 148.098 103.625C148.957 103.625 149.639 103.443 150.145 103.078C150.655 102.708 150.91 102.266 150.91 101.75C150.91 101.333 150.764 100.984 150.473 100.703C150.181 100.417 149.733 100.203 149.129 100.062L147.129 99.5937C146.03 99.3333 145.223 98.9297 144.707 98.3828C144.197 97.8307 143.941 97.1406 143.941 96.3125C143.941 95.6354 144.132 95.0365 144.512 94.5156C144.897 93.9948 145.421 93.5859 146.082 93.2891C146.749 92.9922 147.504 92.8438 148.348 92.8438C149.535 92.8438 150.467 93.1042 151.145 93.625C151.827 94.1458 152.311 94.8333 152.598 95.6875ZM160.467 105.25C159.383 105.25 158.433 104.992 157.615 104.477C156.803 103.961 156.167 103.24 155.709 102.312C155.256 101.385 155.029 100.302 155.029 99.0625C155.029 97.8125 155.256 96.7214 155.709 95.7891C156.167 94.8568 156.803 94.1328 157.615 93.6172C158.433 93.1016 159.383 92.8438 160.467 92.8438C161.55 92.8438 162.498 93.1016 163.311 93.6172C164.128 94.1328 164.764 94.8568 165.217 95.7891C165.675 96.7214 165.904 97.8125 165.904 99.0625C165.904 100.302 165.675 101.385 165.217 102.312C164.764 103.24 164.128 103.961 163.311 104.477C162.498 104.992 161.55 105.25 160.467 105.25ZM160.467 103.594C161.29 103.594 161.967 103.383 162.498 102.961C163.029 102.539 163.423 101.984 163.678 101.297C163.933 100.609 164.061 99.8646 164.061 99.0625C164.061 98.2604 163.933 97.513 163.678 96.8203C163.423 96.1276 163.029 95.5677 162.498 95.1406C161.967 94.7135 161.29 94.5 160.467 94.5C159.644 94.5 158.967 94.7135 158.436 95.1406C157.904 95.5677 157.511 96.1276 157.256 96.8203C157.001 97.513 156.873 98.2604 156.873 99.0625C156.873 99.8646 157.001 100.609 157.256 101.297C157.511 101.984 157.904 102.539 158.436 102.961C158.967 103.383 159.644 103.594 160.467 103.594ZM170.563 89V105H168.719V89H170.563ZM178.971 105.25C177.814 105.25 176.817 104.995 175.979 104.484C175.145 103.969 174.502 103.25 174.049 102.328C173.601 101.401 173.377 100.323 173.377 99.0938C173.377 97.8646 173.601 96.7812 174.049 95.8437C174.502 94.901 175.132 94.1667 175.939 93.6406C176.752 93.1094 177.7 92.8438 178.783 92.8438C179.408 92.8438 180.025 92.9479 180.635 93.1562C181.244 93.3646 181.799 93.7031 182.299 94.1719C182.799 94.6354 183.197 95.25 183.494 96.0156C183.791 96.7812 183.939 97.724 183.939 98.8437V99.625H174.689V98.0312H182.064C182.064 97.3542 181.929 96.75 181.658 96.2187C181.393 95.6875 181.012 95.2682 180.518 94.9609C180.028 94.6536 179.45 94.5 178.783 94.5C178.049 94.5 177.413 94.6823 176.877 95.0469C176.346 95.4062 175.937 95.875 175.65 96.4531C175.364 97.0312 175.221 97.651 175.221 98.3125V99.375C175.221 100.281 175.377 101.049 175.689 101.68C176.007 102.305 176.447 102.781 177.01 103.109C177.572 103.432 178.226 103.594 178.971 103.594C179.455 103.594 179.893 103.526 180.283 103.391C180.679 103.25 181.02 103.042 181.307 102.766C181.593 102.484 181.814 102.135 181.971 101.719L183.752 102.219C183.564 102.823 183.249 103.354 182.807 103.812C182.364 104.266 181.817 104.62 181.166 104.875C180.515 105.125 179.783 105.25 178.971 105.25Z" fill="#39B8FF"/>
<path d="M231.902 94V92.5937C231.902 92.1667 231.978 91.7135 232.129 91.2344C232.285 90.75 232.509 90.2839 232.801 89.8359C233.098 89.3828 233.454 88.9896 233.871 88.6562L234.871 89.4687C234.543 89.9375 234.257 90.4271 234.012 90.9375C233.772 91.4427 233.652 91.9844 233.652 92.5625V94H231.902ZM235.902 94V92.5937C235.902 92.1667 235.978 91.7135 236.129 91.2344C236.285 90.75 236.509 90.2839 236.801 89.8359C237.098 89.3828 237.454 88.9896 237.871 88.6562L238.871 89.4687C238.543 89.9375 238.257 90.4271 238.012 90.9375C237.772 91.4427 237.652 91.9844 237.652 92.5625V94H235.902ZM547.652 89V90.4062C547.652 90.8333 547.574 91.2891 547.418 91.7734C547.267 92.2526 547.043 92.7187 546.746 93.1719C546.454 93.6198 546.1 94.0104 545.684 94.3438L544.684 93.5313C545.012 93.0625 545.296 92.5755 545.535 92.0703C545.78 91.5599 545.902 91.0156 545.902 90.4375V89H547.652ZM551.652 89V90.4062C551.652 90.8333 551.574 91.2891 551.418 91.7734C551.267 92.2526 551.043 92.7187 550.746 93.1719C550.454 93.6198 550.1 94.0104 549.684 94.3438L548.684 93.5313C549.012 93.0625 549.296 92.5755 549.535 92.0703C549.78 91.5599 549.902 91.0156 549.902 90.4375V89H551.652Z" fill="#CE6B40"/>
<path d="M241.156 105V89H246.75C247.865 89 248.784 89.1927 249.508 89.5781C250.232 89.9583 250.771 90.4714 251.125 91.1172C251.479 91.7578 251.656 92.4687 251.656 93.25C251.656 93.9375 251.534 94.5052 251.289 94.9531C251.049 95.401 250.732 95.7552 250.336 96.0156C249.945 96.276 249.521 96.4687 249.063 96.5937V96.75C249.552 96.7812 250.044 96.9531 250.539 97.2656C251.034 97.5781 251.448 98.026 251.781 98.6094C252.115 99.1927 252.281 99.9062 252.281 100.75C252.281 101.552 252.099 102.273 251.734 102.914C251.37 103.555 250.794 104.062 250.008 104.437C249.221 104.812 248.198 105 246.938 105H241.156ZM243.094 103.281H246.938C248.203 103.281 249.102 103.036 249.633 102.547C250.169 102.052 250.438 101.453 250.438 100.75C250.438 100.208 250.299 99.7083 250.023 99.25C249.747 98.7865 249.354 98.4167 248.844 98.1406C248.333 97.8594 247.729 97.7188 247.031 97.7188H243.094V103.281ZM243.094 96.0312H246.688C247.271 96.0312 247.797 95.9167 248.266 95.6875C248.74 95.4583 249.115 95.1354 249.391 94.7187C249.672 94.3021 249.813 93.8125 249.813 93.25C249.813 92.5469 249.568 91.9505 249.078 91.4609C248.589 90.9661 247.813 90.7187 246.75 90.7187H243.094V96.0312ZM260.09 105.25C259.007 105.25 258.056 104.992 257.238 104.477C256.426 103.961 255.79 103.24 255.332 102.312C254.879 101.385 254.652 100.302 254.652 99.0625C254.652 97.8125 254.879 96.7214 255.332 95.7891C255.79 94.8568 256.426 94.1328 257.238 93.6172C258.056 93.1016 259.007 92.8438 260.09 92.8438C261.173 92.8438 262.121 93.1016 262.934 93.6172C263.751 94.1328 264.387 94.8568 264.84 95.7891C265.298 96.7214 265.527 97.8125 265.527 99.0625C265.527 100.302 265.298 101.385 264.84 102.312C264.387 103.24 263.751 103.961 262.934 104.477C262.121 104.992 261.173 105.25 260.09 105.25ZM260.09 103.594C260.913 103.594 261.59 103.383 262.121 102.961C262.652 102.539 263.046 101.984 263.301 101.297C263.556 100.609 263.684 99.8646 263.684 99.0625C263.684 98.2604 263.556 97.513 263.301 96.8203C263.046 96.1276 262.652 95.5677 262.121 95.1406C261.59 94.7135 260.913 94.5 260.09 94.5C259.267 94.5 258.59 94.7135 258.059 95.1406C257.527 95.5677 257.134 96.1276 256.879 96.8203C256.624 97.513 256.496 98.2604 256.496 99.0625C256.496 99.8646 256.624 100.609 256.879 101.297C257.134 101.984 257.527 102.539 258.059 102.961C258.59 103.383 259.267 103.594 260.09 103.594ZM273.561 93V94.5625H267.342V93H273.561ZM269.154 90.125H270.998V101.562C270.998 102.083 271.074 102.474 271.225 102.734C271.381 102.99 271.579 103.161 271.818 103.25C272.063 103.333 272.321 103.375 272.592 103.375C272.795 103.375 272.962 103.365 273.092 103.344C273.222 103.318 273.326 103.297 273.404 103.281L273.779 104.937C273.654 104.984 273.48 105.031 273.256 105.078C273.032 105.13 272.748 105.156 272.404 105.156C271.883 105.156 271.373 105.044 270.873 104.82C270.378 104.596 269.967 104.255 269.639 103.797C269.316 103.339 269.154 102.76 269.154 102.062V90.125ZM278.436 97.7812V105H276.592V89H278.436V94.875H278.592C278.873 94.2552 279.295 93.763 279.857 93.3984C280.425 93.0286 281.18 92.8438 282.123 92.8438C282.941 92.8438 283.657 93.0078 284.271 93.3359C284.886 93.6589 285.363 94.1562 285.701 94.8281C286.045 95.4948 286.217 96.3437 286.217 97.375V105H284.373V97.5C284.373 96.5469 284.126 95.8099 283.631 95.2891C283.141 94.763 282.462 94.5 281.592 94.5C280.988 94.5 280.446 94.6276 279.967 94.8828C279.493 95.138 279.118 95.5104 278.842 96C278.571 96.4896 278.436 97.0833 278.436 97.7812ZM301.121 93V94.5625H294.652V93H301.121ZM296.59 105V91.3438C296.59 90.6562 296.751 90.0833 297.074 89.625C297.397 89.1667 297.816 88.8229 298.332 88.5937C298.848 88.3646 299.392 88.25 299.965 88.25C300.418 88.25 300.788 88.2865 301.074 88.3594C301.361 88.4323 301.574 88.5 301.715 88.5625L301.184 90.1562C301.09 90.125 300.96 90.0859 300.793 90.0391C300.632 89.9922 300.418 89.9687 300.152 89.9687C299.543 89.9687 299.103 90.1224 298.832 90.4297C298.566 90.737 298.434 91.1875 298.434 91.7812V105H296.59ZM311.268 100.094V93H313.111V105H311.268V102.969H311.143C310.861 103.578 310.424 104.096 309.83 104.523C309.236 104.945 308.486 105.156 307.58 105.156C306.83 105.156 306.163 104.992 305.58 104.664C304.997 104.331 304.538 103.831 304.205 103.164C303.872 102.492 303.705 101.646 303.705 100.625V93H305.549V100.5C305.549 101.375 305.794 102.073 306.283 102.594C306.778 103.115 307.408 103.375 308.174 103.375C308.632 103.375 309.098 103.258 309.572 103.023C310.051 102.789 310.452 102.43 310.775 101.945C311.104 101.461 311.268 100.844 311.268 100.094ZM318.332 97.7812V105H316.488V93H318.27V94.875H318.426C318.707 94.2656 319.134 93.776 319.707 93.4063C320.28 93.0313 321.02 92.8438 321.926 92.8438C322.738 92.8438 323.449 93.0104 324.059 93.3437C324.668 93.6719 325.142 94.1719 325.48 94.8437C325.819 95.5104 325.988 96.3542 325.988 97.375V105H324.145V97.5C324.145 96.5573 323.9 95.8229 323.41 95.2969C322.921 94.7656 322.249 94.5 321.395 94.5C320.806 94.5 320.28 94.6276 319.816 94.8828C319.358 95.138 318.996 95.5104 318.73 96C318.465 96.4896 318.332 97.0833 318.332 97.7812ZM334.232 105.25C333.107 105.25 332.139 104.984 331.326 104.453C330.514 103.922 329.889 103.19 329.451 102.258C329.014 101.326 328.795 100.26 328.795 99.0625C328.795 97.8437 329.019 96.7682 329.467 95.8359C329.92 94.8984 330.55 94.1667 331.357 93.6406C332.17 93.1094 333.118 92.8438 334.201 92.8438C335.045 92.8438 335.805 93 336.482 93.3125C337.16 93.625 337.714 94.0625 338.146 94.625C338.579 95.1875 338.847 95.8437 338.951 96.5937H337.107C336.967 96.0469 336.654 95.5625 336.17 95.1406C335.691 94.7135 335.045 94.5 334.232 94.5C333.514 94.5 332.883 94.6875 332.342 95.0625C331.805 95.4323 331.386 95.9557 331.084 96.6328C330.787 97.3047 330.639 98.0937 330.639 99C330.639 99.9271 330.785 100.734 331.076 101.422C331.373 102.109 331.79 102.643 332.326 103.023C332.868 103.404 333.503 103.594 334.232 103.594C334.712 103.594 335.146 103.51 335.537 103.344C335.928 103.177 336.258 102.938 336.529 102.625C336.8 102.312 336.993 101.937 337.107 101.5H338.951C338.847 102.208 338.589 102.846 338.178 103.414C337.771 103.977 337.232 104.424 336.561 104.758C335.894 105.086 335.118 105.25 334.232 105.25ZM346.865 93V94.5625H340.646V93H346.865ZM342.459 90.125H344.303V101.562C344.303 102.083 344.378 102.474 344.529 102.734C344.686 102.99 344.883 103.161 345.123 103.25C345.368 103.333 345.626 103.375 345.896 103.375C346.1 103.375 346.266 103.365 346.396 103.344C346.527 103.318 346.631 103.297 346.709 103.281L347.084 104.937C346.959 104.984 346.785 105.031 346.561 105.078C346.337 105.13 346.053 105.156 345.709 105.156C345.188 105.156 344.678 105.044 344.178 104.82C343.683 104.596 343.271 104.255 342.943 103.797C342.62 103.339 342.459 102.76 342.459 102.062V90.125ZM349.639 105V93H351.482V105H349.639ZM350.576 91C350.217 91 349.907 90.8776 349.646 90.6328C349.391 90.388 349.264 90.0938 349.264 89.75C349.264 89.4063 349.391 89.112 349.646 88.8672C349.907 88.6224 350.217 88.5 350.576 88.5C350.936 88.5 351.243 88.6224 351.498 88.8672C351.758 89.112 351.889 89.4063 351.889 89.75C351.889 90.0938 351.758 90.388 351.498 90.6328C351.243 90.8776 350.936 91 350.576 91ZM359.734 105.25C358.651 105.25 357.701 104.992 356.883 104.477C356.07 103.961 355.435 103.24 354.977 102.312C354.523 101.385 354.297 100.302 354.297 99.0625C354.297 97.8125 354.523 96.7214 354.977 95.7891C355.435 94.8568 356.07 94.1328 356.883 93.6172C357.701 93.1016 358.651 92.8438 359.734 92.8438C360.818 92.8438 361.766 93.1016 362.578 93.6172C363.396 94.1328 364.031 94.8568 364.484 95.7891C364.943 96.7214 365.172 97.8125 365.172 99.0625C365.172 100.302 364.943 101.385 364.484 102.312C364.031 103.24 363.396 103.961 362.578 104.477C361.766 104.992 360.818 105.25 359.734 105.25ZM359.734 103.594C360.557 103.594 361.234 103.383 361.766 102.961C362.297 102.539 362.69 101.984 362.945 101.297C363.201 100.609 363.328 99.8646 363.328 99.0625C363.328 98.2604 363.201 97.513 362.945 96.8203C362.69 96.1276 362.297 95.5677 361.766 95.1406C361.234 94.7135 360.557 94.5 359.734 94.5C358.911 94.5 358.234 94.7135 357.703 95.1406C357.172 95.5677 356.779 96.1276 356.523 96.8203C356.268 97.513 356.141 98.2604 356.141 99.0625C356.141 99.8646 356.268 100.609 356.523 101.297C356.779 101.984 357.172 102.539 357.703 102.961C358.234 103.383 358.911 103.594 359.734 103.594ZM369.83 97.7812V105H367.986V93H369.768V94.875H369.924C370.205 94.2656 370.632 93.776 371.205 93.4063C371.778 93.0313 372.518 92.8438 373.424 92.8438C374.236 92.8438 374.947 93.0104 375.557 93.3437C376.166 93.6719 376.64 94.1719 376.979 94.8437C377.317 95.5104 377.486 96.3542 377.486 97.375V105H375.643V97.5C375.643 96.5573 375.398 95.8229 374.908 95.2969C374.419 94.7656 373.747 94.5 372.893 94.5C372.304 94.5 371.778 94.6276 371.314 94.8828C370.856 95.138 370.494 95.5104 370.229 96C369.963 96.4896 369.83 97.0833 369.83 97.7812ZM384.387 105.281C383.626 105.281 382.936 105.138 382.316 104.852C381.697 104.56 381.204 104.141 380.84 103.594C380.475 103.042 380.293 102.375 380.293 101.594C380.293 100.906 380.428 100.349 380.699 99.9219C380.97 99.4896 381.332 99.151 381.785 98.9062C382.238 98.6615 382.738 98.4792 383.285 98.3594C383.837 98.2344 384.392 98.1354 384.949 98.0625C385.678 97.9687 386.27 97.8984 386.723 97.8516C387.181 97.7995 387.514 97.7135 387.723 97.5937C387.936 97.474 388.043 97.2656 388.043 96.9687V96.9062C388.043 96.1354 387.832 95.5365 387.41 95.1094C386.993 94.6823 386.361 94.4687 385.512 94.4687C384.632 94.4687 383.941 94.6615 383.441 95.0469C382.941 95.4323 382.59 95.8437 382.387 96.2812L380.637 95.6562C380.949 94.9271 381.366 94.3594 381.887 93.9531C382.413 93.5417 382.986 93.2552 383.605 93.0937C384.23 92.9271 384.845 92.8438 385.449 92.8438C385.835 92.8438 386.277 92.8906 386.777 92.9844C387.283 93.0729 387.77 93.2578 388.238 93.5391C388.712 93.8203 389.105 94.2448 389.418 94.8125C389.73 95.3802 389.887 96.1406 389.887 97.0938V105H388.043V103.375H387.949C387.824 103.635 387.616 103.914 387.324 104.211C387.033 104.508 386.645 104.76 386.16 104.969C385.676 105.177 385.085 105.281 384.387 105.281ZM384.668 103.625C385.397 103.625 386.012 103.482 386.512 103.195C387.017 102.909 387.397 102.539 387.652 102.086C387.913 101.633 388.043 101.156 388.043 100.656V98.9687C387.965 99.0625 387.793 99.1484 387.527 99.2266C387.267 99.2995 386.965 99.3646 386.621 99.4219C386.283 99.474 385.952 99.5208 385.629 99.5625C385.311 99.599 385.053 99.6302 384.855 99.6562C384.376 99.7187 383.928 99.8203 383.512 99.9609C383.1 100.096 382.767 100.302 382.512 100.578C382.262 100.849 382.137 101.219 382.137 101.687C382.137 102.328 382.374 102.812 382.848 103.141C383.327 103.464 383.934 103.625 384.668 103.625ZM395.096 89V105H393.252V89H395.096ZM408.191 105.281C407.431 105.281 406.741 105.138 406.121 104.852C405.501 104.56 405.009 104.141 404.645 103.594C404.28 103.042 404.098 102.375 404.098 101.594C404.098 100.906 404.233 100.349 404.504 99.9219C404.775 99.4896 405.137 99.151 405.59 98.9062C406.043 98.6615 406.543 98.4792 407.09 98.3594C407.642 98.2344 408.197 98.1354 408.754 98.0625C409.483 97.9687 410.074 97.8984 410.527 97.8516C410.986 97.7995 411.319 97.7135 411.527 97.5937C411.741 97.474 411.848 97.2656 411.848 96.9687V96.9062C411.848 96.1354 411.637 95.5365 411.215 95.1094C410.798 94.6823 410.165 94.4687 409.316 94.4687C408.436 94.4687 407.746 94.6615 407.246 95.0469C406.746 95.4323 406.395 95.8437 406.191 96.2812L404.441 95.6562C404.754 94.9271 405.171 94.3594 405.691 93.9531C406.217 93.5417 406.79 93.2552 407.41 93.0937C408.035 92.9271 408.65 92.8438 409.254 92.8438C409.639 92.8438 410.082 92.8906 410.582 92.9844C411.087 93.0729 411.574 93.2578 412.043 93.5391C412.517 93.8203 412.91 94.2448 413.223 94.8125C413.535 95.3802 413.691 96.1406 413.691 97.0938V105H411.848V103.375H411.754C411.629 103.635 411.421 103.914 411.129 104.211C410.837 104.508 410.449 104.76 409.965 104.969C409.48 105.177 408.889 105.281 408.191 105.281ZM408.473 103.625C409.202 103.625 409.816 103.482 410.316 103.195C410.822 102.909 411.202 102.539 411.457 102.086C411.717 101.633 411.848 101.156 411.848 100.656V98.9687C411.77 99.0625 411.598 99.1484 411.332 99.2266C411.072 99.2995 410.77 99.3646 410.426 99.4219C410.087 99.474 409.757 99.5208 409.434 99.5625C409.116 99.599 408.858 99.6302 408.66 99.6562C408.181 99.7187 407.733 99.8203 407.316 99.9609C406.905 100.096 406.572 100.302 406.316 100.578C406.066 100.849 405.941 101.219 405.941 101.687C405.941 102.328 406.178 102.812 406.652 103.141C407.132 103.464 407.738 103.625 408.473 103.625ZM418.9 97.7812V105H417.057V93H418.838V94.875H418.994C419.275 94.2656 419.702 93.776 420.275 93.4063C420.848 93.0313 421.588 92.8438 422.494 92.8438C423.307 92.8438 424.018 93.0104 424.627 93.3437C425.236 93.6719 425.71 94.1719 426.049 94.8437C426.387 95.5104 426.557 96.3542 426.557 97.375V105H424.713V97.5C424.713 96.5573 424.468 95.8229 423.979 95.2969C423.489 94.7656 422.817 94.5 421.963 94.5C421.374 94.5 420.848 94.6276 420.385 94.8828C419.926 95.138 419.564 95.5104 419.299 96C419.033 96.4896 418.9 97.0833 418.9 97.7812ZM434.457 105.25C433.457 105.25 432.574 104.997 431.809 104.492C431.043 103.982 430.444 103.263 430.012 102.336C429.579 101.404 429.363 100.302 429.363 99.0313C429.363 97.7708 429.579 96.6771 430.012 95.75C430.444 94.8229 431.046 94.1068 431.816 93.6016C432.587 93.0964 433.478 92.8438 434.488 92.8438C435.27 92.8438 435.887 92.974 436.34 93.2344C436.798 93.4896 437.147 93.7812 437.387 94.1094C437.632 94.4323 437.822 94.6979 437.957 94.9062H438.113V89H439.957V105H438.176V103.156H437.957C437.822 103.375 437.629 103.651 437.379 103.984C437.129 104.312 436.772 104.607 436.309 104.867C435.845 105.122 435.228 105.25 434.457 105.25ZM434.707 103.594C435.447 103.594 436.072 103.401 436.582 103.016C437.092 102.625 437.48 102.086 437.746 101.398C438.012 100.706 438.145 99.9062 438.145 99C438.145 98.1042 438.014 97.3203 437.754 96.6484C437.493 95.9714 437.108 95.4453 436.598 95.0703C436.087 94.6901 435.457 94.5 434.707 94.5C433.926 94.5 433.275 94.7005 432.754 95.1016C432.238 95.4974 431.85 96.0365 431.59 96.7187C431.335 97.3958 431.207 98.1562 431.207 99C431.207 99.8542 431.337 100.63 431.598 101.328C431.863 102.021 432.254 102.573 432.77 102.984C433.29 103.391 433.936 103.594 434.707 103.594ZM454.652 105.25C453.569 105.25 452.618 104.992 451.801 104.477C450.988 103.961 450.353 103.24 449.895 102.312C449.441 101.385 449.215 100.302 449.215 99.0625C449.215 97.8125 449.441 96.7214 449.895 95.7891C450.353 94.8568 450.988 94.1328 451.801 93.6172C452.618 93.1016 453.569 92.8438 454.652 92.8438C455.736 92.8438 456.684 93.1016 457.496 93.6172C458.314 94.1328 458.949 94.8568 459.402 95.7891C459.861 96.7214 460.09 97.8125 460.09 99.0625C460.09 100.302 459.861 101.385 459.402 102.312C458.949 103.24 458.314 103.961 457.496 104.477C456.684 104.992 455.736 105.25 454.652 105.25ZM454.652 103.594C455.475 103.594 456.152 103.383 456.684 102.961C457.215 102.539 457.608 101.984 457.863 101.297C458.118 100.609 458.246 99.8646 458.246 99.0625C458.246 98.2604 458.118 97.513 457.863 96.8203C457.608 96.1276 457.215 95.5677 456.684 95.1406C456.152 94.7135 455.475 94.5 454.652 94.5C453.829 94.5 453.152 94.7135 452.621 95.1406C452.09 95.5677 451.697 96.1276 451.441 96.8203C451.186 97.513 451.059 98.2604 451.059 99.0625C451.059 99.8646 451.186 100.609 451.441 101.297C451.697 101.984 452.09 102.539 452.621 102.961C453.152 103.383 453.829 103.594 454.652 103.594ZM467.779 105.25C466.696 105.25 465.745 104.992 464.928 104.477C464.115 103.961 463.48 103.24 463.021 102.312C462.568 101.385 462.342 100.302 462.342 99.0625C462.342 97.8125 462.568 96.7214 463.021 95.7891C463.48 94.8568 464.115 94.1328 464.928 93.6172C465.745 93.1016 466.696 92.8438 467.779 92.8438C468.863 92.8438 469.811 93.1016 470.623 93.6172C471.441 94.1328 472.076 94.8568 472.529 95.7891C472.988 96.7214 473.217 97.8125 473.217 99.0625C473.217 100.302 472.988 101.385 472.529 102.312C472.076 103.24 471.441 103.961 470.623 104.477C469.811 104.992 468.863 105.25 467.779 105.25ZM467.779 103.594C468.602 103.594 469.279 103.383 469.811 102.961C470.342 102.539 470.735 101.984 470.99 101.297C471.245 100.609 471.373 99.8646 471.373 99.0625C471.373 98.2604 471.245 97.513 470.99 96.8203C470.735 96.1276 470.342 95.5677 469.811 95.1406C469.279 94.7135 468.602 94.5 467.779 94.5C466.956 94.5 466.279 94.7135 465.748 95.1406C465.217 95.5677 464.824 96.1276 464.568 96.8203C464.313 97.513 464.186 98.2604 464.186 99.0625C464.186 99.8646 464.313 100.609 464.568 101.297C464.824 101.984 465.217 102.539 465.748 102.961C466.279 103.383 466.956 103.594 467.779 103.594ZM476.031 109.5V93H477.812V94.9062H478.031C478.167 94.6979 478.354 94.4323 478.594 94.1094C478.839 93.7812 479.188 93.4896 479.641 93.2344C480.099 92.974 480.719 92.8438 481.5 92.8438C482.51 92.8438 483.401 93.0964 484.172 93.6016C484.943 94.1068 485.544 94.8229 485.977 95.75C486.409 96.6771 486.625 97.7708 486.625 99.0313C486.625 100.302 486.409 101.404 485.977 102.336C485.544 103.263 484.945 103.982 484.18 104.492C483.414 104.997 482.531 105.25 481.531 105.25C480.76 105.25 480.143 105.122 479.68 104.867C479.216 104.607 478.859 104.312 478.609 103.984C478.359 103.651 478.167 103.375 478.031 103.156H477.875V109.5H476.031ZM477.844 99C477.844 99.9062 477.977 100.706 478.242 101.398C478.508 102.086 478.896 102.625 479.406 103.016C479.917 103.401 480.542 103.594 481.281 103.594C482.052 103.594 482.695 103.391 483.211 102.984C483.732 102.573 484.122 102.021 484.383 101.328C484.648 100.63 484.781 99.8542 484.781 99C484.781 98.1562 484.651 97.3958 484.391 96.7187C484.135 96.0365 483.747 95.4974 483.227 95.1016C482.711 94.7005 482.063 94.5 481.281 94.5C480.531 94.5 479.901 94.6901 479.391 95.0703C478.88 95.4453 478.495 95.9714 478.234 96.6484C477.974 97.3203 477.844 98.1042 477.844 99ZM498.344 105L494.688 93H496.625L499.219 102.188H499.344L501.906 93H503.875L506.406 102.156H506.531L509.125 93H511.063L507.406 105H505.594L502.969 95.7812H502.781L500.156 105H498.344ZM513.5 105V93H515.344V105H513.5ZM514.438 91C514.078 91 513.768 90.8776 513.508 90.6328C513.253 90.388 513.125 90.0938 513.125 89.75C513.125 89.4063 513.253 89.112 513.508 88.8672C513.768 88.6224 514.078 88.5 514.438 88.5C514.797 88.5 515.104 88.6224 515.359 88.8672C515.62 89.112 515.75 89.4063 515.75 89.75C515.75 90.0938 515.62 90.388 515.359 90.6328C515.104 90.8776 514.797 91 514.438 91ZM523.939 93V94.5625H517.721V93H523.939ZM519.533 90.125H521.377V101.562C521.377 102.083 521.452 102.474 521.604 102.734C521.76 102.99 521.958 103.161 522.197 103.25C522.442 103.333 522.7 103.375 522.971 103.375C523.174 103.375 523.34 103.365 523.471 103.344C523.601 103.318 523.705 103.297 523.783 103.281L524.158 104.937C524.033 104.984 523.859 105.031 523.635 105.078C523.411 105.13 523.127 105.156 522.783 105.156C522.262 105.156 521.752 105.044 521.252 104.82C520.757 104.596 520.346 104.255 520.018 103.797C519.695 103.339 519.533 102.76 519.533 102.062V90.125ZM528.814 97.7812V105H526.971V89H528.814V94.875H528.971C529.252 94.2552 529.674 93.763 530.236 93.3984C530.804 93.0286 531.559 92.8438 532.502 92.8438C533.32 92.8438 534.036 93.0078 534.65 93.3359C535.265 93.6589 535.742 94.1562 536.08 94.8281C536.424 95.4948 536.596 96.3437 536.596 97.375V105H534.752V97.5C534.752 96.5469 534.505 95.8099 534.01 95.2891C533.52 94.763 532.84 94.5 531.971 94.5C531.367 94.5 530.825 94.6276 530.346 94.8828C529.872 95.138 529.497 95.5104 529.221 96C528.95 96.4896 528.814 97.0833 528.814 97.7812ZM541.313 105.125C540.927 105.125 540.596 104.987 540.32 104.711C540.044 104.435 539.906 104.104 539.906 103.719C539.906 103.333 540.044 103.003 540.32 102.727C540.596 102.451 540.927 102.312 541.313 102.312C541.698 102.312 542.029 102.451 542.305 102.727C542.581 103.003 542.719 103.333 542.719 103.719C542.719 103.974 542.654 104.208 542.523 104.422C542.398 104.635 542.229 104.807 542.016 104.937C541.807 105.063 541.573 105.125 541.313 105.125ZM541.313 96.2187C540.927 96.2187 540.596 96.0807 540.32 95.8047C540.044 95.5286 539.906 95.1979 539.906 94.8125C539.906 94.4271 540.044 94.0964 540.32 93.8203C540.596 93.5443 540.927 93.4063 541.313 93.4063C541.698 93.4063 542.029 93.5443 542.305 93.8203C542.581 94.0964 542.719 94.4271 542.719 94.8125C542.719 95.0677 542.654 95.3021 542.523 95.5156C542.398 95.7292 542.229 95.901 542.016 96.0312C541.807 96.1562 541.573 96.2187 541.313 96.2187Z" fill="#FF9B71"/>
</g>
<g filter="url(#filter8_b_12_5)">
<line x1="1" x2="1" y2="379" stroke="black" stroke-width="2"/>
</g>
<g filter="url(#filter9_b_12_5)">
<line x1="637" x2="637" y2="379" stroke="black" stroke-width="2"/>
</g>
<g filter="url(#filter10_b_12_5)">
<line x1="636" y1="1" y2="1" stroke="black" stroke-width="2"/>
</g>
<g filter="url(#filter11_b_12_5)">
<line x1="636" y1="380" y2="380" stroke="black" stroke-width="2"/>
</g>
<g filter="url(#filter12_b_12_5)">
<ellipse cx="616.693" cy="22" rx="5.67857" ry="5" fill="#82E800"/>
<ellipse cx="578.079" cy="22" rx="5.67857" ry="5" fill="#C90202"/>
<ellipse cx="597.386" cy="22" rx="5.67857" ry="5" fill="#CCEB0F"/>
</g>
<defs>
<filter id="filter0_b_12_5" x="-10" y="34" width="656" height="102" filterUnits="userSpaceOnUse" color-interpolation-filters="sRGB">
<feFlood flood-opacity="0" result="BackgroundImageFix"/>
<feGaussianBlur in="BackgroundImageFix" stdDeviation="5"/>
<feComposite in2="SourceAlpha" operator="in" result="effect1_backgroundBlur_12_5"/>
<feBlend mode="normal" in="SourceGraphic" in2="effect1_backgroundBlur_12_5" result="shape"/>
</filter>
<filter id="filter1_b_12_5" x="-10" y="280" width="656" height="109" filterUnits="userSpaceOnUse" color-interpolation-filters="sRGB">
<feFlood flood-opacity="0" result="BackgroundImageFix"/>
<feGaussianBlur in="BackgroundImageFix" stdDeviation="5"/>
<feComposite in2="SourceAlpha" operator="in" result="effect1_backgroundBlur_12_5"/>
<feBlend mode="normal" in="SourceGraphic" in2="effect1_backgroundBlur_12_5" result="shape"/>
</filter>
<filter id="filter2_b_12_5" x="-10" y="198" width="656" height="102" filterUnits="userSpaceOnUse" color-interpolation-filters="sRGB">
<feFlood flood-opacity="0" result="BackgroundImageFix"/>
<feGaussianBlur in="BackgroundImageFix" stdDeviation="5"/>
<feComposite in2="SourceAlpha" operator="in" result="effect1_backgroundBlur_12_5"/>
<feBlend mode="normal" in="SourceGraphic" in2="effect1_backgroundBlur_12_5" result="shape"/>
</filter>
<filter id="filter3_b_12_5" x="-10" y="116" width="656" height="102" filterUnits="userSpaceOnUse" color-interpolation-filters="sRGB">
<feFlood flood-opacity="0" result="BackgroundImageFix"/>
<feGaussianBlur in="BackgroundImageFix" stdDeviation="5"/>
<feComposite in2="SourceAlpha" operator="in" result="effect1_backgroundBlur_12_5"/>
<feBlend mode="normal" in="SourceGraphic" in2="effect1_backgroundBlur_12_5" result="shape"/>
</filter>
<filter id="filter4_b_12_5" x="-10" y="-10" width="656" height="64" filterUnits="userSpaceOnUse" color-interpolation-filters="sRGB">
<feFlood flood-opacity="0" result="BackgroundImageFix"/>
<feGaussianBlur in="BackgroundImageFix" stdDeviation="5"/>
<feComposite in2="SourceAlpha" operator="in" result="effect1_backgroundBlur_12_5"/>
<feBlend mode="normal" in="SourceGraphic" in2="effect1_backgroundBlur_12_5" result="shape"/>
</filter>
<filter id="filter5_b_12_5" x="-10" y="33" width="656" height="21" filterUnits="userSpaceOnUse" color-interpolation-filters="sRGB">
<feFlood flood-opacity="0" result="BackgroundImageFix"/>
<feGaussianBlur in="BackgroundImageFix" stdDeviation="5"/>
<feComposite in2="SourceAlpha" operator="in" result="effect1_backgroundBlur_12_5"/>
<feBlend mode="normal" in="SourceGraphic" in2="effect1_backgroundBlur_12_5" result="shape"/>
</filter>
<filter id="filter6_b_12_5" x="-1.08322" y="1.38837" width="88.139" height="41.2623" filterUnits="userSpaceOnUse" color-interpolation-filters="sRGB">
<feFlood flood-opacity="0" result="BackgroundImageFix"/>
<feGaussianBlur in="BackgroundImageFix" stdDeviation="5"/>
<feComposite in2="SourceAlpha" operator="in" result="effect1_backgroundBlur_12_5"/>
<feBlend mode="normal" in="SourceGraphic" in2="effect1_backgroundBlur_12_5" result="shape"/>
</filter>
<filter id="filter7_b_12_5" x="57.375" y="51.0859" width="510.969" height="310.164" filterUnits="userSpaceOnUse" color-interpolation-filters="sRGB">
<feFlood flood-opacity="0" result="BackgroundImageFix"/>
<feGaussianBlur in="BackgroundImageFix" stdDeviation="5"/>
<feComposite in2="SourceAlpha" operator="in" result="effect1_backgroundBlur_12_5"/>
<feBlend mode="normal" in="SourceGraphic" in2="effect1_backgroundBlur_12_5" result="shape"/>
</filter>
<filter id="filter8_b_12_5" x="-10" y="-10" width="22" height="399" filterUnits="userSpaceOnUse" color-interpolation-filters="sRGB">
<feFlood flood-opacity="0" result="BackgroundImageFix"/>
<feGaussianBlur in="BackgroundImageFix" stdDeviation="5"/>
<feComposite in2="SourceAlpha" operator="in" result="effect1_backgroundBlur_12_5"/>
<feBlend mode="normal" in="SourceGraphic" in2="effect1_backgroundBlur_12_5" result="shape"/>
</filter>
<filter id="filter9_b_12_5" x="626" y="-10" width="22" height="399" filterUnits="userSpaceOnUse" color-interpolation-filters="sRGB">
<feFlood flood-opacity="0" result="BackgroundImageFix"/>
<feGaussianBlur in="BackgroundImageFix" stdDeviation="5"/>
<feComposite in2="SourceAlpha" operator="in" result="effect1_backgroundBlur_12_5"/>
<feBlend mode="normal" in="SourceGraphic" in2="effect1_backgroundBlur_12_5" result="shape"/>
</filter>
<filter id="filter10_b_12_5" x="-10" y="-10" width="656" height="22" filterUnits="userSpaceOnUse" color-interpolation-filters="sRGB">
<feFlood flood-opacity="0" result="BackgroundImageFix"/>
<feGaussianBlur in="BackgroundImageFix" stdDeviation="5"/>
<feComposite in2="SourceAlpha" operator="in" result="effect1_backgroundBlur_12_5"/>
<feBlend mode="normal" in="SourceGraphic" in2="effect1_backgroundBlur_12_5" result="shape"/>
</filter>
<filter id="filter11_b_12_5" x="-10" y="369" width="656" height="22" filterUnits="userSpaceOnUse" color-interpolation-filters="sRGB">
<feFlood flood-opacity="0" result="BackgroundImageFix"/>
<feGaussianBlur in="BackgroundImageFix" stdDeviation="5"/>
<feComposite in2="SourceAlpha" operator="in" result="effect1_backgroundBlur_12_5"/>
<feBlend mode="normal" in="SourceGraphic" in2="effect1_backgroundBlur_12_5" result="shape"/>
</filter>
<filter id="filter12_b_12_5" x="562.4" y="7" width="69.9714" height="30" filterUnits="userSpaceOnUse" color-interpolation-filters="sRGB">
<feFlood flood-opacity="0" result="BackgroundImageFix"/>
<feGaussianBlur in="BackgroundImageFix" stdDeviation="5"/>
<feComposite in2="SourceAlpha" operator="in" result="effect1_backgroundBlur_12_5"/>
<feBlend mode="normal" in="SourceGraphic" in2="effect1_backgroundBlur_12_5" result="shape"/>
</filter>
</defs>
</svg>
