<svg width="638" height="381" viewBox="0 0 638 381" fill="none" xmlns="http://www.w3.org/2000/svg">
<rect y="44" width="636" height="82" fill="#2A2A2A"/>
<rect y="290" width="636" height="89" fill="#2A2A2A"/>
<rect y="208" width="636" height="82" fill="#2A2A2A"/>
<rect y="126" width="636" height="82" fill="#2A2A2A"/>
<rect width="636" height="44" fill="#3D7CEB"/>
<line y1="43.5" x2="636" y2="43.5" stroke="black"/>
<line y1="-1" x2="23.2806" y2="-1" transform="matrix(-0.63419 0.773178 -0.843831 -0.536608 56.3286 14)" stroke="white" stroke-width="2"/>
<line y1="-1" x2="22.3585" y2="-1" transform="matrix(-0.894602 -0.446864 0.541611 -0.840629 35.4448 31.9694)" stroke="white" stroke-width="2"/>
<line y1="-1" x2="20.7837" y2="-1" transform="matrix(0.90192 -0.431904 0.525508 0.850789 15.509 22.9765)" stroke="white" stroke-width="2"/>
<line y1="-1" x2="22.2208" y2="-1" transform="matrix(0.868875 0.495031 -0.592171 0.805813 62.0071 14)" stroke="white" stroke-width="2"/>
<line y1="-1" x2="20.8989" y2="-1" transform="matrix(-0.923834 0.382794 -0.471357 -0.881942 81.3143 24)" stroke="white" stroke-width="2"/>
<path d="M74.7813 66V68.5H67.375V66H74.7813ZM69.0703 78V65.1328C69.0703 64.263 69.2396 63.5417 69.5781 62.9687C69.9219 62.3958 70.3906 61.9661 70.9844 61.6797C71.5781 61.3932 72.2526 61.25 73.0078 61.25C73.5182 61.25 73.9844 61.2891 74.4063 61.3672C74.8333 61.4453 75.151 61.5156 75.3594 61.5781L74.7656 64.0781C74.6354 64.0365 74.474 63.9974 74.2812 63.9609C74.0937 63.9245 73.901 63.9062 73.7031 63.9062C73.2135 63.9062 72.8724 64.0208 72.6797 64.25C72.487 64.474 72.3906 64.7891 72.3906 65.1953V78H69.0703ZM84.5098 72.8906V66H87.8379V78H84.6426V75.8203H84.5176C84.2467 76.5234 83.7962 77.0885 83.166 77.5156C82.541 77.9427 81.778 78.1563 80.877 78.1563C80.0749 78.1563 79.3691 77.974 78.7598 77.6094C78.1504 77.2448 77.6738 76.7266 77.3301 76.0547C76.9915 75.3828 76.8197 74.5781 76.8145 73.6406V66H80.1426V73.0469C80.1478 73.7552 80.3379 74.3151 80.7129 74.7266C81.0879 75.138 81.5905 75.3437 82.2207 75.3437C82.6217 75.3437 82.9967 75.2526 83.3457 75.0703C83.6947 74.8828 83.9759 74.6068 84.1895 74.2422C84.4082 73.8776 84.515 73.4271 84.5098 72.8906ZM93.8281 71.0625V78H90.5V66H93.6719V68.1172H93.8125C94.0781 67.4193 94.5234 66.8672 95.1484 66.4609C95.7734 66.0495 96.5312 65.8438 97.4219 65.8438C98.2552 65.8438 98.9818 66.026 99.6016 66.3906C100.221 66.7552 100.703 67.276 101.047 67.9531C101.391 68.625 101.563 69.4271 101.563 70.3594V78H98.2344V70.9531C98.2396 70.2187 98.0521 69.6458 97.6719 69.2344C97.2917 68.8177 96.7682 68.6094 96.1016 68.6094C95.6536 68.6094 95.2578 68.7057 94.9141 68.8984C94.5755 69.0911 94.3099 69.3724 94.1172 69.7422C93.9297 70.1068 93.8333 70.5469 93.8281 71.0625ZM109.607 78.2344C108.378 78.2344 107.321 77.974 106.436 77.4531C105.555 76.9271 104.878 76.1979 104.404 75.2656C103.936 74.3333 103.701 73.2604 103.701 72.0469C103.701 70.8177 103.938 69.7396 104.412 68.8125C104.891 67.8802 105.571 67.1536 106.451 66.6328C107.331 66.1068 108.378 65.8438 109.592 65.8438C110.639 65.8438 111.555 66.0339 112.342 66.4141C113.128 66.7943 113.751 67.3281 114.209 68.0156C114.667 68.7031 114.92 69.5104 114.967 70.4375H111.826C111.738 69.8385 111.503 69.3568 111.123 68.9922C110.748 68.6224 110.256 68.4375 109.646 68.4375C109.131 68.4375 108.68 68.5781 108.295 68.8594C107.915 69.1354 107.618 69.5391 107.404 70.0703C107.191 70.6016 107.084 71.2448 107.084 72C107.084 72.7656 107.188 73.4167 107.396 73.9531C107.61 74.4896 107.91 74.8984 108.295 75.1797C108.68 75.4609 109.131 75.6016 109.646 75.6016C110.027 75.6016 110.368 75.5234 110.67 75.3672C110.977 75.2109 111.23 74.9844 111.428 74.6875C111.631 74.3854 111.764 74.0234 111.826 73.6016H114.967C114.915 74.5182 114.665 75.3255 114.217 76.0234C113.774 76.7161 113.162 77.2578 112.381 77.6484C111.6 78.0391 110.675 78.2344 109.607 78.2344ZM123.48 66V68.5H116.254V66H123.48ZM117.895 63.125H121.223V74.3125C121.223 74.6198 121.27 74.8594 121.363 75.0312C121.457 75.1979 121.587 75.3151 121.754 75.3828C121.926 75.4505 122.124 75.4844 122.348 75.4844C122.504 75.4844 122.66 75.4714 122.816 75.4453C122.973 75.4141 123.092 75.3906 123.176 75.375L123.699 77.8516C123.533 77.9036 123.298 77.9635 122.996 78.0313C122.694 78.1042 122.327 78.1484 121.895 78.1641C121.092 78.1953 120.389 78.0885 119.785 77.8437C119.186 77.599 118.72 77.2187 118.387 76.7031C118.053 76.1875 117.889 75.5365 117.895 74.75V63.125ZM125.648 78V66H128.977V78H125.648ZM127.32 64.4531C126.826 64.4531 126.401 64.2891 126.047 63.9609C125.698 63.6276 125.523 63.2292 125.523 62.7656C125.523 62.3073 125.698 61.9141 126.047 61.5859C126.401 61.2526 126.826 61.0859 127.32 61.0859C127.815 61.0859 128.237 61.2526 128.586 61.5859C128.94 61.9141 129.117 62.3073 129.117 62.7656C129.117 63.2292 128.94 63.6276 128.586 63.9609C128.237 64.2891 127.815 64.4531 127.32 64.4531ZM137.064 78.2344C135.851 78.2344 134.801 77.9766 133.916 77.4609C133.036 76.9401 132.356 76.2161 131.877 75.2891C131.398 74.3568 131.158 73.276 131.158 72.0469C131.158 70.8073 131.398 69.724 131.877 68.7969C132.356 67.8646 133.036 67.1406 133.916 66.625C134.801 66.1042 135.851 65.8438 137.064 65.8438C138.278 65.8438 139.325 66.1042 140.205 66.625C141.09 67.1406 141.773 67.8646 142.252 68.7969C142.731 69.724 142.971 70.8073 142.971 72.0469C142.971 73.276 142.731 74.3568 142.252 75.2891C141.773 76.2161 141.09 76.9401 140.205 77.4609C139.325 77.9766 138.278 78.2344 137.064 78.2344ZM137.08 75.6562C137.632 75.6562 138.093 75.5 138.463 75.1875C138.833 74.8698 139.111 74.4375 139.299 73.8906C139.492 73.3437 139.588 72.7214 139.588 72.0234C139.588 71.3255 139.492 70.7031 139.299 70.1562C139.111 69.6094 138.833 69.1771 138.463 68.8594C138.093 68.5417 137.632 68.3828 137.08 68.3828C136.523 68.3828 136.054 68.5417 135.674 68.8594C135.299 69.1771 135.015 69.6094 134.822 70.1562C134.635 70.7031 134.541 71.3255 134.541 72.0234C134.541 72.7214 134.635 73.3437 134.822 73.8906C135.015 74.4375 135.299 74.8698 135.674 75.1875C136.054 75.5 136.523 75.6562 137.08 75.6562ZM148.463 71.0625V78H145.135V66H148.307V68.1172H148.447C148.713 67.4193 149.158 66.8672 149.783 66.4609C150.408 66.0495 151.166 65.8438 152.057 65.8438C152.89 65.8438 153.617 66.026 154.236 66.3906C154.856 66.7552 155.338 67.276 155.682 67.9531C156.025 68.625 156.197 69.4271 156.197 70.3594V78H152.869V70.9531C152.874 70.2187 152.687 69.6458 152.307 69.2344C151.926 68.8177 151.403 68.6094 150.736 68.6094C150.288 68.6094 149.893 68.7057 149.549 68.8984C149.21 69.0911 148.945 69.3724 148.752 69.7422C148.564 70.1068 148.468 70.5469 148.463 71.0625Z" fill="#4695F1"/>
<path d="M165.258 62H168.805L173.555 73.5937H173.742L178.492 62H182.039V78H179.258V67.0078H179.109L174.688 77.9531H172.609L168.188 66.9844H168.039V78H165.258V62ZM190.305 78.2344C189.133 78.2344 188.117 77.9766 187.258 77.4609C186.398 76.9453 185.732 76.224 185.258 75.2969C184.789 74.3698 184.555 73.2865 184.555 72.0469C184.555 70.8073 184.789 69.7214 185.258 68.7891C185.732 67.8568 186.398 67.1328 187.258 66.6172C188.117 66.1016 189.133 65.8438 190.305 65.8438C191.477 65.8438 192.492 66.1016 193.352 66.6172C194.211 67.1328 194.875 67.8568 195.344 68.7891C195.818 69.7214 196.055 70.8073 196.055 72.0469C196.055 73.2865 195.818 74.3698 195.344 75.2969C194.875 76.224 194.211 76.9453 193.352 77.4609C192.492 77.9766 191.477 78.2344 190.305 78.2344ZM190.32 75.9687C190.956 75.9687 191.487 75.7943 191.914 75.4453C192.341 75.0911 192.659 74.6172 192.867 74.0234C193.081 73.4297 193.188 72.7682 193.188 72.0391C193.188 71.3047 193.081 70.6406 192.867 70.0469C192.659 69.4479 192.341 68.9714 191.914 68.6172C191.487 68.263 190.956 68.0859 190.32 68.0859C189.669 68.0859 189.128 68.263 188.695 68.6172C188.268 68.9714 187.948 69.4479 187.734 70.0469C187.526 70.6406 187.422 71.3047 187.422 72.0391C187.422 72.7682 187.526 73.4297 187.734 74.0234C187.948 74.6172 188.268 75.0911 188.695 75.4453C189.128 75.7943 189.669 75.9687 190.32 75.9687ZM198.58 78V62H201.408V67.9844H201.525C201.671 67.6927 201.877 67.3828 202.143 67.0547C202.408 66.7214 202.768 66.4375 203.221 66.2031C203.674 65.9635 204.252 65.8438 204.955 65.8438C205.882 65.8438 206.718 66.0807 207.463 66.5547C208.213 67.0234 208.807 67.7187 209.244 68.6406C209.687 69.5573 209.908 70.6823 209.908 72.0156C209.908 73.3333 209.692 74.4531 209.26 75.375C208.827 76.2969 208.239 77 207.494 77.4844C206.749 77.9688 205.906 78.2109 204.963 78.2109C204.275 78.2109 203.705 78.0964 203.252 77.8672C202.799 77.638 202.434 77.362 202.158 77.0391C201.887 76.7109 201.676 76.401 201.525 76.1094H201.361V78H198.58ZM201.354 72C201.354 72.776 201.463 73.4557 201.682 74.0391C201.906 74.6224 202.226 75.0781 202.643 75.4062C203.064 75.7292 203.575 75.8906 204.174 75.8906C204.799 75.8906 205.322 75.724 205.744 75.3906C206.166 75.0521 206.484 74.5911 206.697 74.0078C206.916 73.4193 207.025 72.75 207.025 72C207.025 71.2552 206.919 70.5937 206.705 70.0156C206.492 69.4375 206.174 68.9844 205.752 68.6562C205.33 68.3281 204.804 68.1641 204.174 68.1641C203.57 68.1641 203.057 68.3229 202.635 68.6406C202.213 68.9583 201.893 69.4036 201.674 69.9766C201.46 70.5495 201.354 71.224 201.354 72ZM212.313 78V66H215.141V78H212.313ZM213.734 64.2969C213.286 64.2969 212.901 64.1484 212.578 63.8516C212.255 63.5495 212.094 63.1875 212.094 62.7656C212.094 62.3385 212.255 61.9766 212.578 61.6797C212.901 61.3776 213.286 61.2266 213.734 61.2266C214.188 61.2266 214.573 61.3776 214.891 61.6797C215.214 61.9766 215.375 62.3385 215.375 62.7656C215.375 63.1875 215.214 63.5495 214.891 63.8516C214.573 64.1484 214.188 64.2969 213.734 64.2969ZM220.877 62V78H218.049V62H220.877ZM229.098 78.2344C227.895 78.2344 226.855 77.9844 225.98 77.4844C225.111 76.9792 224.441 76.2656 223.973 75.3437C223.504 74.4167 223.27 73.3255 223.27 72.0703C223.27 70.8359 223.504 69.7526 223.973 68.8203C224.447 67.8828 225.108 67.1536 225.957 66.6328C226.806 66.1068 227.803 65.8438 228.949 65.8438C229.689 65.8438 230.387 65.9635 231.043 66.2031C231.704 66.4375 232.288 66.8021 232.793 67.2969C233.303 67.7917 233.704 68.4219 233.996 69.1875C234.288 69.9479 234.434 70.8542 234.434 71.9062V72.7734H224.598V70.8672H231.723C231.717 70.3255 231.6 69.8437 231.371 69.4219C231.142 68.9948 230.822 68.6589 230.41 68.4141C230.004 68.1693 229.53 68.0469 228.988 68.0469C228.41 68.0469 227.902 68.1875 227.465 68.4687C227.027 68.7448 226.686 69.1094 226.441 69.5625C226.202 70.0104 226.079 70.5026 226.074 71.0391V72.7031C226.074 73.401 226.202 74 226.457 74.5C226.712 74.9948 227.069 75.375 227.527 75.6406C227.986 75.901 228.522 76.0312 229.137 76.0312C229.548 76.0312 229.921 75.974 230.254 75.8594C230.587 75.7396 230.876 75.5651 231.121 75.3359C231.366 75.1068 231.551 74.8229 231.676 74.4844L234.316 74.7812C234.15 75.4792 233.832 76.0885 233.363 76.6094C232.9 77.125 232.306 77.526 231.582 77.8125C230.858 78.0937 230.03 78.2344 229.098 78.2344ZM251.104 66.3984C251.031 65.7161 250.723 65.1849 250.182 64.8047C249.645 64.4245 248.947 64.2344 248.088 64.2344C247.484 64.2344 246.965 64.3255 246.533 64.5078C246.101 64.6901 245.77 64.9375 245.541 65.25C245.312 65.5625 245.195 65.9193 245.189 66.3203C245.189 66.6536 245.265 66.9427 245.416 67.1875C245.572 67.4323 245.783 67.6406 246.049 67.8125C246.314 67.9792 246.609 68.1198 246.932 68.2344C247.255 68.349 247.58 68.4453 247.908 68.5234L249.408 68.8984C250.012 69.0391 250.593 69.2292 251.15 69.4687C251.713 69.7083 252.215 70.0104 252.658 70.375C253.106 70.7396 253.46 71.1797 253.721 71.6953C253.981 72.2109 254.111 72.8151 254.111 73.5078C254.111 74.4453 253.872 75.2708 253.393 75.9844C252.913 76.6927 252.221 77.2474 251.314 77.6484C250.413 78.0443 249.322 78.2422 248.041 78.2422C246.796 78.2422 245.715 78.0495 244.799 77.6641C243.887 77.2786 243.174 76.7161 242.658 75.9766C242.148 75.237 241.872 74.3359 241.83 73.2734H244.682C244.723 73.8307 244.895 74.2943 245.197 74.6641C245.499 75.0339 245.893 75.3099 246.377 75.4922C246.867 75.6745 247.413 75.7656 248.018 75.7656C248.648 75.7656 249.2 75.6719 249.674 75.4844C250.153 75.2917 250.528 75.026 250.799 74.6875C251.07 74.3437 251.208 73.9427 251.213 73.4844C251.208 73.0677 251.085 72.724 250.846 72.4531C250.606 72.1771 250.27 71.9479 249.838 71.7656C249.411 71.5781 248.911 71.4115 248.338 71.2656L246.518 70.7969C245.2 70.4583 244.158 69.9453 243.393 69.2578C242.632 68.5651 242.252 67.6458 242.252 66.5C242.252 65.5573 242.507 64.7318 243.018 64.0234C243.533 63.3151 244.234 62.7656 245.119 62.375C246.005 61.9792 247.007 61.7812 248.127 61.7812C249.262 61.7812 250.257 61.9792 251.111 62.375C251.971 62.7656 252.645 63.3099 253.135 64.0078C253.624 64.7005 253.877 65.4974 253.893 66.3984H251.104ZM259.148 74.2344L259.141 70.8203H259.594L263.906 66H267.211L261.906 71.9062H261.32L259.148 74.2344ZM256.57 78V62H259.398V78H256.57ZM264.102 78L260.195 72.5391L262.102 70.5469L267.484 78H264.102ZM269.096 78V66H271.924V78H269.096ZM270.518 64.2969C270.07 64.2969 269.684 64.1484 269.361 63.8516C269.038 63.5495 268.877 63.1875 268.877 62.7656C268.877 62.3385 269.038 61.9766 269.361 61.6797C269.684 61.3776 270.07 61.2266 270.518 61.2266C270.971 61.2266 271.356 61.3776 271.674 61.6797C271.997 61.9766 272.158 62.3385 272.158 62.7656C272.158 63.1875 271.997 63.5495 271.674 63.8516C271.356 64.1484 270.971 64.2969 270.518 64.2969ZM277.66 62V78H274.832V62H277.66ZM283.396 62V78H280.568V62H283.396ZM295.789 69.1719L293.211 69.4531C293.138 69.1927 293.01 68.9479 292.828 68.7188C292.651 68.4896 292.411 68.3047 292.109 68.1641C291.807 68.0234 291.438 67.9531 291 67.9531C290.411 67.9531 289.917 68.0807 289.516 68.3359C289.12 68.5911 288.924 68.9219 288.93 69.3281C288.924 69.6771 289.052 69.9609 289.313 70.1797C289.578 70.3984 290.016 70.5781 290.625 70.7188L292.672 71.1562C293.807 71.401 294.651 71.7891 295.203 72.3203C295.76 72.8516 296.042 73.5469 296.047 74.4062C296.042 75.1615 295.82 75.8281 295.383 76.4062C294.951 76.9792 294.349 77.4271 293.578 77.75C292.807 78.0729 291.922 78.2344 290.922 78.2344C289.453 78.2344 288.271 77.9271 287.375 77.3125C286.479 76.6927 285.945 75.8307 285.773 74.7266L288.531 74.4609C288.656 75.0026 288.922 75.4115 289.328 75.6875C289.734 75.9635 290.263 76.1016 290.914 76.1016C291.586 76.1016 292.125 75.9635 292.531 75.6875C292.943 75.4115 293.148 75.0703 293.148 74.6641C293.148 74.3203 293.016 74.0365 292.75 73.8125C292.49 73.5885 292.083 73.4167 291.531 73.2969L289.484 72.8672C288.333 72.6276 287.482 72.224 286.93 71.6562C286.378 71.0833 286.104 70.3594 286.109 69.4844C286.104 68.7448 286.305 68.1042 286.711 67.5625C287.122 67.0156 287.693 66.5937 288.422 66.2969C289.156 65.9948 290.003 65.8438 290.961 65.8438C292.367 65.8438 293.474 66.1432 294.281 66.7422C295.094 67.3411 295.596 68.151 295.789 69.1719ZM194.646 89V105H192.803V89H194.646ZM202.898 105.25C201.815 105.25 200.865 104.992 200.047 104.477C199.234 103.961 198.599 103.24 198.141 102.312C197.688 101.385 197.461 100.302 197.461 99.0625C197.461 97.8125 197.688 96.7214 198.141 95.7891C198.599 94.8568 199.234 94.1328 200.047 93.6172C200.865 93.1016 201.815 92.8438 202.898 92.8438C203.982 92.8438 204.93 93.1016 205.742 93.6172C206.56 94.1328 207.195 94.8568 207.648 95.7891C208.107 96.7214 208.336 97.8125 208.336 99.0625C208.336 100.302 208.107 101.385 207.648 102.312C207.195 103.24 206.56 103.961 205.742 104.477C204.93 104.992 203.982 105.25 202.898 105.25ZM202.898 103.594C203.721 103.594 204.398 103.383 204.93 102.961C205.461 102.539 205.854 101.984 206.109 101.297C206.365 100.609 206.492 99.8646 206.492 99.0625C206.492 98.2604 206.365 97.513 206.109 96.8203C205.854 96.1276 205.461 95.5677 204.93 95.1406C204.398 94.7135 203.721 94.5 202.898 94.5C202.076 94.5 201.398 94.7135 200.867 95.1406C200.336 95.5677 199.943 96.1276 199.688 96.8203C199.432 97.513 199.305 98.2604 199.305 99.0625C199.305 99.8646 199.432 100.609 199.688 101.297C199.943 101.984 200.336 102.539 200.867 102.961C201.398 103.383 202.076 103.594 202.898 103.594ZM215.994 109.75C215.104 109.75 214.338 109.635 213.697 109.406C213.057 109.182 212.523 108.885 212.096 108.516C211.674 108.151 211.338 107.76 211.088 107.344L212.557 106.313C212.723 106.531 212.934 106.781 213.189 107.062C213.445 107.349 213.794 107.596 214.236 107.805C214.684 108.018 215.27 108.125 215.994 108.125C216.963 108.125 217.762 107.891 218.393 107.422C219.023 106.953 219.338 106.219 219.338 105.219V102.781H219.182C219.046 103 218.854 103.271 218.604 103.594C218.359 103.911 218.005 104.195 217.541 104.445C217.083 104.69 216.463 104.812 215.682 104.812C214.713 104.812 213.843 104.583 213.072 104.125C212.307 103.667 211.7 103 211.252 102.125C210.809 101.25 210.588 100.187 210.588 98.9375C210.588 97.7083 210.804 96.638 211.236 95.7266C211.669 94.8099 212.27 94.1016 213.041 93.6016C213.812 93.0964 214.702 92.8438 215.713 92.8438C216.494 92.8438 217.114 92.974 217.572 93.2344C218.036 93.4896 218.39 93.7812 218.635 94.1094C218.885 94.4323 219.077 94.6979 219.213 94.9062H219.4V93H221.182V105.344C221.182 106.375 220.947 107.214 220.479 107.859C220.015 108.51 219.39 108.987 218.604 109.289C217.822 109.596 216.952 109.75 215.994 109.75ZM215.932 103.156C216.671 103.156 217.296 102.987 217.807 102.648C218.317 102.31 218.705 101.823 218.971 101.188C219.236 100.552 219.369 99.7917 219.369 98.9062C219.369 98.0417 219.239 97.2786 218.979 96.6172C218.718 95.9557 218.333 95.4375 217.822 95.0625C217.312 94.6875 216.682 94.5 215.932 94.5C215.15 94.5 214.499 94.6979 213.979 95.0937C213.463 95.4896 213.075 96.0208 212.814 96.6875C212.559 97.3542 212.432 98.0937 212.432 98.9062C212.432 99.7396 212.562 100.477 212.822 101.117C213.088 101.753 213.479 102.253 213.994 102.617C214.515 102.977 215.161 103.156 215.932 103.156Z" fill="#FFF6A5"/>
<path d="M299.27 71.25C299.27 69.2812 299.525 67.4714 300.035 65.8203C300.551 64.1641 301.285 62.6406 302.238 61.25H303.863C303.488 61.7656 303.137 62.401 302.809 63.1562C302.486 63.9062 302.202 64.7318 301.957 65.6328C301.712 66.5286 301.52 67.4557 301.379 68.4141C301.243 69.3724 301.176 70.3177 301.176 71.25C301.176 72.4896 301.296 73.7474 301.535 75.0234C301.775 76.2995 302.098 77.4844 302.504 78.5781C302.91 79.6719 303.363 80.5625 303.863 81.25H302.238C301.285 79.8594 300.551 78.3385 300.035 76.6875C299.525 75.0312 299.27 73.2187 299.27 71.25ZM310.521 71.25C310.521 73.2187 310.264 75.0312 309.748 76.6875C309.238 78.3385 308.506 79.8594 307.553 81.25H305.928C306.303 80.7344 306.652 80.099 306.975 79.3438C307.303 78.5938 307.589 77.7708 307.834 76.875C308.079 75.974 308.269 75.0443 308.404 74.0859C308.545 73.1224 308.615 72.1771 308.615 71.25C308.615 70.0104 308.495 68.7526 308.256 67.4766C308.016 66.2005 307.693 65.0156 307.287 63.9219C306.881 62.8281 306.428 61.9375 305.928 61.25H307.553C308.506 62.6406 309.238 64.1641 309.748 65.8203C310.264 67.4714 310.521 69.2812 310.521 71.25Z" fill="#FFD600"/>
<path d="M313.68 71.2812V70.3125C314.549 70.3125 315.156 70.1302 315.5 69.7656C315.849 69.401 316.023 68.7917 316.023 67.9375V65.4375C316.023 64.7187 316.091 64.0964 316.227 63.5703C316.367 63.0443 316.594 62.6094 316.906 62.2656C317.219 61.9219 317.635 61.6667 318.156 61.5C318.677 61.3333 319.32 61.25 320.086 61.25V62.7812C319.482 62.7812 319.005 62.875 318.656 63.0625C318.313 63.25 318.068 63.5417 317.922 63.9375C317.781 64.3281 317.711 64.8281 317.711 65.4375V68.5625C317.711 68.9687 317.656 69.3385 317.547 69.6719C317.443 70.0052 317.247 70.2917 316.961 70.5312C316.674 70.7708 316.266 70.9557 315.734 71.0859C315.208 71.2161 314.523 71.2812 313.68 71.2812ZM320.086 81.25C319.32 81.25 318.677 81.1667 318.156 81C317.635 80.8333 317.219 80.5781 316.906 80.2344C316.594 79.8906 316.367 79.4557 316.227 78.9297C316.091 78.4036 316.023 77.7813 316.023 77.0625V74.5625C316.023 73.7083 315.849 73.099 315.5 72.7344C315.156 72.3698 314.549 72.1875 313.68 72.1875V71.2187C314.523 71.2187 315.208 71.2839 315.734 71.4141C316.266 71.5443 316.674 71.7292 316.961 71.9687C317.247 72.2083 317.443 72.4948 317.547 72.8281C317.656 73.1615 317.711 73.5312 317.711 73.9375V77.0625C317.711 77.6719 317.781 78.1719 317.922 78.5625C318.068 78.9531 318.313 79.2422 318.656 79.4297C319.005 79.6224 319.482 79.7188 320.086 79.7188V81.25ZM313.68 72.1875V70.3125H315.523V72.1875H313.68ZM188.088 105.125C187.702 105.125 187.372 104.987 187.096 104.711C186.82 104.435 186.682 104.104 186.682 103.719C186.682 103.333 186.82 103.003 187.096 102.727C187.372 102.451 187.702 102.312 188.088 102.312C188.473 102.312 188.804 102.451 189.08 102.727C189.356 103.003 189.494 103.333 189.494 103.719C189.494 103.974 189.429 104.208 189.299 104.422C189.174 104.635 189.005 104.807 188.791 104.937C188.583 105.063 188.348 105.125 188.088 105.125ZM225.213 98.25C225.213 96.2812 225.468 94.4714 225.979 92.8203C226.494 91.1641 227.229 89.6406 228.182 88.25H229.807C229.432 88.7656 229.08 89.401 228.752 90.1562C228.429 90.9062 228.145 91.7318 227.9 92.6328C227.656 93.5286 227.463 94.4557 227.322 95.4141C227.187 96.3724 227.119 97.3177 227.119 98.25C227.119 99.4896 227.239 100.747 227.479 102.023C227.718 103.299 228.041 104.484 228.447 105.578C228.854 106.672 229.307 107.563 229.807 108.25H228.182C227.229 106.859 226.494 105.339 225.979 103.687C225.468 102.031 225.213 100.219 225.213 98.25ZM556.475 98.25C556.475 100.219 556.217 102.031 555.701 103.687C555.191 105.339 554.459 106.859 553.506 108.25H551.881C552.256 107.734 552.605 107.099 552.928 106.344C553.256 105.594 553.542 104.771 553.787 103.875C554.032 102.974 554.222 102.044 554.357 101.086C554.498 100.122 554.568 99.1771 554.568 98.25C554.568 97.0104 554.449 95.7526 554.209 94.4766C553.969 93.2005 553.646 92.0156 553.24 90.9219C552.834 89.8281 552.381 88.9375 551.881 88.25H553.506C554.459 89.6406 555.191 91.1641 555.701 92.8203C556.217 94.4714 556.475 96.2812 556.475 98.25ZM74.1563 341.219V342.187C73.2865 342.187 72.6771 342.37 72.3281 342.734C71.9844 343.099 71.8125 343.708 71.8125 344.562V347.062C71.8125 347.781 71.7422 348.404 71.6016 348.93C71.4661 349.456 71.2422 349.891 70.9297 350.234C70.6172 350.578 70.2005 350.833 69.6797 351C69.1589 351.167 68.5156 351.25 67.75 351.25V349.719C68.3542 349.719 68.8281 349.622 69.1719 349.43C69.5208 349.242 69.7656 348.953 69.9063 348.563C70.0521 348.172 70.125 347.672 70.125 347.062V343.937C70.125 343.531 70.1771 343.161 70.2813 342.828C70.3906 342.495 70.5885 342.208 70.875 341.969C71.1615 341.729 71.5677 341.544 72.0938 341.414C72.625 341.284 73.3125 341.219 74.1563 341.219ZM67.75 331.25C68.5156 331.25 69.1589 331.333 69.6797 331.5C70.2005 331.667 70.6172 331.922 70.9297 332.266C71.2422 332.609 71.4661 333.044 71.6016 333.57C71.7422 334.096 71.8125 334.719 71.8125 335.437V337.937C71.8125 338.792 71.9844 339.401 72.3281 339.766C72.6771 340.13 73.2865 340.312 74.1563 340.312V341.281C73.3125 341.281 72.625 341.216 72.0938 341.086C71.5677 340.956 71.1615 340.771 70.875 340.531C70.5885 340.292 70.3906 340.005 70.2813 339.672C70.1771 339.339 70.125 338.969 70.125 338.562V335.437C70.125 334.828 70.0521 334.328 69.9063 333.937C69.7656 333.542 69.5208 333.25 69.1719 333.062C68.8281 332.875 68.3542 332.781 67.75 332.781V331.25ZM74.1563 340.312V342.187H72.3125V340.312H74.1563Z" fill="#C581C7"/>
<path d="M110.688 105.25C109.563 105.25 108.594 104.984 107.781 104.453C106.969 103.922 106.344 103.19 105.906 102.258C105.469 101.326 105.25 100.26 105.25 99.0625C105.25 97.8437 105.474 96.7682 105.922 95.8359C106.375 94.8984 107.005 94.1667 107.813 93.6406C108.625 93.1094 109.573 92.8438 110.656 92.8438C111.5 92.8438 112.26 93 112.938 93.3125C113.615 93.625 114.169 94.0625 114.602 94.625C115.034 95.1875 115.302 95.8437 115.406 96.5937H113.563C113.422 96.0469 113.109 95.5625 112.625 95.1406C112.146 94.7135 111.5 94.5 110.688 94.5C109.969 94.5 109.339 94.6875 108.797 95.0625C108.26 95.4323 107.841 95.9557 107.539 96.6328C107.242 97.3047 107.094 98.0937 107.094 99C107.094 99.9271 107.24 100.734 107.531 101.422C107.828 102.109 108.245 102.643 108.781 103.023C109.323 103.404 109.958 103.594 110.688 103.594C111.167 103.594 111.602 103.51 111.992 103.344C112.383 103.177 112.714 102.938 112.984 102.625C113.255 102.312 113.448 101.937 113.563 101.5H115.406C115.302 102.208 115.044 102.846 114.633 103.414C114.227 103.977 113.688 104.424 113.016 104.758C112.349 105.086 111.573 105.25 110.688 105.25ZM122.977 105.25C121.893 105.25 120.943 104.992 120.125 104.477C119.313 103.961 118.677 103.24 118.219 102.312C117.766 101.385 117.539 100.302 117.539 99.0625C117.539 97.8125 117.766 96.7214 118.219 95.7891C118.677 94.8568 119.313 94.1328 120.125 93.6172C120.943 93.1016 121.893 92.8438 122.977 92.8438C124.06 92.8438 125.008 93.1016 125.82 93.6172C126.638 94.1328 127.273 94.8568 127.727 95.7891C128.185 96.7214 128.414 97.8125 128.414 99.0625C128.414 100.302 128.185 101.385 127.727 102.312C127.273 103.24 126.638 103.961 125.82 104.477C125.008 104.992 124.06 105.25 122.977 105.25ZM122.977 103.594C123.799 103.594 124.477 103.383 125.008 102.961C125.539 102.539 125.932 101.984 126.188 101.297C126.443 100.609 126.57 99.8646 126.57 99.0625C126.57 98.2604 126.443 97.513 126.188 96.8203C125.932 96.1276 125.539 95.5677 125.008 95.1406C124.477 94.7135 123.799 94.5 122.977 94.5C122.154 94.5 121.477 94.7135 120.945 95.1406C120.414 95.5677 120.021 96.1276 119.766 96.8203C119.51 97.513 119.383 98.2604 119.383 99.0625C119.383 99.8646 119.51 100.609 119.766 101.297C120.021 101.984 120.414 102.539 120.945 102.961C121.477 103.383 122.154 103.594 122.977 103.594ZM133.072 97.7812V105H131.229V93H133.01V94.875H133.166C133.447 94.2656 133.874 93.776 134.447 93.4063C135.02 93.0313 135.76 92.8438 136.666 92.8438C137.479 92.8438 138.189 93.0104 138.799 93.3437C139.408 93.6719 139.882 94.1719 140.221 94.8437C140.559 95.5104 140.729 96.3542 140.729 97.375V105H138.885V97.5C138.885 96.5573 138.64 95.8229 138.15 95.2969C137.661 94.7656 136.989 94.5 136.135 94.5C135.546 94.5 135.02 94.6276 134.557 94.8828C134.098 95.138 133.736 95.5104 133.471 96C133.205 96.4896 133.072 97.0833 133.072 97.7812ZM152.598 95.6875L150.941 96.1562C150.837 95.8802 150.684 95.612 150.48 95.3516C150.283 95.0859 150.012 94.8672 149.668 94.6953C149.324 94.5234 148.884 94.4375 148.348 94.4375C147.613 94.4375 147.001 94.6068 146.512 94.9453C146.027 95.2786 145.785 95.7031 145.785 96.2187C145.785 96.6771 145.952 97.0391 146.285 97.3047C146.618 97.5703 147.139 97.7917 147.848 97.9687L149.629 98.4063C150.702 98.6667 151.501 99.0651 152.027 99.6016C152.553 100.133 152.816 100.818 152.816 101.656C152.816 102.344 152.618 102.958 152.223 103.5C151.832 104.042 151.285 104.469 150.582 104.781C149.879 105.094 149.061 105.25 148.129 105.25C146.905 105.25 145.892 104.984 145.09 104.453C144.288 103.922 143.78 103.146 143.566 102.125L145.316 101.687C145.483 102.333 145.798 102.818 146.262 103.141C146.73 103.464 147.342 103.625 148.098 103.625C148.957 103.625 149.639 103.443 150.145 103.078C150.655 102.708 150.91 102.266 150.91 101.75C150.91 101.333 150.764 100.984 150.473 100.703C150.181 100.417 149.733 100.203 149.129 100.062L147.129 99.5937C146.03 99.3333 145.223 98.9297 144.707 98.3828C144.197 97.8307 143.941 97.1406 143.941 96.3125C143.941 95.6354 144.132 95.0365 144.512 94.5156C144.897 93.9948 145.421 93.5859 146.082 93.2891C146.749 92.9922 147.504 92.8438 148.348 92.8438C149.535 92.8438 150.467 93.1042 151.145 93.625C151.827 94.1458 152.311 94.8333 152.598 95.6875ZM160.467 105.25C159.383 105.25 158.433 104.992 157.615 104.477C156.803 103.961 156.167 103.24 155.709 102.312C155.256 101.385 155.029 100.302 155.029 99.0625C155.029 97.8125 155.256 96.7214 155.709 95.7891C156.167 94.8568 156.803 94.1328 157.615 93.6172C158.433 93.1016 159.383 92.8438 160.467 92.8438C161.55 92.8438 162.498 93.1016 163.311 93.6172C164.128 94.1328 164.764 94.8568 165.217 95.7891C165.675 96.7214 165.904 97.8125 165.904 99.0625C165.904 100.302 165.675 101.385 165.217 102.312C164.764 103.24 164.128 103.961 163.311 104.477C162.498 104.992 161.55 105.25 160.467 105.25ZM160.467 103.594C161.29 103.594 161.967 103.383 162.498 102.961C163.029 102.539 163.423 101.984 163.678 101.297C163.933 100.609 164.061 99.8646 164.061 99.0625C164.061 98.2604 163.933 97.513 163.678 96.8203C163.423 96.1276 163.029 95.5677 162.498 95.1406C161.967 94.7135 161.29 94.5 160.467 94.5C159.644 94.5 158.967 94.7135 158.436 95.1406C157.904 95.5677 157.511 96.1276 157.256 96.8203C157.001 97.513 156.873 98.2604 156.873 99.0625C156.873 99.8646 157.001 100.609 157.256 101.297C157.511 101.984 157.904 102.539 158.436 102.961C158.967 103.383 159.644 103.594 160.467 103.594ZM170.563 89V105H168.719V89H170.563ZM178.971 105.25C177.814 105.25 176.817 104.995 175.979 104.484C175.145 103.969 174.502 103.25 174.049 102.328C173.601 101.401 173.377 100.323 173.377 99.0938C173.377 97.8646 173.601 96.7812 174.049 95.8437C174.502 94.901 175.132 94.1667 175.939 93.6406C176.752 93.1094 177.7 92.8438 178.783 92.8438C179.408 92.8438 180.025 92.9479 180.635 93.1562C181.244 93.3646 181.799 93.7031 182.299 94.1719C182.799 94.6354 183.197 95.25 183.494 96.0156C183.791 96.7812 183.939 97.724 183.939 98.8437V99.625H174.689V98.0312H182.064C182.064 97.3542 181.929 96.75 181.658 96.2187C181.393 95.6875 181.012 95.2682 180.518 94.9609C180.028 94.6536 179.45 94.5 178.783 94.5C178.049 94.5 177.413 94.6823 176.877 95.0469C176.346 95.4062 175.937 95.875 175.65 96.4531C175.364 97.0312 175.221 97.651 175.221 98.3125V99.375C175.221 100.281 175.377 101.049 175.689 101.68C176.007 102.305 176.447 102.781 177.01 103.109C177.572 103.432 178.226 103.594 178.971 103.594C179.455 103.594 179.893 103.526 180.283 103.391C180.679 103.25 181.02 103.042 181.307 102.766C181.593 102.484 181.814 102.135 181.971 101.719L183.752 102.219C183.564 102.823 183.249 103.354 182.807 103.812C182.364 104.266 181.817 104.62 181.166 104.875C180.515 105.125 179.783 105.25 178.971 105.25Z" fill="#39B8FF"/>
<path d="M231.902 94V92.5937C231.902 92.1667 231.978 91.7135 232.129 91.2344C232.285 90.75 232.509 90.2839 232.801 89.8359C233.098 89.3828 233.454 88.9896 233.871 88.6562L234.871 89.4687C234.543 89.9375 234.257 90.4271 234.012 90.9375C233.772 91.4427 233.652 91.9844 233.652 92.5625V94H231.902ZM235.902 94V92.5937C235.902 92.1667 235.978 91.7135 236.129 91.2344C236.285 90.75 236.509 90.2839 236.801 89.8359C237.098 89.3828 237.454 88.9896 237.871 88.6562L238.871 89.4687C238.543 89.9375 238.257 90.4271 238.012 90.9375C237.772 91.4427 237.652 91.9844 237.652 92.5625V94H235.902ZM545.783 89V90.4062C545.783 90.8333 545.705 91.2891 545.549 91.7734C545.398 92.2526 545.174 92.7187 544.877 93.1719C544.585 93.6198 544.231 94.0104 543.814 94.3438L542.814 93.5313C543.143 93.0625 543.426 92.5755 543.666 92.0703C543.911 91.5599 544.033 91.0156 544.033 90.4375V89H545.783ZM549.783 89V90.4062C549.783 90.8333 549.705 91.2891 549.549 91.7734C549.398 92.2526 549.174 92.7187 548.877 93.1719C548.585 93.6198 548.231 94.0104 547.814 94.3438L546.814 93.5313C547.143 93.0625 547.426 92.5755 547.666 92.0703C547.911 91.5599 548.033 91.0156 548.033 90.4375V89H549.783Z" fill="#CE6B40"/>
<path d="M245.438 105.25C244.438 105.25 243.555 104.997 242.789 104.492C242.023 103.982 241.424 103.263 240.992 102.336C240.56 101.404 240.344 100.302 240.344 99.0313C240.344 97.7708 240.56 96.6771 240.992 95.75C241.424 94.8229 242.026 94.1068 242.797 93.6016C243.568 93.0964 244.458 92.8438 245.469 92.8438C246.25 92.8438 246.867 92.974 247.32 93.2344C247.779 93.4896 248.128 93.7812 248.367 94.1094C248.612 94.4323 248.802 94.6979 248.938 94.9062H249.094V89H250.938V105H249.156V103.156H248.938C248.802 103.375 248.609 103.651 248.359 103.984C248.109 104.312 247.753 104.607 247.289 104.867C246.826 105.122 246.208 105.25 245.438 105.25ZM245.688 103.594C246.427 103.594 247.052 103.401 247.563 103.016C248.073 102.625 248.461 102.086 248.727 101.398C248.992 100.706 249.125 99.9062 249.125 99C249.125 98.1042 248.995 97.3203 248.734 96.6484C248.474 95.9714 248.089 95.4453 247.578 95.0703C247.068 94.6901 246.438 94.5 245.688 94.5C244.906 94.5 244.255 94.7005 243.734 95.1016C243.219 95.4974 242.831 96.0365 242.57 96.7187C242.315 97.3958 242.188 98.1562 242.188 99C242.188 99.8542 242.318 100.63 242.578 101.328C242.844 102.021 243.234 102.573 243.75 102.984C244.271 103.391 244.917 103.594 245.688 103.594ZM259.602 105.25C258.445 105.25 257.448 104.995 256.609 104.484C255.776 103.969 255.133 103.25 254.68 102.328C254.232 101.401 254.008 100.323 254.008 99.0938C254.008 97.8646 254.232 96.7812 254.68 95.8437C255.133 94.901 255.763 94.1667 256.57 93.6406C257.383 93.1094 258.331 92.8438 259.414 92.8438C260.039 92.8438 260.656 92.9479 261.266 93.1562C261.875 93.3646 262.43 93.7031 262.93 94.1719C263.43 94.6354 263.828 95.25 264.125 96.0156C264.422 96.7812 264.57 97.724 264.57 98.8437V99.625H255.32V98.0312H262.695C262.695 97.3542 262.56 96.75 262.289 96.2187C262.023 95.6875 261.643 95.2682 261.148 94.9609C260.659 94.6536 260.081 94.5 259.414 94.5C258.68 94.5 258.044 94.6823 257.508 95.0469C256.977 95.4062 256.568 95.875 256.281 96.4531C255.995 97.0312 255.852 97.651 255.852 98.3125V99.375C255.852 100.281 256.008 101.049 256.32 101.68C256.638 102.305 257.078 102.781 257.641 103.109C258.203 103.432 258.857 103.594 259.602 103.594C260.086 103.594 260.523 103.526 260.914 103.391C261.31 103.25 261.651 103.042 261.938 102.766C262.224 102.484 262.445 102.135 262.602 101.719L264.383 102.219C264.195 102.823 263.88 103.354 263.438 103.812C262.995 104.266 262.448 104.62 261.797 104.875C261.146 105.125 260.414 105.25 259.602 105.25ZM276.822 93L272.385 105H270.51L266.072 93H268.072L271.385 102.562H271.51L274.822 93H276.822ZM283.857 105.25C282.701 105.25 281.704 104.995 280.865 104.484C280.032 103.969 279.389 103.25 278.936 102.328C278.488 101.401 278.264 100.323 278.264 99.0938C278.264 97.8646 278.488 96.7812 278.936 95.8437C279.389 94.901 280.019 94.1667 280.826 93.6406C281.639 93.1094 282.587 92.8438 283.67 92.8438C284.295 92.8438 284.912 92.9479 285.521 93.1562C286.131 93.3646 286.686 93.7031 287.186 94.1719C287.686 94.6354 288.084 95.25 288.381 96.0156C288.678 96.7812 288.826 97.724 288.826 98.8437V99.625H279.576V98.0312H286.951C286.951 97.3542 286.816 96.75 286.545 96.2187C286.279 95.6875 285.899 95.2682 285.404 94.9609C284.915 94.6536 284.337 94.5 283.67 94.5C282.936 94.5 282.3 94.6823 281.764 95.0469C281.232 95.4062 280.824 95.875 280.537 96.4531C280.251 97.0312 280.107 97.651 280.107 98.3125V99.375C280.107 100.281 280.264 101.049 280.576 101.68C280.894 102.305 281.334 102.781 281.896 103.109C282.459 103.432 283.113 103.594 283.857 103.594C284.342 103.594 284.779 103.526 285.17 103.391C285.566 103.25 285.907 103.042 286.193 102.766C286.48 102.484 286.701 102.135 286.857 101.719L288.639 102.219C288.451 102.823 288.136 103.354 287.693 103.812C287.251 104.266 286.704 104.62 286.053 104.875C285.402 105.125 284.67 105.25 283.857 105.25ZM293.475 89V105H291.631V89H293.475ZM301.727 105.25C300.643 105.25 299.693 104.992 298.875 104.477C298.063 103.961 297.427 103.24 296.969 102.312C296.516 101.385 296.289 100.302 296.289 99.0625C296.289 97.8125 296.516 96.7214 296.969 95.7891C297.427 94.8568 298.063 94.1328 298.875 93.6172C299.693 93.1016 300.643 92.8438 301.727 92.8438C302.81 92.8438 303.758 93.1016 304.57 93.6172C305.388 94.1328 306.023 94.8568 306.477 95.7891C306.935 96.7214 307.164 97.8125 307.164 99.0625C307.164 100.302 306.935 101.385 306.477 102.312C306.023 103.24 305.388 103.961 304.57 104.477C303.758 104.992 302.81 105.25 301.727 105.25ZM301.727 103.594C302.549 103.594 303.227 103.383 303.758 102.961C304.289 102.539 304.682 101.984 304.938 101.297C305.193 100.609 305.32 99.8646 305.32 99.0625C305.32 98.2604 305.193 97.513 304.938 96.8203C304.682 96.1276 304.289 95.5677 303.758 95.1406C303.227 94.7135 302.549 94.5 301.727 94.5C300.904 94.5 300.227 94.7135 299.695 95.1406C299.164 95.5677 298.771 96.1276 298.516 96.8203C298.26 97.513 298.133 98.2604 298.133 99.0625C298.133 99.8646 298.26 100.609 298.516 101.297C298.771 101.984 299.164 102.539 299.695 102.961C300.227 103.383 300.904 103.594 301.727 103.594ZM309.979 109.5V93H311.76V94.9062H311.979C312.114 94.6979 312.301 94.4323 312.541 94.1094C312.786 93.7812 313.135 93.4896 313.588 93.2344C314.046 92.974 314.666 92.8438 315.447 92.8438C316.458 92.8438 317.348 93.0964 318.119 93.6016C318.89 94.1068 319.492 94.8229 319.924 95.75C320.356 96.6771 320.572 97.7708 320.572 99.0313C320.572 100.302 320.356 101.404 319.924 102.336C319.492 103.263 318.893 103.982 318.127 104.492C317.361 104.997 316.479 105.25 315.479 105.25C314.708 105.25 314.09 105.122 313.627 104.867C313.163 104.607 312.807 104.312 312.557 103.984C312.307 103.651 312.114 103.375 311.979 103.156H311.822V109.5H309.979ZM311.791 99C311.791 99.9062 311.924 100.706 312.189 101.398C312.455 102.086 312.843 102.625 313.354 103.016C313.864 103.401 314.489 103.594 315.229 103.594C315.999 103.594 316.643 103.391 317.158 102.984C317.679 102.573 318.07 102.021 318.33 101.328C318.596 100.63 318.729 99.8542 318.729 99C318.729 98.1562 318.598 97.3958 318.338 96.7187C318.083 96.0365 317.695 95.4974 317.174 95.1016C316.658 94.7005 316.01 94.5 315.229 94.5C314.479 94.5 313.848 94.6901 313.338 95.0703C312.827 95.4453 312.442 95.9714 312.182 96.6484C311.921 97.3203 311.791 98.1042 311.791 99ZM323.385 105V93H325.229V105H323.385ZM324.322 91C323.963 91 323.653 90.8776 323.393 90.6328C323.137 90.388 323.01 90.0938 323.01 89.75C323.01 89.4063 323.137 89.112 323.393 88.8672C323.653 88.6224 323.963 88.5 324.322 88.5C324.682 88.5 324.989 88.6224 325.244 88.8672C325.505 89.112 325.635 89.4063 325.635 89.75C325.635 90.0938 325.505 90.388 325.244 90.6328C324.989 90.8776 324.682 91 324.322 91ZM330.449 97.7812V105H328.605V93H330.387V94.875H330.543C330.824 94.2656 331.251 93.776 331.824 93.4063C332.397 93.0313 333.137 92.8438 334.043 92.8438C334.855 92.8438 335.566 93.0104 336.176 93.3437C336.785 93.6719 337.259 94.1719 337.598 94.8437C337.936 95.5104 338.105 96.3542 338.105 97.375V105H336.262V97.5C336.262 96.5573 336.017 95.8229 335.527 95.2969C335.038 94.7656 334.366 94.5 333.512 94.5C332.923 94.5 332.397 94.6276 331.934 94.8828C331.475 95.138 331.113 95.5104 330.848 96C330.582 96.4896 330.449 97.0833 330.449 97.7812ZM346.318 109.75C345.428 109.75 344.662 109.635 344.021 109.406C343.381 109.182 342.847 108.885 342.42 108.516C341.998 108.151 341.662 107.76 341.412 107.344L342.881 106.313C343.048 106.531 343.258 106.781 343.514 107.062C343.769 107.349 344.118 107.596 344.561 107.805C345.008 108.018 345.594 108.125 346.318 108.125C347.287 108.125 348.087 107.891 348.717 107.422C349.347 106.953 349.662 106.219 349.662 105.219V102.781H349.506C349.37 103 349.178 103.271 348.928 103.594C348.683 103.911 348.329 104.195 347.865 104.445C347.407 104.69 346.787 104.812 346.006 104.812C345.037 104.812 344.167 104.583 343.396 104.125C342.631 103.667 342.024 103 341.576 102.125C341.133 101.25 340.912 100.187 340.912 98.9375C340.912 97.7083 341.128 96.638 341.561 95.7266C341.993 94.8099 342.594 94.1016 343.365 93.6016C344.136 93.0964 345.027 92.8438 346.037 92.8438C346.818 92.8438 347.438 92.974 347.896 93.2344C348.36 93.4896 348.714 93.7812 348.959 94.1094C349.209 94.4323 349.402 94.6979 349.537 94.9062H349.725V93H351.506V105.344C351.506 106.375 351.271 107.214 350.803 107.859C350.339 108.51 349.714 108.987 348.928 109.289C348.146 109.596 347.277 109.75 346.318 109.75ZM346.256 103.156C346.995 103.156 347.62 102.987 348.131 102.648C348.641 102.31 349.029 101.823 349.295 101.188C349.561 100.552 349.693 99.7917 349.693 98.9062C349.693 98.0417 349.563 97.2786 349.303 96.6172C349.042 95.9557 348.657 95.4375 348.146 95.0625C347.636 94.6875 347.006 94.5 346.256 94.5C345.475 94.5 344.824 94.6979 344.303 95.0937C343.787 95.4896 343.399 96.0208 343.139 96.6875C342.883 97.3542 342.756 98.0937 342.756 98.9062C342.756 99.7396 342.886 100.477 343.146 101.117C343.412 101.753 343.803 102.253 344.318 102.617C344.839 102.977 345.485 103.156 346.256 103.156ZM361.318 89H363.631L369.068 102.281H369.256L374.693 89H377.006V105H375.193V92.8438H375.037L370.037 105H368.287L363.287 92.8438H363.131V105H361.318V89ZM385.516 105.25C384.432 105.25 383.482 104.992 382.664 104.477C381.852 103.961 381.216 103.24 380.758 102.312C380.305 101.385 380.078 100.302 380.078 99.0625C380.078 97.8125 380.305 96.7214 380.758 95.7891C381.216 94.8568 381.852 94.1328 382.664 93.6172C383.482 93.1016 384.432 92.8438 385.516 92.8438C386.599 92.8438 387.547 93.1016 388.359 93.6172C389.177 94.1328 389.813 94.8568 390.266 95.7891C390.724 96.7214 390.953 97.8125 390.953 99.0625C390.953 100.302 390.724 101.385 390.266 102.312C389.813 103.24 389.177 103.961 388.359 104.477C387.547 104.992 386.599 105.25 385.516 105.25ZM385.516 103.594C386.339 103.594 387.016 103.383 387.547 102.961C388.078 102.539 388.471 101.984 388.727 101.297C388.982 100.609 389.109 99.8646 389.109 99.0625C389.109 98.2604 388.982 97.513 388.727 96.8203C388.471 96.1276 388.078 95.5677 387.547 95.1406C387.016 94.7135 386.339 94.5 385.516 94.5C384.693 94.5 384.016 94.7135 383.484 95.1406C382.953 95.5677 382.56 96.1276 382.305 96.8203C382.049 97.513 381.922 98.2604 381.922 99.0625C381.922 99.8646 382.049 100.609 382.305 101.297C382.56 101.984 382.953 102.539 383.484 102.961C384.016 103.383 384.693 103.594 385.516 103.594ZM394.018 105V89H395.861V94.9062H396.018C396.153 94.6979 396.34 94.4323 396.58 94.1094C396.825 93.7812 397.174 93.4896 397.627 93.2344C398.085 92.974 398.705 92.8438 399.486 92.8438C400.497 92.8438 401.387 93.0964 402.158 93.6016C402.929 94.1068 403.531 94.8229 403.963 95.75C404.395 96.6771 404.611 97.7708 404.611 99.0313C404.611 100.302 404.395 101.404 403.963 102.336C403.531 103.263 402.932 103.982 402.166 104.492C401.4 104.997 400.518 105.25 399.518 105.25C398.747 105.25 398.13 105.122 397.666 104.867C397.202 104.607 396.846 104.312 396.596 103.984C396.346 103.651 396.153 103.375 396.018 103.156H395.799V105H394.018ZM395.83 99C395.83 99.9062 395.963 100.706 396.229 101.398C396.494 102.086 396.882 102.625 397.393 103.016C397.903 103.401 398.528 103.594 399.268 103.594C400.038 103.594 400.682 103.391 401.197 102.984C401.718 102.573 402.109 102.021 402.369 101.328C402.635 100.63 402.768 99.8542 402.768 99C402.768 98.1562 402.637 97.3958 402.377 96.7187C402.122 96.0365 401.734 95.4974 401.213 95.1016C400.697 94.7005 400.049 94.5 399.268 94.5C398.518 94.5 397.887 94.6901 397.377 95.0703C396.867 95.4453 396.481 95.9714 396.221 96.6484C395.96 97.3203 395.83 98.1042 395.83 99ZM407.432 105V93H409.275V105H407.432ZM408.369 91C408.01 91 407.7 90.8776 407.439 90.6328C407.184 90.388 407.057 90.0938 407.057 89.75C407.057 89.4063 407.184 89.112 407.439 88.8672C407.7 88.6224 408.01 88.5 408.369 88.5C408.729 88.5 409.036 88.6224 409.291 88.8672C409.551 89.112 409.682 89.4063 409.682 89.75C409.682 90.0938 409.551 90.388 409.291 90.6328C409.036 90.8776 408.729 91 408.369 91ZM414.496 89V105H412.652V89H414.496ZM422.904 105.25C421.748 105.25 420.751 104.995 419.912 104.484C419.079 103.969 418.436 103.25 417.982 102.328C417.535 101.401 417.311 100.323 417.311 99.0938C417.311 97.8646 417.535 96.7812 417.982 95.8437C418.436 94.901 419.066 94.1667 419.873 93.6406C420.686 93.1094 421.633 92.8438 422.717 92.8438C423.342 92.8438 423.959 92.9479 424.568 93.1562C425.178 93.3646 425.732 93.7031 426.232 94.1719C426.732 94.6354 427.131 95.25 427.428 96.0156C427.725 96.7812 427.873 97.724 427.873 98.8437V99.625H418.623V98.0312H425.998C425.998 97.3542 425.863 96.75 425.592 96.2187C425.326 95.6875 424.946 95.2682 424.451 94.9609C423.962 94.6536 423.383 94.5 422.717 94.5C421.982 94.5 421.347 94.6823 420.811 95.0469C420.279 95.4062 419.87 95.875 419.584 96.4531C419.298 97.0312 419.154 97.651 419.154 98.3125V99.375C419.154 100.281 419.311 101.049 419.623 101.68C419.941 102.305 420.381 102.781 420.943 103.109C421.506 103.432 422.16 103.594 422.904 103.594C423.389 103.594 423.826 103.526 424.217 103.391C424.613 103.25 424.954 103.042 425.24 102.766C425.527 102.484 425.748 102.135 425.904 101.719L427.686 102.219C427.498 102.823 427.183 103.354 426.74 103.812C426.298 104.266 425.751 104.62 425.1 104.875C424.449 105.125 423.717 105.25 422.904 105.25ZM440.396 105.281C439.636 105.281 438.946 105.138 438.326 104.852C437.706 104.56 437.214 104.141 436.85 103.594C436.485 103.042 436.303 102.375 436.303 101.594C436.303 100.906 436.438 100.349 436.709 99.9219C436.98 99.4896 437.342 99.151 437.795 98.9062C438.248 98.6615 438.748 98.4792 439.295 98.3594C439.847 98.2344 440.402 98.1354 440.959 98.0625C441.688 97.9687 442.279 97.8984 442.732 97.8516C443.191 97.7995 443.524 97.7135 443.732 97.5937C443.946 97.474 444.053 97.2656 444.053 96.9687V96.9062C444.053 96.1354 443.842 95.5365 443.42 95.1094C443.003 94.6823 442.37 94.4687 441.521 94.4687C440.641 94.4687 439.951 94.6615 439.451 95.0469C438.951 95.4323 438.6 95.8437 438.396 96.2812L436.646 95.6562C436.959 94.9271 437.376 94.3594 437.896 93.9531C438.423 93.5417 438.995 93.2552 439.615 93.0937C440.24 92.9271 440.855 92.8438 441.459 92.8438C441.844 92.8438 442.287 92.8906 442.787 92.9844C443.292 93.0729 443.779 93.2578 444.248 93.5391C444.722 93.8203 445.115 94.2448 445.428 94.8125C445.74 95.3802 445.896 96.1406 445.896 97.0938V105H444.053V103.375H443.959C443.834 103.635 443.626 103.914 443.334 104.211C443.042 104.508 442.654 104.76 442.17 104.969C441.686 105.177 441.094 105.281 440.396 105.281ZM440.678 103.625C441.407 103.625 442.021 103.482 442.521 103.195C443.027 102.909 443.407 102.539 443.662 102.086C443.923 101.633 444.053 101.156 444.053 100.656V98.9687C443.975 99.0625 443.803 99.1484 443.537 99.2266C443.277 99.2995 442.975 99.3646 442.631 99.4219C442.292 99.474 441.962 99.5208 441.639 99.5625C441.321 99.599 441.063 99.6302 440.865 99.6562C440.386 99.7187 439.938 99.8203 439.521 99.9609C439.11 100.096 438.777 100.302 438.521 100.578C438.271 100.849 438.146 101.219 438.146 101.687C438.146 102.328 438.383 102.812 438.857 103.141C439.337 103.464 439.943 103.625 440.678 103.625ZM449.262 109.5V93H451.043V94.9062H451.262C451.397 94.6979 451.585 94.4323 451.824 94.1094C452.069 93.7812 452.418 93.4896 452.871 93.2344C453.329 92.974 453.949 92.8438 454.73 92.8438C455.741 92.8438 456.632 93.0964 457.402 93.6016C458.173 94.1068 458.775 94.8229 459.207 95.75C459.639 96.6771 459.855 97.7708 459.855 99.0313C459.855 100.302 459.639 101.404 459.207 102.336C458.775 103.263 458.176 103.982 457.41 104.492C456.645 104.997 455.762 105.25 454.762 105.25C453.991 105.25 453.374 105.122 452.91 104.867C452.447 104.607 452.09 104.312 451.84 103.984C451.59 103.651 451.397 103.375 451.262 103.156H451.105V109.5H449.262ZM451.074 99C451.074 99.9062 451.207 100.706 451.473 101.398C451.738 102.086 452.126 102.625 452.637 103.016C453.147 103.401 453.772 103.594 454.512 103.594C455.283 103.594 455.926 103.391 456.441 102.984C456.962 102.573 457.353 102.021 457.613 101.328C457.879 100.63 458.012 99.8542 458.012 99C458.012 98.1562 457.882 97.3958 457.621 96.7187C457.366 96.0365 456.978 95.4974 456.457 95.1016C455.941 94.7005 455.293 94.5 454.512 94.5C453.762 94.5 453.132 94.6901 452.621 95.0703C452.111 95.4453 451.725 95.9714 451.465 96.6484C451.204 97.3203 451.074 98.1042 451.074 99ZM462.668 109.5V93H464.449V94.9062H464.668C464.803 94.6979 464.991 94.4323 465.23 94.1094C465.475 93.7812 465.824 93.4896 466.277 93.2344C466.736 92.974 467.355 92.8438 468.137 92.8438C469.147 92.8438 470.038 93.0964 470.809 93.6016C471.579 94.1068 472.181 94.8229 472.613 95.75C473.046 96.6771 473.262 97.7708 473.262 99.0313C473.262 100.302 473.046 101.404 472.613 102.336C472.181 103.263 471.582 103.982 470.816 104.492C470.051 104.997 469.168 105.25 468.168 105.25C467.397 105.25 466.78 105.122 466.316 104.867C465.853 104.607 465.496 104.312 465.246 103.984C464.996 103.651 464.803 103.375 464.668 103.156H464.512V109.5H462.668ZM464.48 99C464.48 99.9062 464.613 100.706 464.879 101.398C465.145 102.086 465.533 102.625 466.043 103.016C466.553 103.401 467.178 103.594 467.918 103.594C468.689 103.594 469.332 103.391 469.848 102.984C470.368 102.573 470.759 102.021 471.02 101.328C471.285 100.63 471.418 99.8542 471.418 99C471.418 98.1562 471.288 97.3958 471.027 96.7187C470.772 96.0365 470.384 95.4974 469.863 95.1016C469.348 94.7005 468.699 94.5 467.918 94.5C467.168 94.5 466.538 94.6901 466.027 95.0703C465.517 95.4453 465.132 95.9714 464.871 96.6484C464.611 97.3203 464.48 98.1042 464.48 99ZM484.574 95.6875L482.918 96.1562C482.814 95.8802 482.66 95.612 482.457 95.3516C482.259 95.0859 481.988 94.8672 481.645 94.6953C481.301 94.5234 480.861 94.4375 480.324 94.4375C479.59 94.4375 478.978 94.6068 478.488 94.9453C478.004 95.2786 477.762 95.7031 477.762 96.2187C477.762 96.6771 477.928 97.0391 478.262 97.3047C478.595 97.5703 479.116 97.7917 479.824 97.9687L481.605 98.4063C482.678 98.6667 483.478 99.0651 484.004 99.6016C484.53 100.133 484.793 100.818 484.793 101.656C484.793 102.344 484.595 102.958 484.199 103.5C483.809 104.042 483.262 104.469 482.559 104.781C481.855 105.094 481.038 105.25 480.105 105.25C478.882 105.25 477.868 104.984 477.066 104.453C476.264 103.922 475.757 103.146 475.543 102.125L477.293 101.687C477.46 102.333 477.775 102.818 478.238 103.141C478.707 103.464 479.319 103.625 480.074 103.625C480.934 103.625 481.616 103.443 482.121 103.078C482.632 102.708 482.887 102.266 482.887 101.75C482.887 101.333 482.741 100.984 482.449 100.703C482.158 100.417 481.71 100.203 481.105 100.062L479.105 99.5937C478.007 99.3333 477.199 98.9297 476.684 98.3828C476.173 97.8307 475.918 97.1406 475.918 96.3125C475.918 95.6354 476.108 95.0365 476.488 94.5156C476.874 93.9948 477.397 93.5859 478.059 93.2891C478.725 92.9922 479.48 92.8438 480.324 92.8438C481.512 92.8438 482.444 93.1042 483.121 93.625C483.803 94.1458 484.288 94.8333 484.574 95.6875ZM496.475 105L492.818 93H494.756L497.35 102.188H497.475L500.037 93H502.006L504.537 102.156H504.662L507.256 93H509.193L505.537 105H503.725L501.1 95.7812H500.912L498.287 105H496.475ZM511.631 105V93H513.475V105H511.631ZM512.568 91C512.209 91 511.899 90.8776 511.639 90.6328C511.383 90.388 511.256 90.0938 511.256 89.75C511.256 89.4063 511.383 89.112 511.639 88.8672C511.899 88.6224 512.209 88.5 512.568 88.5C512.928 88.5 513.235 88.6224 513.49 88.8672C513.751 89.112 513.881 89.4063 513.881 89.75C513.881 90.0938 513.751 90.388 513.49 90.6328C513.235 90.8776 512.928 91 512.568 91ZM522.07 93V94.5625H515.852V93H522.07ZM517.664 90.125H519.508V101.562C519.508 102.083 519.583 102.474 519.734 102.734C519.891 102.99 520.089 103.161 520.328 103.25C520.573 103.333 520.831 103.375 521.102 103.375C521.305 103.375 521.471 103.365 521.602 103.344C521.732 103.318 521.836 103.297 521.914 103.281L522.289 104.937C522.164 104.984 521.99 105.031 521.766 105.078C521.542 105.13 521.258 105.156 520.914 105.156C520.393 105.156 519.883 105.044 519.383 104.82C518.888 104.596 518.477 104.255 518.148 103.797C517.826 103.339 517.664 102.76 517.664 102.062V90.125ZM526.945 97.7812V105H525.102V89H526.945V94.875H527.102C527.383 94.2552 527.805 93.763 528.367 93.3984C528.935 93.0286 529.69 92.8438 530.633 92.8438C531.451 92.8438 532.167 93.0078 532.781 93.3359C533.396 93.6589 533.872 94.1562 534.211 94.8281C534.555 95.4948 534.727 96.3437 534.727 97.375V105H532.883V97.5C532.883 96.5469 532.635 95.8099 532.141 95.2891C531.651 94.763 530.971 94.5 530.102 94.5C529.497 94.5 528.956 94.6276 528.477 94.8828C528.003 95.138 527.628 95.5104 527.352 96C527.081 96.4896 526.945 97.0833 526.945 97.7812ZM539.443 105.125C539.058 105.125 538.727 104.987 538.451 104.711C538.175 104.435 538.037 104.104 538.037 103.719C538.037 103.333 538.175 103.003 538.451 102.727C538.727 102.451 539.058 102.312 539.443 102.312C539.829 102.312 540.16 102.451 540.436 102.727C540.712 103.003 540.85 103.333 540.85 103.719C540.85 103.974 540.785 104.208 540.654 104.422C540.529 104.635 540.36 104.807 540.146 104.937C539.938 105.063 539.704 105.125 539.443 105.125ZM539.443 96.2187C539.058 96.2187 538.727 96.0807 538.451 95.8047C538.175 95.5286 538.037 95.1979 538.037 94.8125C538.037 94.4271 538.175 94.0964 538.451 93.8203C538.727 93.5443 539.058 93.4063 539.443 93.4063C539.829 93.4063 540.16 93.5443 540.436 93.8203C540.712 94.0964 540.85 94.4271 540.85 94.8125C540.85 95.0677 540.785 95.3021 540.654 95.5156C540.529 95.7292 540.36 95.901 540.146 96.0312C539.938 96.1562 539.704 96.2187 539.443 96.2187Z" fill="#FF9B71"/>
<line x1="1" x2="1" y2="379" stroke="black" stroke-width="2"/>
<line x1="637" x2="637" y2="379" stroke="black" stroke-width="2"/>
<line x1="636" y1="1" y2="1" stroke="black" stroke-width="2"/>
<line x1="636" y1="380" y2="380" stroke="black" stroke-width="2"/>
<ellipse cx="616.693" cy="22" rx="5.67857" ry="5" fill="#82E800"/>
<ellipse cx="578.079" cy="22" rx="5.67857" ry="5" fill="#C90202"/>
<ellipse cx="597.386" cy="22" rx="5.67857" ry="5" fill="#CCEB0F"/>
</svg>
