<?xml version="1.0" standalone="no"?>
<!DOCTYPE svg PUBLIC "-//W3C//DTD SVG 20010904//EN"
 "http://www.w3.org/TR/2001/REC-SVG-20010904/DTD/svg10.dtd">
<svg version="1.0" xmlns="http://www.w3.org/2000/svg"
 width="1900.000000pt" height="3912.000000pt" viewBox="0 0 1900.000000 3912.000000"
 preserveAspectRatio="xMidYMid meet">

<g transform="translate(0.000000,3912.000000) scale(0.100000,-0.100000)"
fill="#000000" stroke="none">
<path d="M2769 38956 c-2 -2 -45 -7 -95 -10 -49 -4 -101 -9 -115 -11 -13 -3
-43 -7 -67 -10 -24 -3 -64 -10 -90 -16 -26 -6 -58 -13 -72 -15 -14 -3 -77 -20
-140 -39 -856 -248 -1525 -911 -1785 -1770 -38 -125 -81 -328 -90 -425 -4 -36
-9 -76 -11 -90 -2 -14 -4 -564 -4 -1222 l0 -1198 -65 0 c-42 0 -64 -4 -60 -10
3 -5 17 -10 31 -10 15 0 24 -6 24 -15 0 -17 -55 -21 -65 -5 -4 6 -10 8 -15 5
-11 -7 0 -229 11 -233 12 -5 12 -979 0 -984 -4 -1 -11 -54 -14 -115 l-6 -113
45 0 c54 0 63 -26 11 -33 -17 -2 -2 -5 35 -5 l67 -2 -2 -887 -2 -888 -63 -3
c-44 -2 -62 -7 -59 -15 2 -7 16 -13 30 -15 22 -3 27 -8 27 -33 0 -24 -4 -29
-25 -29 -14 0 -28 7 -31 15 -4 8 -11 15 -18 15 -14 0 -9 -413 5 -418 5 -2 9
-381 9 -913 0 -604 -3 -908 -10 -904 -7 4 -10 -57 -10 -177 0 -101 -3 -199 -6
-219 l-6 -36 46 4 c44 5 46 4 46 -21 0 -21 -5 -26 -24 -26 -14 0 -27 -4 -31
-10 -3 -5 21 -10 57 -12 l63 -3 3 -330 c1 -181 0 -340 -3 -352 -5 -21 -11 -23
-66 -23 -38 0 -58 -4 -54 -10 3 -5 17 -10 31 -10 21 0 24 -5 24 -35 0 -31 -3
-35 -25 -35 -14 0 -28 7 -31 15 -4 8 -11 15 -18 15 -14 0 -9 -413 5 -418 12
-5 12 -1809 0 -1814 -5 -1 -11 -99 -13 -216 l-3 -212 43 0 c38 0 42 -2 42 -25
0 -21 -5 -25 -30 -25 -16 0 -30 -4 -30 -10 0 -6 28 -10 65 -10 l65 0 0 -10982
c0 -6041 2 -10994 4 -11008 3 -14 7 -54 11 -90 15 -164 85 -439 160 -630 41
-105 137 -302 193 -395 173 -287 420 -558 697 -765 255 -189 613 -358 915
-430 19 -5 46 -11 60 -14 74 -19 202 -40 315 -53 92 -10 13747 -10 13845 0
149 16 232 31 390 68 262 63 609 221 847 385 225 156 463 389 629 614 170 231
337 575 403 830 12 47 26 96 31 110 5 14 12 48 16 75 3 28 8 53 10 56 1 3 6
28 9 55 4 27 12 76 18 109 8 43 12 3410 14 12133 l3 12072 31 0 c38 0 35 24
-4 28 -24 3 -27 8 -27 39 l0 35 46 -4 c41 -3 45 -1 40 17 -3 11 -6 156 -6 323
0 200 -3 301 -10 297 -7 -4 -10 446 -10 1344 0 843 4 1351 10 1353 14 5 18
628 4 628 -7 0 -14 -9 -17 -20 -3 -14 -14 -20 -31 -20 -24 0 -26 3 -26 45 0
41 2 45 24 45 20 0 36 16 36 36 0 2 -13 4 -30 4 l-30 0 -3 2868 c-3 1999 -7
2885 -15 2927 -5 33 -13 80 -16 105 -6 42 -9 60 -21 119 -38 191 -126 443
-220 632 -314 630 -865 1105 -1546 1333 -118 39 -335 88 -454 102 -27 3 -63 8
-80 12 -34 6 -13739 14 -13746 8z m12276 -16 c1072 -9 1075 -9 1377 -65 587
-108 1098 -327 1474 -631 321 -259 583 -668 737 -1149 96 -298 160 -644 171
-920 5 -126 3 -120 -15 60 -37 374 -148 748 -315 1065 -282 533 -763 965
-1372 1232 -274 120 -611 220 -922 272 -364 62 -92 57 -3705 66 -6707 15
-9693 16 -9785 2 -591 -89 -1082 -316 -1582 -731 -134 -111 -108 -79 47 59
509 450 949 646 1620 721 61 7 331 15 600 19 710 9 10488 10 11670 0z m1406
-407 c227 -44 360 -84 574 -171 80 -32 242 -120 348 -189 430 -278 774 -707
953 -1188 41 -113 109 -372 118 -455 4 -30 10 -82 14 -115 10 -81 9 -33612 -1
-33700 -25 -227 -80 -438 -172 -660 -123 -298 -353 -625 -587 -837 -274 -247
-554 -411 -893 -522 -68 -22 -131 -39 -268 -71 -207 -48 130 -46 -7027 -42
-5163 2 -6698 6 -6740 15 -30 7 -66 14 -80 16 -14 3 -45 7 -69 11 -24 4 -103
24 -175 45 -565 161 -1042 514 -1369 1010 -67 102 -189 339 -222 430 -67 186
-102 313 -126 455 -5 33 -12 71 -14 85 -3 14 -8 61 -12 105 -10 105 -10 33525
0 33634 6 71 19 154 42 276 15 75 63 237 110 364 30 83 116 256 178 359 102
171 211 308 371 468 253 251 483 404 808 535 89 36 260 91 323 103 11 2 27 7
35 10 17 6 56 12 205 35 39 6 86 12 105 14 19 2 3055 3 6745 3 l6710 -1 116
-22z m2356 -35585 c-3 -7 -5 -2 -5 12 0 14 2 19 5 13 2 -7 2 -19 0 -25z m-7
-108 c0 -5 -2 -10 -4 -10 -3 0 -8 5 -11 10 -3 6 -1 10 4 10 6 0 11 -4 11 -10z
m-13 -81 c2 -16 -1 -19 -9 -11 -5 5 -7 15 -4 21 10 15 12 14 13 -10z m-7 -73
c0 -3 -4 -8 -10 -11 -5 -3 -10 -1 -10 4 0 6 5 11 10 11 6 0 10 -2 10 -4z m-14
-53 c-10 -10 -19 5 -10 18 6 11 8 11 12 0 2 -7 1 -15 -2 -18z m-1 -32 c-10
-33 -17 -65 -18 -88 -1 -12 -5 -19 -10 -16 -6 3 -8 -8 -5 -26 2 -17 1 -31 -4
-31 -5 0 -6 -9 -3 -20 3 -11 2 -20 -3 -20 -5 0 -8 -11 -7 -25 2 -14 -1 -27 -5
-30 -5 -3 -6 -13 -3 -21 6 -17 -15 -36 -29 -28 -14 9 -8 26 7 20 13 -4 13 -2
5 14 -13 23 -13 33 -1 25 6 -3 10 3 9 12 0 10 3 29 6 43 4 14 9 41 12 60 3 19
10 36 14 38 5 2 6 10 3 18 -3 8 -2 22 3 32 9 22 11 28 13 47 0 8 6 15 12 15 6
0 8 -8 4 -19z m-71 -341 c-11 -48 -37 -125 -45 -134 -5 -6 -9 -18 -9 -28 0
-10 -4 -18 -9 -18 -6 0 -8 9 -6 19 2 14 -1 18 -10 15 -10 -4 -12 0 -8 15 3 12
10 21 15 21 5 0 7 4 4 8 -3 5 1 21 9 35 15 28 15 30 15 48 0 5 4 8 9 5 4 -3 7
5 6 19 -2 18 2 23 16 22 14 -1 17 -7 13 -27z m-79 -170 c-3 -6 1 -13 9 -16 20
-8 21 -24 1 -24 -8 0 -15 5 -15 12 0 19 -17 -3 -24 -32 -7 -25 -7 -25 6 -3 10
16 17 20 28 13 8 -5 11 -10 5 -10 -5 0 -10 -14 -11 -30 -1 -17 -8 -38 -16 -48
-9 -9 -13 -23 -11 -29 3 -7 0 -13 -6 -13 -6 0 -10 -3 -9 -7 5 -24 -53 -166
-73 -178 -6 -4 -8 -13 -5 -21 3 -8 0 -13 -7 -11 -7 1 -11 -7 -9 -20 2 -12 -2
-25 -9 -29 -8 -5 -9 -3 -4 6 5 9 4 11 -4 6 -6 -4 -9 -16 -6 -25 3 -10 -1 -24
-9 -31 -13 -10 -15 -7 -12 24 1 20 -1 36 -6 36 -11 0 -7 -62 5 -77 6 -9 6 -13
-2 -13 -6 0 -11 -7 -11 -15 0 -23 -16 -18 -17 5 -1 11 2 18 7 15 6 -3 7 1 3
10 -4 12 -8 13 -13 5 -8 -14 -19 -13 -40 3 -12 9 -13 9 -3 -3 19 -21 -4 -45
-25 -28 -13 11 -14 11 -7 -1 6 -10 4 -12 -6 -6 -11 7 -12 6 -2 -6 10 -12 9
-18 -7 -31 -10 -9 -21 -13 -25 -10 -3 4 -3 0 0 -9 4 -10 -5 -18 -27 -26 -30
-11 -31 -11 -14 2 11 8 24 15 29 15 4 0 6 4 2 9 -3 5 3 17 12 27 10 10 18 21
18 26 0 4 10 20 22 35 13 16 30 37 38 48 15 20 15 20 30 1 9 -13 15 -15 15 -7
0 8 -7 19 -15 25 -16 12 -7 36 52 129 l25 40 20 -24 c11 -13 17 -18 13 -11 -3
6 -2 12 4 12 5 0 12 -6 15 -12 2 -7 4 -3 2 9 -1 12 -6 26 -11 30 -4 5 -5 2 -1
-4 4 -8 1 -13 -9 -13 -9 0 -13 5 -10 10 4 6 3 10 -2 9 -22 -4 -25 3 -7 17 10
8 14 13 7 10 -6 -4 0 18 15 49 15 30 31 55 35 55 5 0 6 -8 3 -17 -4 -10 -4
-14 0 -10 4 4 12 2 19 -3 8 -7 12 -5 12 5 0 8 -4 12 -9 9 -4 -3 -8 0 -8 5 0
10 14 15 33 12 4 0 7 3 7 8 0 5 -11 8 -24 7 -13 0 -22 -5 -18 -10 3 -5 0 -6
-7 -2 -6 4 -9 12 -5 17 3 5 10 6 16 3 8 -5 9 -1 5 10 -7 19 30 106 45 106 5 0
6 -5 3 -10z m-221 -532 c1 -7 5 -19 9 -26 10 -15 -16 -27 -39 -18 -8 3 -12 2
-9 -4 3 -6 0 -10 -7 -10 -9 0 -10 -2 -1 -8 17 -11 18 -34 3 -64 -11 -24 -15
-26 -25 -12 -9 13 -11 11 -9 -15 1 -17 -2 -32 -7 -32 -39 -6 -52 -18 -38 -35
10 -12 9 -17 -1 -27 -8 -8 -11 -8 -7 -1 4 7 0 17 -8 24 -11 9 -12 16 -5 25 7
8 6 12 -4 12 -15 0 -16 -14 -1 -37 10 -17 14 -50 6 -50 -3 0 -19 -20 -34 -45
-30 -46 -48 -51 -46 -12 0 21 1 21 9 2 8 -18 9 -18 9 -2 1 10 6 15 11 12 18
-11 11 1 -12 21 -12 10 -18 14 -15 7 4 -6 2 -15 -4 -18 -6 -5 -8 -21 -4 -41 5
-30 3 -35 -20 -44 -35 -13 -45 -13 -39 4 3 7 16 12 30 10 13 -1 24 2 24 7 0 5
-3 9 -7 10 -5 0 -16 2 -25 4 -10 2 -18 -1 -18 -6 0 -6 -4 -7 -10 -4 -6 4 -7
-1 -3 -11 4 -12 2 -15 -8 -12 -8 3 -13 11 -11 17 1 8 -2 9 -9 5 -8 -5 -10 -2
-6 8 6 17 -15 18 -58 4 -17 -6 -17 -5 1 5 12 6 26 21 32 33 5 13 16 23 24 24
7 0 23 4 36 7 17 6 21 4 17 -8 -4 -8 -12 -14 -18 -13 -18 2 -20 -17 -2 -20 8
-1 15 3 15 9 0 6 6 3 13 -8 10 -13 16 -15 21 -6 5 7 5 15 2 18 -3 4 -6 0 -6
-8 0 -11 -2 -11 -10 1 -15 24 -12 32 13 26 12 -3 16 -3 10 0 -7 3 -13 10 -13
15 0 6 4 8 9 4 5 -3 12 -1 15 3 6 11 -51 8 -78 -3 -19 -8 -16 -3 81 103 28 32
33 34 50 22 15 -12 16 -12 6 0 -22 24 -14 40 26 58 42 19 95 74 83 87 -4 5 -2
5 5 1 6 -3 14 -2 18 4 4 6 11 8 16 4 5 -3 9 -2 8 3 -1 4 -1 12 0 17 1 13 12 1
15 -16z m-10 -73 c-4 -8 -7 -15 -9 -15 -2 0 -5 7 -9 15 -3 9 0 15 9 15 9 0 12
-6 9 -15z m-94 -135 c0 -5 -5 -10 -11 -10 -5 0 -7 5 -4 10 3 6 8 10 11 10 2 0
4 -4 4 -10z m-251 -168 c-10 -15 -34 -20 -59 -12 -4 1 47 23 68 29 1 1 -3 -7
-9 -17z m34 -22 c8 -11 17 -17 22 -12 5 4 5 1 0 -7 -7 -12 -10 -11 -22 4 -9
14 -13 15 -13 4 0 -12 -2 -12 -10 1 -5 8 -10 11 -10 5 0 -5 5 -17 10 -25 8
-13 10 -13 10 0 0 11 5 9 21 -7 23 -23 20 -37 -14 -55 -20 -10 -21 -10 -8 5 9
11 10 17 2 17 -10 0 -15 -13 -12 -32 0 -5 -27 -36 -61 -70 -34 -35 -59 -58
-55 -52 4 7 -3 12 -18 12 -23 0 -24 -2 -8 -14 17 -12 17 -13 -2 -20 -11 -4
-23 -12 -27 -18 -4 -6 -10 -7 -14 -3 -4 3 -1 13 6 22 7 9 10 18 6 22 -3 3 -6
1 -6 -6 0 -8 -8 -10 -22 -7 -13 3 -17 3 -10 0 6 -3 12 -12 12 -20 0 -9 -4 -13
-9 -9 -6 3 -8 -5 -6 -18 4 -17 -3 -29 -25 -45 -17 -13 -31 -18 -35 -12 -8 13
-25 3 -25 -13 0 -7 4 -6 10 3 5 8 10 10 10 4 0 -18 -12 -24 -30 -14 -12 6 -17
5 -17 -5 0 -8 5 -11 11 -8 6 4 5 -1 -3 -10 -14 -18 -36 -24 -26 -7 3 6 1 10
-6 10 -8 0 -7 5 2 18 13 15 12 16 -3 3 -10 -7 -15 -17 -12 -22 3 -5 -1 -9 -8
-9 -11 0 -11 -2 0 -9 19 -12 -11 -34 -47 -35 -16 -1 -27 -4 -25 -8 2 -3 1 -8
-3 -11 -5 -2 -1 -2 7 0 10 2 9 -2 -4 -12 -10 -8 -23 -12 -27 -9 -5 3 -9 0 -9
-6 0 -6 -5 -8 -12 -4 -7 5 -5 11 7 21 11 7 14 13 8 13 -7 0 -15 -4 -18 -10 -3
-5 -11 -10 -16 -10 -6 0 -7 4 -4 10 4 6 -1 7 -11 3 -13 -5 -14 -8 -5 -11 11
-4 11 -6 0 -14 -11 -7 -10 -8 3 -6 9 2 17 -1 17 -7 1 -5 -4 -10 -11 -10 -7 0
-23 -10 -37 -23 -25 -23 -46 -25 -46 -5 0 6 -4 15 -9 20 -5 5 -6 3 -2 -4 6
-12 -5 -18 -26 -14 -5 0 -8 -4 -8 -10 0 -6 9 -8 20 -4 24 8 27 -10 3 -19 -21
-8 -44 19 -36 42 3 11 2 13 -4 6 -4 -6 -15 -14 -23 -17 -12 -4 -11 -6 3 -6 10
-1 16 -5 13 -10 -3 -5 1 -12 10 -15 8 -3 12 -11 8 -18 -5 -8 -13 -4 -26 11
-10 13 -18 18 -18 13 0 -6 5 -14 10 -17 8 -5 7 -11 -1 -21 -8 -10 -15 -11 -24
-4 -10 8 -15 8 -21 -1 -5 -8 -3 -10 7 -4 11 6 11 5 2 -5 -13 -14 -37 -4 -27
12 4 7 2 8 -4 4 -6 -4 -9 -13 -6 -21 7 -18 -65 -50 -80 -35 -5 5 -7 11 -3 11
4 1 12 3 17 4 6 1 15 3 21 4 5 0 7 6 4 11 -3 6 -1 10 4 10 6 0 11 -4 11 -10 0
-5 5 -10 11 -10 8 0 9 4 0 13 -6 8 -7 17 -3 21 4 4 -6 2 -23 -5 -36 -16 -55
-38 -48 -56 4 -11 -9 -18 -19 -11 -2 1 -12 -4 -24 -10 -16 -8 -24 -8 -33 1 -7
7 -12 8 -11 2 5 -22 0 -36 -10 -30 -6 4 -7 11 -4 17 4 6 -2 6 -15 -1 -25 -14
-28 -23 -4 -14 11 4 14 3 9 -6 -5 -7 -16 -9 -28 -5 -14 4 -18 2 -14 -5 4 -6 0
-12 -8 -12 -24 -2 -29 -4 -53 -17 -13 -7 -23 -10 -23 -7 0 3 -9 1 -19 -5 -13
-7 -22 -7 -26 0 -8 13 -25 13 -25 -1 0 -5 5 -7 10 -4 6 3 10 2 10 -3 0 -11
-65 -27 -93 -24 -11 1 -15 -2 -12 -9 4 -6 1 -9 -6 -8 -8 2 -30 -2 -49 -9 -19
-6 -47 -13 -62 -16 -15 -3 -33 -8 -39 -12 -7 -4 -9 -3 -6 2 3 5 -3 10 -13 10
-10 0 -18 -5 -17 -11 1 -5 -9 -10 -23 -10 -14 0 -24 5 -23 12 2 8 -4 10 -14 6
-13 -5 -15 -2 -10 11 5 11 3 16 -5 14 -21 -7 -20 -26 1 -33 26 -8 27 -20 4
-22 -30 -3 -67 -11 -84 -18 -10 -3 -20 -2 -24 4 -3 6 -12 11 -18 11 -7 0 -6
-4 3 -10 8 -5 12 -10 8 -10 -5 0 -10 -1 -13 -1 -62 -17 -121 -27 -138 -24 -11
3 -26 0 -32 -5 -7 -6 -31 -8 -53 -6 -30 3 -40 1 -35 -7 4 -7 -2 -5 -12 3 -13
11 -16 11 -11 2 6 -11 0 -13 -25 -12 -19 1 -38 1 -44 -1 -26 -6 -102 -10 -363
-15 -229 -5 -286 -4 -299 7 -12 10 -15 10 -9 2 9 -17 -6 -17 -23 -1 -11 11
-12 10 -7 0 6 -10 -92 -12 -508 -12 -498 1 -516 2 -516 20 0 23 -16 35 -26 19
-4 -8 -3 -9 4 -5 8 5 12 -1 12 -16 0 -18 -2 -20 -10 -8 -8 13 -10 12 -10 -3 0
-16 -91 -17 -1820 -17 -1263 0 -1820 3 -1820 11 0 5 4 8 8 5 4 -2 14 0 22 5
13 9 13 10 0 8 -8 -1 -23 -1 -34 0 -16 1 -17 3 -5 19 13 15 12 16 -3 3 -11 -8
-25 -10 -35 -5 -23 9 -29 11 -50 13 -143 16 951 22 2567 14 8 0 563 2 1234 4
968 2 1222 1 1234 -9 11 -9 13 -9 9 -1 -5 8 3 11 28 9 19 -2 32 1 29 6 -3 5
20 8 53 7 33 -1 65 1 72 6 10 5 12 1 7 -16 -3 -13 -3 -18 0 -11 3 6 10 10 15
6 5 -3 12 2 15 10 3 9 10 16 16 16 5 0 6 -6 2 -12 -6 -10 -4 -10 8 0 9 7 31
15 49 17 19 2 57 7 84 11 l50 6 -20 -23 c-11 -13 -20 -25 -21 -27 -1 -2 -9 4
-18 13 -10 10 -24 14 -37 10 -25 -8 -18 -17 16 -21 14 -1 32 -8 40 -14 14 -12
17 -10 19 17 2 21 45 50 73 48 16 -1 30 2 33 5 3 4 26 10 53 13 26 3 52 9 59
13 7 5 8 3 3 -5 -6 -10 -3 -11 13 -2 27 14 35 14 27 -2 -4 -6 0 -4 7 5 8 9 32
19 54 21 21 3 48 8 59 11 16 6 15 4 -3 -6 -22 -14 -21 -14 14 -14 20 0 32 2
26 4 -7 2 -12 10 -12 18 0 12 4 12 19 2 11 -7 18 -15 15 -19 -2 -4 0 -10 6
-14 16 -10 12 -25 -7 -26 -15 0 -15 -2 2 -8 12 -5 26 -4 34 3 12 9 13 8 8 -6
-4 -12 -2 -15 9 -11 11 4 12 9 3 19 -6 8 -9 20 -6 28 3 8 -1 17 -9 20 -9 4
-12 11 -8 18 6 10 5 10 -7 1 -9 -7 -20 -8 -28 -4 -10 6 -5 11 17 16 18 3 37 3
43 -1 8 -5 9 -3 4 6 -6 10 -4 12 8 7 10 -3 17 -3 17 1 0 10 93 31 105 24 18
-12 34 -10 29 2 -6 16 150 71 168 60 7 -4 10 -3 5 1 -4 5 14 17 40 27 55 21
88 24 77 6 -4 -7 -3 -8 4 -4 6 4 9 13 6 20 -5 14 35 29 78 30 9 1 20 5 25 10
5 5 2 6 -6 1 -10 -5 -12 -4 -7 4 4 6 12 9 17 6 5 -4 9 -2 9 3 0 15 42 22 57
10 15 -12 18 -32 4 -23 -5 3 -12 1 -15 -4 -4 -5 2 -8 11 -7 20 3 28 22 14 31
-17 10 -13 28 5 21 8 -3 12 -2 9 4 -7 12 105 68 124 62 8 -3 11 0 8 6 -4 5 8
15 26 22 17 8 41 20 51 29 11 9 16 11 13 4 -4 -7 1 -14 14 -18 26 -9 37 1 19
18 -10 9 -11 9 -6 0 4 -7 2 -13 -3 -13 -6 0 -11 7 -11 15 0 8 5 15 12 15 6 0
26 11 45 26 18 14 33 22 33 19 0 -4 13 3 29 14 38 27 49 27 25 -1 l-19 -23 22
18 c12 11 19 25 16 33 -3 9 2 12 17 9 16 -3 20 0 16 10 -3 9 0 12 9 8 8 -3 12
-10 8 -16 -3 -6 -1 -7 5 -3 7 4 12 1 13 -6 0 -10 2 -10 6 -1 7 18 4 28 -7 28
-5 0 -10 5 -10 10 0 6 3 10 8 10 4 0 22 14 41 30 18 17 37 29 42 28 5 -2 9 1
9 7 0 5 10 9 23 7 16 -1 21 3 19 15 -3 17 53 65 70 60 5 -1 7 2 4 7 -9 15 14
25 27 12 8 -8 7 -11 -3 -11 -7 0 -11 -3 -7 -6 3 -3 16 1 29 11 16 11 18 15 6
13 -28 -5 -25 5 17 49 38 41 40 42 63 27 18 -12 22 -12 16 -3 -6 12 -5 12 8 1
14 -11 17 -10 23 7 8 26 20 27 38 1z m57 -29 c0 -14 -18 -23 -31 -15 -8 4 -7
9 2 15 18 11 29 11 29 0z m-16911 -226 c26 -24 113 -89 154 -114 21 -13 34
-27 30 -34 -4 -6 0 -8 10 -4 10 4 22 -1 30 -13 8 -11 17 -17 20 -13 4 3 7 1 7
-6 0 -7 5 -9 13 -5 6 4 9 4 5 -1 -4 -4 15 -19 43 -32 46 -21 50 -25 38 -41
-13 -16 -12 -16 5 -2 16 13 20 12 32 -4 7 -11 11 -23 7 -29 -3 -6 -1 -7 6 -3
6 4 9 12 6 17 -4 5 -3 9 1 9 10 0 79 -43 82 -52 2 -5 9 -5 15 -1 6 4 8 0 4
-10 -4 -11 -1 -17 9 -17 9 0 13 5 9 13 -4 6 3 1 15 -13 12 -14 18 -18 14 -10
-7 12 -2 11 19 -3 15 -9 27 -15 27 -12 0 13 64 -33 66 -48 3 -22 -8 -28 -26
-16 -13 8 -13 10 0 19 9 6 10 10 3 10 -6 0 -14 -4 -17 -9 -6 -10 -76 19 -76
31 0 4 -9 8 -20 8 -11 0 -20 3 -20 8 0 4 -20 18 -45 31 -32 17 -44 29 -40 39
5 12 3 13 -10 2 -13 -11 -20 -9 -41 11 -14 13 -29 24 -32 24 -4 0 -6 6 -6 13
2 10 -1 10 -12 1 -11 -9 -15 -8 -20 5 -3 9 -10 13 -15 10 -5 -3 -9 2 -9 11 0
9 -4 14 -9 11 -5 -3 -12 1 -15 10 -3 8 -10 12 -16 9 -5 -3 -10 -1 -10 5 0 6
-4 8 -10 5 -5 -3 -10 -2 -10 2 0 5 -12 16 -27 25 -16 9 -46 34 -68 55 -22 21
-56 48 -76 60 -37 24 -78 63 -64 63 5 0 15 -7 24 -15z m16641 -25 c0 -5 -5
-10 -11 -10 -5 0 -7 5 -4 10 3 6 8 10 11 10 2 0 4 -4 4 -10z m-15931 -412 c11
-11 12 -10 5 2 -7 13 -4 13 16 -1 14 -9 38 -19 53 -23 23 -5 27 -10 22 -29 -7
-20 -6 -21 6 -4 13 16 17 16 69 -4 30 -11 66 -22 80 -25 13 -3 27 -8 30 -12 5
-7 19 -12 47 -16 7 -1 16 -6 20 -11 4 -4 2 -5 -5 0 -11 6 -12 3 -3 -14 9 -17
9 -21 -2 -21 -8 0 -17 9 -20 21 -4 13 -10 18 -18 13 -8 -5 -10 -3 -4 6 5 9 4
11 -4 6 -6 -4 -9 -12 -5 -17 3 -5 10 -7 15 -4 5 4 9 1 9 -4 0 -13 -13 -14 -24
-3 -4 4 -11 7 -14 7 -4 1 -24 4 -45 9 -31 6 -38 11 -35 28 2 14 -3 22 -14 24
-10 1 -18 -2 -18 -7 0 -5 5 -9 11 -9 5 0 7 -5 3 -12 -6 -9 -9 -9 -12 0 -2 7
-9 9 -14 6 -6 -4 -8 -2 -5 3 4 6 -3 11 -16 11 -12 0 -35 5 -52 12 -16 6 -31
10 -32 8 -1 -2 -14 8 -29 22 -15 14 -24 20 -21 13 5 -7 0 -9 -13 -6 -11 3 -20
10 -20 15 0 5 6 6 13 2 8 -5 8 -2 -2 9 -11 14 -11 17 1 17 8 0 20 -6 27 -12z
m14571 -128 c0 -10 -4 -22 -10 -25 -5 -3 -7 0 -4 8 3 8 0 18 -5 22 -6 3 -9 11
-5 16 8 14 24 1 24 -21z m-14190 2 c0 -8 14 -12 53 -13 9 0 17 -4 17 -9 0 -4
8 -6 19 -3 10 2 25 -2 33 -11 11 -11 18 -12 27 -3 12 12 15 -2 3 -18 -10 -14
-32 -17 -32 -4 0 5 -4 7 -10 4 -6 -4 -7 1 -4 12 5 17 5 17 -9 0 -12 -14 -22
-17 -39 -11 -29 10 -34 11 -57 13 -20 1 -35 26 -25 42 7 11 24 12 24 1z m215
-52 c0 -2 55 -10 92 -12 12 -1 20 -5 17 -9 -2 -4 13 -5 33 -4 20 2 41 1 47 -2
9 -6 157 -15 215 -13 14 0 28 -6 33 -12 5 -9 8 -10 8 -1 0 8 42 12 148 12 145
1 149 1 160 -21 10 -20 11 -20 7 -3 -4 15 0 21 14 22 12 1 18 -5 17 -15 0 -9
6 -17 14 -18 8 0 10 1 3 3 -7 2 -9 11 -6 18 4 12 51 15 280 14 236 0 273 -3
262 -15 -8 -10 -9 -14 0 -14 6 0 14 7 17 15 5 13 79 15 568 16 308 1 1360 3
2337 6 1171 3 1779 1 1783 -5 4 -6 -4 -9 -19 -8 -13 2 -23 0 -20 -4 2 -4 -13
-17 -34 -28 l-39 -22 -1722 0 c-1482 0 -1721 2 -1717 14 3 8 0 17 -7 19 -10 4
-12 -1 -9 -14 3 -10 0 -19 -6 -19 -6 0 -11 5 -11 10 0 6 -5 10 -11 10 -5 0 -7
-4 -4 -10 6 -10 -1087 -15 -1097 -4 -3 3 -203 7 -444 9 -242 2 -477 6 -524 9
-47 3 -101 6 -120 7 -19 0 -41 6 -49 13 -12 9 -13 8 -6 -4 8 -13 7 -13 -8 -1
-10 8 -20 11 -24 7 -3 -3 -16 2 -27 11 -20 17 -20 17 -7 0 13 -17 12 -18 -14
-11 -16 4 -40 8 -54 9 -14 1 -35 3 -47 3 -12 1 -26 12 -33 25 -6 12 -9 14 -7
5 4 -14 0 -17 -19 -16 -24 2 -33 17 -19 31 6 5 49 2 49 -3z"/>
<path d="M7760 38163 c-14 -2 -54 -13 -90 -25 -199 -63 -365 -223 -437 -422
-14 -39 -17 -49 -28 -98 -8 -36 -9 -219 -1 -258 58 -274 256 -476 528 -539 67
-16 3569 -16 3636 0 272 63 470 265 528 539 8 39 7 222 -1 258 -11 49 -14 59
-28 98 -37 101 -81 171 -161 250 -88 87 -154 130 -268 172 l-73 27 -1790 1
c-984 1 -1801 0 -1815 -3z m3368 -754 c-2 -6 -8 -10 -13 -10 -5 0 -11 4 -13
10 -2 6 4 11 13 11 9 0 15 -5 13 -11z"/>
<path d="M18650 2200 c-9 -6 -10 -10 -3 -10 6 0 15 5 18 10 8 12 4 12 -15 0z"/>
<path d="M18632 2150 c-10 -16 -10 -20 1 -20 7 0 13 9 14 20 1 11 1 20 0 20
-1 0 -8 -9 -15 -20z"/>
<path d="M18590 2000 c-9 -6 -10 -10 -3 -10 6 0 15 5 18 10 8 12 4 12 -15 0z"/>
<path d="M18512 1893 c-8 -18 -8 -23 0 -15 7 7 17 8 29 2 13 -7 17 -6 15 5 -1
8 -6 18 -11 22 -4 4 -5 2 -1 -4 4 -7 3 -13 -3 -13 -5 0 -11 7 -13 15 -2 10 -7
5 -16 -12z"/>
<path d="M18493 1752 c1 -14 5 -18 11 -12 7 7 6 14 -1 21 -9 9 -12 7 -10 -9z"/>
<path d="M18440 1750 c0 -13 11 -13 30 0 12 8 11 10 -7 10 -13 0 -23 -4 -23
-10z"/>
<path d="M18445 1732 c-11 -4 -21 -13 -23 -21 -2 -11 2 -11 21 2 19 12 24 13
24 2 0 -8 -5 -13 -11 -12 -5 1 -12 -6 -14 -15 -2 -10 1 -18 7 -18 6 0 8 7 4
15 -3 10 -1 15 7 13 7 -2 14 7 16 20 4 23 2 24 -31 14z"/>
<path d="M18403 1685 c0 -8 4 -12 9 -9 5 3 6 10 3 15 -9 13 -12 11 -12 -6z"/>
<path d="M18367 1625 c-4 -8 -3 -16 1 -19 4 -3 9 4 9 15 2 23 -3 25 -10 4z"/>
<path d="M18134 1322 c4 -7 1 -12 -8 -12 -8 0 -17 -4 -20 -9 -4 -5 3 -7 14 -4
26 7 34 19 19 29 -8 4 -9 3 -5 -4z"/>
<path d="M17950 1126 c7 -7 13 -7 20 0 6 6 3 10 -10 10 -13 0 -16 -4 -10 -10z"/>
<path d="M17995 1120 c-3 -6 1 -7 9 -4 18 7 21 14 7 14 -6 0 -13 -4 -16 -10z"/>
<path d="M17916 1105 c-16 -12 -17 -15 -4 -15 9 0 18 7 22 15 7 18 6 18 -18 0z"/>
<path d="M17940 1089 c0 -5 5 -7 10 -4 6 3 10 8 10 11 0 2 -4 4 -10 4 -5 0
-10 -5 -10 -11z"/>
<path d="M18025 1090 c-3 -5 -1 -10 4 -10 6 0 11 5 11 10 0 6 -2 10 -4 10 -3
0 -8 -4 -11 -10z"/>
<path d="M17970 1070 c11 -7 11 -10 2 -10 -7 0 -10 -5 -6 -11 4 -8 9 -7 15 2
9 15 3 29 -14 29 -7 0 -6 -4 3 -10z"/>
<path d="M17917 1046 c-4 -10 -1 -13 8 -9 8 3 12 9 9 14 -7 12 -11 11 -17 -5z"/>
<path d="M17801 1016 c-8 -10 -9 -16 -1 -21 6 -3 8 -10 6 -14 -3 -4 1 -8 8 -8
14 0 16 14 3 34 -4 6 -1 14 5 16 8 4 9 6 2 6 -6 1 -17 -5 -23 -13z"/>
<path d="M17945 1010 c-3 -5 -1 -10 4 -10 6 0 11 5 11 10 0 6 -2 10 -4 10 -3
0 -8 -4 -11 -10z"/>
<path d="M17966 994 c-5 -14 -4 -15 9 -4 17 14 19 20 6 20 -5 0 -12 -7 -15
-16z"/>
<path d="M17935 970 c3 -5 8 -10 11 -10 2 0 4 5 4 10 0 6 -5 10 -11 10 -5 0
-7 -4 -4 -10z"/>
<path d="M17698 925 c-10 -13 -18 -27 -18 -32 0 -4 7 2 15 14 9 12 22 20 29
17 8 -3 17 1 22 8 4 7 4 10 -1 6 -4 -4 -13 -4 -19 1 -7 6 -17 1 -28 -14z"/>
<path d="M17728 903 c7 -3 16 -2 19 1 4 3 -2 6 -13 5 -11 0 -14 -3 -6 -6z"/>
<path d="M17755 879 c-4 -6 -5 -12 -2 -15 2 -3 7 2 10 11 7 17 1 20 -8 4z"/>
<path d="M17775 871 c-9 -15 28 -31 46 -20 12 7 12 9 -1 10 -8 1 -21 1 -29 0
-7 -2 -10 2 -6 8 3 6 4 11 1 11 -3 0 -7 -4 -11 -9z"/>
<path d="M17600 846 c0 -8 5 -18 12 -22 7 -5 8 -3 3 6 -6 10 -4 12 8 7 24 -9
21 0 -3 13 -16 8 -20 8 -20 -4z"/>
<path d="M17490 795 c-7 -9 -11 -17 -9 -20 3 -2 10 5 17 15 14 24 10 26 -8 5z"/>
<path d="M17466 752 c-2 -4 4 -8 15 -8 10 0 19 4 19 8 0 4 -6 8 -14 8 -8 0
-17 -4 -20 -8z"/>
<path d="M17296 678 c2 -3 -2 -9 -8 -11 -7 -3 2 -3 21 0 28 5 33 3 26 -8 -5
-8 -4 -10 0 -6 19 17 12 32 -15 32 -16 0 -26 -3 -24 -7z"/>
<path d="M17465 639 c-11 -16 -1 -19 13 -3 7 8 8 14 3 14 -5 0 -13 -5 -16 -11z"/>
<path d="M17130 599 c0 -5 5 -7 10 -4 6 3 10 8 10 11 0 2 -4 4 -10 4 -5 0 -10
-5 -10 -11z"/>
<path d="M17010 550 c-13 -9 -13 -10 0 -10 12 -1 12 -3 -2 -14 -23 -17 -23
-23 5 -36 20 -10 20 -10 5 3 -13 10 -14 17 -6 25 7 7 13 19 14 27 3 18 3 17
-16 5z"/>
<path d="M16898 508 c-9 -5 -6 -7 9 -5 12 2 25 6 28 8 8 9 -23 6 -37 -3z"/>
<path d="M16953 498 c-2 -18 0 -20 7 -8 9 14 14 7 11 -13 -1 -5 3 -5 9 -2 8 5
6 13 -6 26 -21 23 -19 24 -21 -3z"/>
<path d="M17046 478 c3 -4 -3 -8 -13 -9 -10 0 -13 -3 -6 -6 7 -2 22 2 34 11
22 15 22 15 1 13 -11 0 -18 -5 -16 -9z"/>
<path d="M16768 451 c5 -14 4 -14 -13 -1 -11 9 -16 10 -11 3 4 -8 2 -13 -7
-13 -8 0 -20 -7 -27 -15 -11 -13 -9 -14 16 0 25 13 29 13 37 -1 12 -20 1 -30
-16 -15 -11 9 -17 8 -26 -2 -14 -18 -2 -30 16 -16 10 9 13 8 13 -1 0 -9 3 -10
13 -1 8 6 17 8 20 4 4 -3 -1 -13 -11 -21 -10 -8 -6 -8 11 3 24 14 31 14 45 3
15 -11 15 -11 5 3 -7 9 -9 19 -5 24 4 4 -3 3 -15 -4 -26 -13 -31 -7 -28 35 1
19 -3 31 -11 31 -7 0 -10 -7 -6 -16z"/>
<path d="M17000 465 c0 -5 5 -17 10 -25 5 -8 10 -10 10 -5 0 6 -5 17 -10 25
-5 8 -10 11 -10 5z"/>
<path d="M16955 440 c-3 -6 1 -7 9 -4 18 7 21 14 7 14 -6 0 -13 -4 -16 -10z"/>
<path d="M16974 424 c-18 -14 -18 -15 4 -4 12 6 22 13 22 15 0 8 -5 6 -26 -11z"/>
<path d="M16853 395 c0 -8 4 -12 9 -9 5 3 6 10 3 15 -9 13 -12 11 -12 -6z"/>
<path d="M16518 373 c7 -3 16 -2 19 1 4 3 -2 6 -13 5 -11 0 -14 -3 -6 -6z"/>
<path d="M16726 358 c3 -5 10 -6 15 -3 13 9 11 12 -6 12 -8 0 -12 -4 -9 -9z"/>
<path d="M16425 323 c8 -18 20 -33 26 -33 6 0 6 4 -1 13 -6 6 -17 21 -26 32
-13 17 -12 15 1 -12z"/>
<path d="M16370 328 c0 -6 -8 -20 -17 -30 -16 -18 -16 -18 3 -12 17 7 18 6 4
-12 -9 -12 -9 -15 -1 -7 7 6 21 9 30 6 13 -4 13 -2 -1 7 -10 6 -18 16 -18 22
0 6 7 5 18 -3 14 -11 15 -11 5 1 -15 17 -17 34 -3 25 6 -3 10 -1 10 4 0 6 -7
11 -15 11 -8 0 -15 -5 -15 -12z"/>
<path d="M16345 320 c-4 -6 -11 -7 -17 -4 -7 4 -8 2 -4 -5 6 -9 11 -9 22 0 14
11 18 19 10 19 -3 0 -8 -5 -11 -10z"/>
<path d="M16093 289 c-1 -10 1 -18 5 -18 29 5 34 -2 17 -21 -10 -11 -14 -20
-9 -20 5 0 17 12 28 26 14 20 15 28 7 37 -9 9 -11 8 -5 -6 5 -13 2 -16 -10
-11 -9 3 -14 10 -11 14 3 4 -1 10 -8 13 -7 3 -14 -3 -14 -14z"/>
<path d="M16055 287 c-17 -21 -15 -35 3 -32 9 1 21 -3 25 -9 6 -7 7 -6 4 4 -2
8 -10 14 -16 13 -15 -4 -14 10 1 25 7 7 8 12 3 12 -6 -1 -14 -6 -20 -13z"/>
<path d="M15907 283 c-9 -8 12 -33 27 -33 6 0 3 5 -7 11 -9 6 -15 14 -12 20 7
10 2 12 -8 2z"/>
<path d="M15745 260 c3 -5 8 -10 11 -10 2 0 4 5 4 10 0 6 -5 10 -11 10 -5 0
-7 -4 -4 -10z"/>
<path d="M15370 240 c0 -5 5 -10 11 -10 5 0 7 5 4 10 -3 6 -8 10 -11 10 -2 0
-4 -4 -4 -10z"/>
<path d="M15411 228 c5 -10 11 -18 12 -18 2 0 3 8 3 18 0 10 -6 19 -13 19 -8
0 -9 -6 -2 -19z"/>
<path d="M14365 230 c-16 -7 -17 -9 -3 -9 9 -1 20 4 23 9 7 11 7 11 -20 0z"/>
<path d="M16037 229 c7 -7 15 -10 18 -7 3 3 -2 9 -12 12 -14 6 -15 5 -6 -5z"/>
<path d="M12350 210 c8 -5 20 -10 25 -10 6 0 3 5 -5 10 -8 5 -19 10 -25 10 -5
0 -3 -5 5 -10z"/>
<path d="M1360 786 c0 -2 8 -10 18 -17 15 -13 16 -12 3 4 -13 16 -21 21 -21
13z"/>
<path d="M1660 596 c0 -3 9 -10 20 -16 11 -6 20 -8 20 -6 0 3 -9 10 -20 16
-11 6 -20 8 -20 6z"/>
<path d="M1784 518 c-4 -7 -3 -10 1 -5 5 4 19 -2 31 -14 21 -19 22 -20 20 -3
-2 11 -7 19 -12 19 -5 0 -14 4 -21 8 -6 4 -15 2 -19 -5z"/>
<path d="M1963 435 c0 -7 10 -10 24 -7 13 2 23 6 23 7 0 1 -10 5 -23 7 -14 3
-24 0 -24 -7z"/>
<path d="M2135 370 c-3 -6 1 -7 9 -4 18 7 21 14 7 14 -6 0 -13 -4 -16 -10z"/>
<path d="M2316 322 c-3 -4 4 -9 15 -9 23 -2 25 3 4 10 -8 4 -16 3 -19 -1z"/>
<path d="M2560 270 c-13 -8 -12 -10 3 -10 9 0 17 5 17 10 0 12 -1 12 -20 0z"/>
<path d="M2926 232 c-3 -5 1 -9 9 -9 8 0 12 4 9 9 -3 4 -7 8 -9 8 -2 0 -6 -4
-9 -8z"/>
<path d="M3007 229 c7 -7 15 -10 18 -7 3 3 -2 9 -12 12 -14 6 -15 5 -6 -5z"/>
<path d="M3895 220 c-3 -5 -1 -10 4 -10 6 0 11 5 11 10 0 6 -2 10 -4 10 -3 0
-8 -4 -11 -10z"/>
</g>
</svg>
