<svg width="638" height="381" viewBox="0 0 638 381" fill="none" xmlns="http://www.w3.org/2000/svg">
<g filter="url(#filter0_b_12_4)">
<rect y="44" width="636" height="82" fill="white"/>
</g>
<g filter="url(#filter1_b_12_4)">
<rect y="290" width="636" height="89" fill="white"/>
</g>
<g filter="url(#filter2_b_12_4)">
<rect y="208" width="636" height="82" fill="white"/>
</g>
<g filter="url(#filter3_b_12_4)">
<rect y="126" width="636" height="82" fill="white"/>
</g>
<g filter="url(#filter4_b_12_4)">
<rect width="636" height="44" fill="#3D7CEB"/>
</g>
<g filter="url(#filter5_b_12_4)">
<line y1="43.5" x2="636" y2="43.5" stroke="black"/>
</g>
<g filter="url(#filter6_b_12_4)">
<line x1="52.727" y1="13.6866" x2="35.727" y2="31.6866" stroke="black" stroke-width="2"/>
<line y1="-1" x2="22.3585" y2="-1" transform="matrix(-0.894602 -0.446864 0.541611 -0.840629 30.002 30.9694)" stroke="black" stroke-width="2"/>
<line y1="-1" x2="20.7837" y2="-1" transform="matrix(0.90192 -0.431904 0.525508 0.850789 10.0661 22.9765)" stroke="black" stroke-width="2"/>
<line y1="-1" x2="22.2208" y2="-1" transform="matrix(0.868875 0.495031 -0.592171 0.805813 56.5643 13)" stroke="black" stroke-width="2"/>
<line y1="-1" x2="20.8989" y2="-1" transform="matrix(-0.923834 0.382794 -0.471357 -0.881942 75.8714 22)" stroke="black" stroke-width="2"/>
</g>
<g filter="url(#filter7_b_12_4)">
<path d="M74.7813 66V68.5H67.375V66H74.7813ZM69.0703 78V65.1328C69.0703 64.263 69.2396 63.5417 69.5781 62.9687C69.9219 62.3958 70.3906 61.9661 70.9844 61.6797C71.5781 61.3932 72.2526 61.25 73.0078 61.25C73.5182 61.25 73.9844 61.2891 74.4063 61.3672C74.8333 61.4453 75.151 61.5156 75.3594 61.5781L74.7656 64.0781C74.6354 64.0365 74.474 63.9974 74.2812 63.9609C74.0937 63.9245 73.901 63.9062 73.7031 63.9062C73.2135 63.9062 72.8724 64.0208 72.6797 64.25C72.487 64.474 72.3906 64.7891 72.3906 65.1953V78H69.0703ZM84.5098 72.8906V66H87.8379V78H84.6426V75.8203H84.5176C84.2467 76.5234 83.7962 77.0885 83.166 77.5156C82.541 77.9427 81.778 78.1563 80.877 78.1563C80.0749 78.1563 79.3691 77.974 78.7598 77.6094C78.1504 77.2448 77.6738 76.7266 77.3301 76.0547C76.9915 75.3828 76.8197 74.5781 76.8145 73.6406V66H80.1426V73.0469C80.1478 73.7552 80.3379 74.3151 80.7129 74.7266C81.0879 75.138 81.5905 75.3437 82.2207 75.3437C82.6217 75.3437 82.9967 75.2526 83.3457 75.0703C83.6947 74.8828 83.9759 74.6068 84.1895 74.2422C84.4082 73.8776 84.515 73.4271 84.5098 72.8906ZM93.8281 71.0625V78H90.5V66H93.6719V68.1172H93.8125C94.0781 67.4193 94.5234 66.8672 95.1484 66.4609C95.7734 66.0495 96.5312 65.8438 97.4219 65.8438C98.2552 65.8438 98.9818 66.026 99.6016 66.3906C100.221 66.7552 100.703 67.276 101.047 67.9531C101.391 68.625 101.563 69.4271 101.563 70.3594V78H98.2344V70.9531C98.2396 70.2187 98.0521 69.6458 97.6719 69.2344C97.2917 68.8177 96.7682 68.6094 96.1016 68.6094C95.6536 68.6094 95.2578 68.7057 94.9141 68.8984C94.5755 69.0911 94.3099 69.3724 94.1172 69.7422C93.9297 70.1068 93.8333 70.5469 93.8281 71.0625ZM109.607 78.2344C108.378 78.2344 107.321 77.974 106.436 77.4531C105.555 76.9271 104.878 76.1979 104.404 75.2656C103.936 74.3333 103.701 73.2604 103.701 72.0469C103.701 70.8177 103.938 69.7396 104.412 68.8125C104.891 67.8802 105.571 67.1536 106.451 66.6328C107.331 66.1068 108.378 65.8438 109.592 65.8438C110.639 65.8438 111.555 66.0339 112.342 66.4141C113.128 66.7943 113.751 67.3281 114.209 68.0156C114.667 68.7031 114.92 69.5104 114.967 70.4375H111.826C111.738 69.8385 111.503 69.3568 111.123 68.9922C110.748 68.6224 110.256 68.4375 109.646 68.4375C109.131 68.4375 108.68 68.5781 108.295 68.8594C107.915 69.1354 107.618 69.5391 107.404 70.0703C107.191 70.6016 107.084 71.2448 107.084 72C107.084 72.7656 107.188 73.4167 107.396 73.9531C107.61 74.4896 107.91 74.8984 108.295 75.1797C108.68 75.4609 109.131 75.6016 109.646 75.6016C110.027 75.6016 110.368 75.5234 110.67 75.3672C110.977 75.2109 111.23 74.9844 111.428 74.6875C111.631 74.3854 111.764 74.0234 111.826 73.6016H114.967C114.915 74.5182 114.665 75.3255 114.217 76.0234C113.774 76.7161 113.162 77.2578 112.381 77.6484C111.6 78.0391 110.675 78.2344 109.607 78.2344ZM123.48 66V68.5H116.254V66H123.48ZM117.895 63.125H121.223V74.3125C121.223 74.6198 121.27 74.8594 121.363 75.0312C121.457 75.1979 121.587 75.3151 121.754 75.3828C121.926 75.4505 122.124 75.4844 122.348 75.4844C122.504 75.4844 122.66 75.4714 122.816 75.4453C122.973 75.4141 123.092 75.3906 123.176 75.375L123.699 77.8516C123.533 77.9036 123.298 77.9635 122.996 78.0313C122.694 78.1042 122.327 78.1484 121.895 78.1641C121.092 78.1953 120.389 78.0885 119.785 77.8437C119.186 77.599 118.72 77.2187 118.387 76.7031C118.053 76.1875 117.889 75.5365 117.895 74.75V63.125ZM125.648 78V66H128.977V78H125.648ZM127.32 64.4531C126.826 64.4531 126.401 64.2891 126.047 63.9609C125.698 63.6276 125.523 63.2292 125.523 62.7656C125.523 62.3073 125.698 61.9141 126.047 61.5859C126.401 61.2526 126.826 61.0859 127.32 61.0859C127.815 61.0859 128.237 61.2526 128.586 61.5859C128.94 61.9141 129.117 62.3073 129.117 62.7656C129.117 63.2292 128.94 63.6276 128.586 63.9609C128.237 64.2891 127.815 64.4531 127.32 64.4531ZM137.064 78.2344C135.851 78.2344 134.801 77.9766 133.916 77.4609C133.036 76.9401 132.356 76.2161 131.877 75.2891C131.398 74.3568 131.158 73.276 131.158 72.0469C131.158 70.8073 131.398 69.724 131.877 68.7969C132.356 67.8646 133.036 67.1406 133.916 66.625C134.801 66.1042 135.851 65.8438 137.064 65.8438C138.278 65.8438 139.325 66.1042 140.205 66.625C141.09 67.1406 141.773 67.8646 142.252 68.7969C142.731 69.724 142.971 70.8073 142.971 72.0469C142.971 73.276 142.731 74.3568 142.252 75.2891C141.773 76.2161 141.09 76.9401 140.205 77.4609C139.325 77.9766 138.278 78.2344 137.064 78.2344ZM137.08 75.6562C137.632 75.6562 138.093 75.5 138.463 75.1875C138.833 74.8698 139.111 74.4375 139.299 73.8906C139.492 73.3437 139.588 72.7214 139.588 72.0234C139.588 71.3255 139.492 70.7031 139.299 70.1562C139.111 69.6094 138.833 69.1771 138.463 68.8594C138.093 68.5417 137.632 68.3828 137.08 68.3828C136.523 68.3828 136.054 68.5417 135.674 68.8594C135.299 69.1771 135.015 69.6094 134.822 70.1562C134.635 70.7031 134.541 71.3255 134.541 72.0234C134.541 72.7214 134.635 73.3437 134.822 73.8906C135.015 74.4375 135.299 74.8698 135.674 75.1875C136.054 75.5 136.523 75.6562 137.08 75.6562ZM148.463 71.0625V78H145.135V66H148.307V68.1172H148.447C148.713 67.4193 149.158 66.8672 149.783 66.4609C150.408 66.0495 151.166 65.8438 152.057 65.8438C152.89 65.8438 153.617 66.026 154.236 66.3906C154.856 66.7552 155.338 67.276 155.682 67.9531C156.025 68.625 156.197 69.4271 156.197 70.3594V78H152.869V70.9531C152.874 70.2187 152.687 69.6458 152.307 69.2344C151.926 68.8177 151.403 68.6094 150.736 68.6094C150.288 68.6094 149.893 68.7057 149.549 68.8984C149.21 69.0911 148.945 69.3724 148.752 69.7422C148.564 70.1068 148.468 70.5469 148.463 71.0625Z" fill="#4695F1"/>
<path d="M167.609 78L164.219 66H167.102L169.211 74.4375H169.32L171.477 66H174.328L176.484 74.3906H176.602L178.68 66H181.57L178.172 78H175.227L172.977 69.8906H172.813L170.563 78H167.609ZM188.514 78.2344C187.311 78.2344 186.271 77.9844 185.396 77.4844C184.527 76.9792 183.857 76.2656 183.389 75.3437C182.92 74.4167 182.686 73.3255 182.686 72.0703C182.686 70.8359 182.92 69.7526 183.389 68.8203C183.863 67.8828 184.524 67.1536 185.373 66.6328C186.222 66.1068 187.219 65.8438 188.365 65.8438C189.105 65.8438 189.803 65.9635 190.459 66.2031C191.12 66.4375 191.704 66.8021 192.209 67.2969C192.719 67.7917 193.12 68.4219 193.412 69.1875C193.704 69.9479 193.85 70.8542 193.85 71.9062V72.7734H184.014V70.8672H191.139C191.133 70.3255 191.016 69.8437 190.787 69.4219C190.558 68.9948 190.238 68.6589 189.826 68.4141C189.42 68.1693 188.946 68.0469 188.404 68.0469C187.826 68.0469 187.318 68.1875 186.881 68.4687C186.443 68.7448 186.102 69.1094 185.857 69.5625C185.618 70.0104 185.495 70.5026 185.49 71.0391V72.7031C185.49 73.401 185.618 74 185.873 74.5C186.128 74.9948 186.485 75.375 186.943 75.6406C187.402 75.901 187.938 76.0312 188.553 76.0312C188.964 76.0312 189.337 75.974 189.67 75.8594C190.003 75.7396 190.292 75.5651 190.537 75.3359C190.782 75.1068 190.967 74.8229 191.092 74.4844L193.732 74.7812C193.566 75.4792 193.248 76.0885 192.779 76.6094C192.316 77.125 191.722 77.526 190.998 77.8125C190.274 78.0937 189.446 78.2344 188.514 78.2344ZM196.367 78V62H199.195V67.9844H199.313C199.458 67.6927 199.664 67.3828 199.93 67.0547C200.195 66.7214 200.555 66.4375 201.008 66.2031C201.461 65.9635 202.039 65.8438 202.742 65.8438C203.669 65.8438 204.505 66.0807 205.25 66.5547C206 67.0234 206.594 67.7187 207.031 68.6406C207.474 69.5573 207.695 70.6823 207.695 72.0156C207.695 73.3333 207.479 74.4531 207.047 75.375C206.615 76.2969 206.026 77 205.281 77.4844C204.536 77.9688 203.693 78.2109 202.75 78.2109C202.063 78.2109 201.492 78.0964 201.039 77.8672C200.586 77.638 200.221 77.362 199.945 77.0391C199.674 76.7109 199.464 76.401 199.313 76.1094H199.148V78H196.367ZM199.141 72C199.141 72.776 199.25 73.4557 199.469 74.0391C199.693 74.6224 200.013 75.0781 200.43 75.4062C200.852 75.7292 201.362 75.8906 201.961 75.8906C202.586 75.8906 203.109 75.724 203.531 75.3906C203.953 75.0521 204.271 74.5911 204.484 74.0078C204.703 73.4193 204.813 72.75 204.813 72C204.813 71.2552 204.706 70.5937 204.492 70.0156C204.279 69.4375 203.961 68.9844 203.539 68.6562C203.117 68.3281 202.591 68.1641 201.961 68.1641C201.357 68.1641 200.844 68.3229 200.422 68.6406C200 68.9583 199.68 69.4036 199.461 69.9766C199.247 70.5495 199.141 71.224 199.141 72ZM218.92 66.3984C218.847 65.7161 218.54 65.1849 217.998 64.8047C217.462 64.4245 216.764 64.2344 215.904 64.2344C215.3 64.2344 214.782 64.3255 214.35 64.5078C213.917 64.6901 213.587 64.9375 213.357 65.25C213.128 65.5625 213.011 65.9193 213.006 66.3203C213.006 66.6536 213.081 66.9427 213.232 67.1875C213.389 67.4323 213.6 67.6406 213.865 67.8125C214.131 67.9792 214.425 68.1198 214.748 68.2344C215.071 68.349 215.396 68.4453 215.725 68.5234L217.225 68.8984C217.829 69.0391 218.41 69.2292 218.967 69.4687C219.529 69.7083 220.032 70.0104 220.475 70.375C220.923 70.7396 221.277 71.1797 221.537 71.6953C221.798 72.2109 221.928 72.8151 221.928 73.5078C221.928 74.4453 221.688 75.2708 221.209 75.9844C220.73 76.6927 220.037 77.2474 219.131 77.6484C218.23 78.0443 217.139 78.2422 215.857 78.2422C214.613 78.2422 213.532 78.0495 212.615 77.6641C211.704 77.2786 210.99 76.7161 210.475 75.9766C209.964 75.237 209.688 74.3359 209.646 73.2734H212.498C212.54 73.8307 212.712 74.2943 213.014 74.6641C213.316 75.0339 213.709 75.3099 214.193 75.4922C214.683 75.6745 215.23 75.7656 215.834 75.7656C216.464 75.7656 217.016 75.6719 217.49 75.4844C217.969 75.2917 218.344 75.026 218.615 74.6875C218.886 74.3437 219.024 73.9427 219.029 73.4844C219.024 73.0677 218.902 72.724 218.662 72.4531C218.423 72.1771 218.087 71.9479 217.654 71.7656C217.227 71.5781 216.727 71.4115 216.154 71.2656L214.334 70.7969C213.016 70.4583 211.975 69.9453 211.209 69.2578C210.449 68.5651 210.068 67.6458 210.068 66.5C210.068 65.5573 210.324 64.7318 210.834 64.0234C211.35 63.3151 212.05 62.7656 212.936 62.375C213.821 61.9792 214.824 61.7812 215.943 61.7812C217.079 61.7812 218.074 61.9792 218.928 62.375C219.787 62.7656 220.462 63.3099 220.951 64.0078C221.441 64.7005 221.693 65.4974 221.709 66.3984H218.92ZM226.965 74.2344L226.957 70.8203H227.41L231.723 66H235.027L229.723 71.9062H229.137L226.965 74.2344ZM224.387 78V62H227.215V78H224.387ZM231.918 78L228.012 72.5391L229.918 70.5469L235.301 78H231.918ZM236.912 78V66H239.74V78H236.912ZM238.334 64.2969C237.886 64.2969 237.501 64.1484 237.178 63.8516C236.855 63.5495 236.693 63.1875 236.693 62.7656C236.693 62.3385 236.855 61.9766 237.178 61.6797C237.501 61.3776 237.886 61.2266 238.334 61.2266C238.787 61.2266 239.173 61.3776 239.49 61.6797C239.813 61.9766 239.975 62.3385 239.975 62.7656C239.975 63.1875 239.813 63.5495 239.49 63.8516C239.173 64.1484 238.787 64.2969 238.334 64.2969ZM245.477 62V78H242.648V62H245.477ZM251.213 62V78H248.385V62H251.213ZM263.605 69.1719L261.027 69.4531C260.954 69.1927 260.827 68.9479 260.645 68.7188C260.467 68.4896 260.228 68.3047 259.926 68.1641C259.624 68.0234 259.254 67.9531 258.816 67.9531C258.228 67.9531 257.733 68.0807 257.332 68.3359C256.936 68.5911 256.741 68.9219 256.746 69.3281C256.741 69.6771 256.868 69.9609 257.129 70.1797C257.395 70.3984 257.832 70.5781 258.441 70.7188L260.488 71.1562C261.624 71.401 262.467 71.7891 263.02 72.3203C263.577 72.8516 263.858 73.5469 263.863 74.4062C263.858 75.1615 263.637 75.8281 263.199 76.4062C262.767 76.9792 262.165 77.4271 261.395 77.75C260.624 78.0729 259.738 78.2344 258.738 78.2344C257.27 78.2344 256.087 77.9271 255.191 77.3125C254.296 76.6927 253.762 75.8307 253.59 74.7266L256.348 74.4609C256.473 75.0026 256.738 75.4115 257.145 75.6875C257.551 75.9635 258.079 76.1016 258.73 76.1016C259.402 76.1016 259.941 75.9635 260.348 75.6875C260.759 75.4115 260.965 75.0703 260.965 74.6641C260.965 74.3203 260.832 74.0365 260.566 73.8125C260.306 73.5885 259.9 73.4167 259.348 73.2969L257.301 72.8672C256.15 72.6276 255.298 72.224 254.746 71.6562C254.194 71.0833 253.921 70.3594 253.926 69.4844C253.921 68.7448 254.121 68.1042 254.527 67.5625C254.939 67.0156 255.509 66.5937 256.238 66.2969C256.973 65.9948 257.819 65.8438 258.777 65.8438C260.184 65.8438 261.29 66.1432 262.098 66.7422C262.91 67.3411 263.413 68.151 263.605 69.1719ZM194.646 89V105H192.803V89H194.646ZM202.898 105.25C201.815 105.25 200.865 104.992 200.047 104.477C199.234 103.961 198.599 103.24 198.141 102.312C197.688 101.385 197.461 100.302 197.461 99.0625C197.461 97.8125 197.688 96.7214 198.141 95.7891C198.599 94.8568 199.234 94.1328 200.047 93.6172C200.865 93.1016 201.815 92.8438 202.898 92.8438C203.982 92.8438 204.93 93.1016 205.742 93.6172C206.56 94.1328 207.195 94.8568 207.648 95.7891C208.107 96.7214 208.336 97.8125 208.336 99.0625C208.336 100.302 208.107 101.385 207.648 102.312C207.195 103.24 206.56 103.961 205.742 104.477C204.93 104.992 203.982 105.25 202.898 105.25ZM202.898 103.594C203.721 103.594 204.398 103.383 204.93 102.961C205.461 102.539 205.854 101.984 206.109 101.297C206.365 100.609 206.492 99.8646 206.492 99.0625C206.492 98.2604 206.365 97.513 206.109 96.8203C205.854 96.1276 205.461 95.5677 204.93 95.1406C204.398 94.7135 203.721 94.5 202.898 94.5C202.076 94.5 201.398 94.7135 200.867 95.1406C200.336 95.5677 199.943 96.1276 199.688 96.8203C199.432 97.513 199.305 98.2604 199.305 99.0625C199.305 99.8646 199.432 100.609 199.688 101.297C199.943 101.984 200.336 102.539 200.867 102.961C201.398 103.383 202.076 103.594 202.898 103.594ZM215.994 109.75C215.104 109.75 214.338 109.635 213.697 109.406C213.057 109.182 212.523 108.885 212.096 108.516C211.674 108.151 211.338 107.76 211.088 107.344L212.557 106.313C212.723 106.531 212.934 106.781 213.189 107.062C213.445 107.349 213.794 107.596 214.236 107.805C214.684 108.018 215.27 108.125 215.994 108.125C216.963 108.125 217.762 107.891 218.393 107.422C219.023 106.953 219.338 106.219 219.338 105.219V102.781H219.182C219.046 103 218.854 103.271 218.604 103.594C218.359 103.911 218.005 104.195 217.541 104.445C217.083 104.69 216.463 104.812 215.682 104.812C214.713 104.812 213.843 104.583 213.072 104.125C212.307 103.667 211.7 103 211.252 102.125C210.809 101.25 210.588 100.187 210.588 98.9375C210.588 97.7083 210.804 96.638 211.236 95.7266C211.669 94.8099 212.27 94.1016 213.041 93.6016C213.812 93.0964 214.702 92.8438 215.713 92.8438C216.494 92.8438 217.114 92.974 217.572 93.2344C218.036 93.4896 218.39 93.7812 218.635 94.1094C218.885 94.4323 219.077 94.6979 219.213 94.9062H219.4V93H221.182V105.344C221.182 106.375 220.947 107.214 220.479 107.859C220.015 108.51 219.39 108.987 218.604 109.289C217.822 109.596 216.952 109.75 215.994 109.75ZM215.932 103.156C216.671 103.156 217.296 102.987 217.807 102.648C218.317 102.31 218.705 101.823 218.971 101.188C219.236 100.552 219.369 99.7917 219.369 98.9062C219.369 98.0417 219.239 97.2786 218.979 96.6172C218.718 95.9557 218.333 95.4375 217.822 95.0625C217.312 94.6875 216.682 94.5 215.932 94.5C215.15 94.5 214.499 94.6979 213.979 95.0937C213.463 95.4896 213.075 96.0208 212.814 96.6875C212.559 97.3542 212.432 98.0937 212.432 98.9062C212.432 99.7396 212.562 100.477 212.822 101.117C213.088 101.753 213.479 102.253 213.994 102.617C214.515 102.977 215.161 103.156 215.932 103.156Z" fill="#FFF6A5"/>
<path d="M267.086 71.25C267.086 69.2812 267.341 67.4714 267.852 65.8203C268.367 64.1641 269.102 62.6406 270.055 61.25H271.68C271.305 61.7656 270.953 62.401 270.625 63.1562C270.302 63.9062 270.018 64.7318 269.773 65.6328C269.529 66.5286 269.336 67.4557 269.195 68.4141C269.06 69.3724 268.992 70.3177 268.992 71.25C268.992 72.4896 269.112 73.7474 269.352 75.0234C269.591 76.2995 269.914 77.4844 270.32 78.5781C270.727 79.6719 271.18 80.5625 271.68 81.25H270.055C269.102 79.8594 268.367 78.3385 267.852 76.6875C267.341 75.0312 267.086 73.2187 267.086 71.25ZM278.338 71.25C278.338 73.2187 278.08 75.0312 277.564 76.6875C277.054 78.3385 276.322 79.8594 275.369 81.25H273.744C274.119 80.7344 274.468 80.099 274.791 79.3438C275.119 78.5938 275.406 77.7708 275.65 76.875C275.895 75.974 276.085 75.0443 276.221 74.0859C276.361 73.1224 276.432 72.1771 276.432 71.25C276.432 70.0104 276.312 68.7526 276.072 67.4766C275.833 66.2005 275.51 65.0156 275.104 63.9219C274.697 62.8281 274.244 61.9375 273.744 61.25H275.369C276.322 62.6406 277.054 64.1641 277.564 65.8203C278.08 67.4714 278.338 69.2812 278.338 71.25Z" fill="#FFD600"/>
<path d="M281.496 71.2812V70.3125C282.366 70.3125 282.973 70.1302 283.316 69.7656C283.665 69.401 283.84 68.7917 283.84 67.9375V65.4375C283.84 64.7187 283.908 64.0964 284.043 63.5703C284.184 63.0443 284.41 62.6094 284.723 62.2656C285.035 61.9219 285.452 61.6667 285.973 61.5C286.493 61.3333 287.137 61.25 287.902 61.25V62.7812C287.298 62.7812 286.822 62.875 286.473 63.0625C286.129 63.25 285.884 63.5417 285.738 63.9375C285.598 64.3281 285.527 64.8281 285.527 65.4375V68.5625C285.527 68.9687 285.473 69.3385 285.363 69.6719C285.259 70.0052 285.064 70.2917 284.777 70.5312C284.491 70.7708 284.082 70.9557 283.551 71.0859C283.025 71.2161 282.34 71.2812 281.496 71.2812ZM287.902 81.25C287.137 81.25 286.493 81.1667 285.973 81C285.452 80.8333 285.035 80.5781 284.723 80.2344C284.41 79.8906 284.184 79.4557 284.043 78.9297C283.908 78.4036 283.84 77.7813 283.84 77.0625V74.5625C283.84 73.7083 283.665 73.099 283.316 72.7344C282.973 72.3698 282.366 72.1875 281.496 72.1875V71.2187C282.34 71.2187 283.025 71.2839 283.551 71.4141C284.082 71.5443 284.491 71.7292 284.777 71.9687C285.064 72.2083 285.259 72.4948 285.363 72.8281C285.473 73.1615 285.527 73.5312 285.527 73.9375V77.0625C285.527 77.6719 285.598 78.1719 285.738 78.5625C285.884 78.9531 286.129 79.2422 286.473 79.4297C286.822 79.6224 287.298 79.7188 287.902 79.7188V81.25ZM281.496 72.1875V70.3125H283.34V72.1875H281.496ZM188.088 105.125C187.702 105.125 187.372 104.987 187.096 104.711C186.82 104.435 186.682 104.104 186.682 103.719C186.682 103.333 186.82 103.003 187.096 102.727C187.372 102.451 187.702 102.312 188.088 102.312C188.473 102.312 188.804 102.451 189.08 102.727C189.356 103.003 189.494 103.333 189.494 103.719C189.494 103.974 189.429 104.208 189.299 104.422C189.174 104.635 189.005 104.807 188.791 104.937C188.583 105.063 188.348 105.125 188.088 105.125ZM225.213 98.25C225.213 96.2812 225.468 94.4714 225.979 92.8203C226.494 91.1641 227.229 89.6406 228.182 88.25H229.807C229.432 88.7656 229.08 89.401 228.752 90.1562C228.429 90.9062 228.145 91.7318 227.9 92.6328C227.656 93.5286 227.463 94.4557 227.322 95.4141C227.187 96.3724 227.119 97.3177 227.119 98.25C227.119 99.4896 227.239 100.747 227.479 102.023C227.718 103.299 228.041 104.484 228.447 105.578C228.854 106.672 229.307 107.563 229.807 108.25H228.182C227.229 106.859 226.494 105.339 225.979 103.687C225.468 102.031 225.213 100.219 225.213 98.25ZM535.248 98.25C535.248 100.219 534.99 102.031 534.475 103.687C533.964 105.339 533.232 106.859 532.279 108.25H530.654C531.029 107.734 531.378 107.099 531.701 106.344C532.029 105.594 532.316 104.771 532.561 103.875C532.805 102.974 532.995 102.044 533.131 101.086C533.271 100.122 533.342 99.1771 533.342 98.25C533.342 97.0104 533.222 95.7526 532.982 94.4766C532.743 93.2005 532.42 92.0156 532.014 90.9219C531.607 89.8281 531.154 88.9375 530.654 88.25H532.279C533.232 89.6406 533.964 91.1641 534.475 92.8203C534.99 94.4714 535.248 96.2812 535.248 98.25ZM74.1563 341.219V342.187C73.2865 342.187 72.6771 342.37 72.3281 342.734C71.9844 343.099 71.8125 343.708 71.8125 344.562V347.062C71.8125 347.781 71.7422 348.404 71.6016 348.93C71.4661 349.456 71.2422 349.891 70.9297 350.234C70.6172 350.578 70.2005 350.833 69.6797 351C69.1589 351.167 68.5156 351.25 67.75 351.25V349.719C68.3542 349.719 68.8281 349.622 69.1719 349.43C69.5208 349.242 69.7656 348.953 69.9063 348.563C70.0521 348.172 70.125 347.672 70.125 347.062V343.937C70.125 343.531 70.1771 343.161 70.2813 342.828C70.3906 342.495 70.5885 342.208 70.875 341.969C71.1615 341.729 71.5677 341.544 72.0938 341.414C72.625 341.284 73.3125 341.219 74.1563 341.219ZM67.75 331.25C68.5156 331.25 69.1589 331.333 69.6797 331.5C70.2005 331.667 70.6172 331.922 70.9297 332.266C71.2422 332.609 71.4661 333.044 71.6016 333.57C71.7422 334.096 71.8125 334.719 71.8125 335.437V337.937C71.8125 338.792 71.9844 339.401 72.3281 339.766C72.6771 340.13 73.2865 340.312 74.1563 340.312V341.281C73.3125 341.281 72.625 341.216 72.0938 341.086C71.5677 340.956 71.1615 340.771 70.875 340.531C70.5885 340.292 70.3906 340.005 70.2813 339.672C70.1771 339.339 70.125 338.969 70.125 338.562V335.437C70.125 334.828 70.0521 334.328 69.9063 333.937C69.7656 333.542 69.5208 333.25 69.1719 333.062C68.8281 332.875 68.3542 332.781 67.75 332.781V331.25ZM74.1563 340.312V342.187H72.3125V340.312H74.1563Z" fill="#C581C7"/>
<path d="M110.688 105.25C109.563 105.25 108.594 104.984 107.781 104.453C106.969 103.922 106.344 103.19 105.906 102.258C105.469 101.326 105.25 100.26 105.25 99.0625C105.25 97.8437 105.474 96.7682 105.922 95.8359C106.375 94.8984 107.005 94.1667 107.813 93.6406C108.625 93.1094 109.573 92.8438 110.656 92.8438C111.5 92.8438 112.26 93 112.938 93.3125C113.615 93.625 114.169 94.0625 114.602 94.625C115.034 95.1875 115.302 95.8437 115.406 96.5937H113.563C113.422 96.0469 113.109 95.5625 112.625 95.1406C112.146 94.7135 111.5 94.5 110.688 94.5C109.969 94.5 109.339 94.6875 108.797 95.0625C108.26 95.4323 107.841 95.9557 107.539 96.6328C107.242 97.3047 107.094 98.0937 107.094 99C107.094 99.9271 107.24 100.734 107.531 101.422C107.828 102.109 108.245 102.643 108.781 103.023C109.323 103.404 109.958 103.594 110.688 103.594C111.167 103.594 111.602 103.51 111.992 103.344C112.383 103.177 112.714 102.938 112.984 102.625C113.255 102.312 113.448 101.937 113.563 101.5H115.406C115.302 102.208 115.044 102.846 114.633 103.414C114.227 103.977 113.688 104.424 113.016 104.758C112.349 105.086 111.573 105.25 110.688 105.25ZM122.977 105.25C121.893 105.25 120.943 104.992 120.125 104.477C119.313 103.961 118.677 103.24 118.219 102.312C117.766 101.385 117.539 100.302 117.539 99.0625C117.539 97.8125 117.766 96.7214 118.219 95.7891C118.677 94.8568 119.313 94.1328 120.125 93.6172C120.943 93.1016 121.893 92.8438 122.977 92.8438C124.06 92.8438 125.008 93.1016 125.82 93.6172C126.638 94.1328 127.273 94.8568 127.727 95.7891C128.185 96.7214 128.414 97.8125 128.414 99.0625C128.414 100.302 128.185 101.385 127.727 102.312C127.273 103.24 126.638 103.961 125.82 104.477C125.008 104.992 124.06 105.25 122.977 105.25ZM122.977 103.594C123.799 103.594 124.477 103.383 125.008 102.961C125.539 102.539 125.932 101.984 126.188 101.297C126.443 100.609 126.57 99.8646 126.57 99.0625C126.57 98.2604 126.443 97.513 126.188 96.8203C125.932 96.1276 125.539 95.5677 125.008 95.1406C124.477 94.7135 123.799 94.5 122.977 94.5C122.154 94.5 121.477 94.7135 120.945 95.1406C120.414 95.5677 120.021 96.1276 119.766 96.8203C119.51 97.513 119.383 98.2604 119.383 99.0625C119.383 99.8646 119.51 100.609 119.766 101.297C120.021 101.984 120.414 102.539 120.945 102.961C121.477 103.383 122.154 103.594 122.977 103.594ZM133.072 97.7812V105H131.229V93H133.01V94.875H133.166C133.447 94.2656 133.874 93.776 134.447 93.4063C135.02 93.0313 135.76 92.8438 136.666 92.8438C137.479 92.8438 138.189 93.0104 138.799 93.3437C139.408 93.6719 139.882 94.1719 140.221 94.8437C140.559 95.5104 140.729 96.3542 140.729 97.375V105H138.885V97.5C138.885 96.5573 138.64 95.8229 138.15 95.2969C137.661 94.7656 136.989 94.5 136.135 94.5C135.546 94.5 135.02 94.6276 134.557 94.8828C134.098 95.138 133.736 95.5104 133.471 96C133.205 96.4896 133.072 97.0833 133.072 97.7812ZM152.598 95.6875L150.941 96.1562C150.837 95.8802 150.684 95.612 150.48 95.3516C150.283 95.0859 150.012 94.8672 149.668 94.6953C149.324 94.5234 148.884 94.4375 148.348 94.4375C147.613 94.4375 147.001 94.6068 146.512 94.9453C146.027 95.2786 145.785 95.7031 145.785 96.2187C145.785 96.6771 145.952 97.0391 146.285 97.3047C146.618 97.5703 147.139 97.7917 147.848 97.9687L149.629 98.4063C150.702 98.6667 151.501 99.0651 152.027 99.6016C152.553 100.133 152.816 100.818 152.816 101.656C152.816 102.344 152.618 102.958 152.223 103.5C151.832 104.042 151.285 104.469 150.582 104.781C149.879 105.094 149.061 105.25 148.129 105.25C146.905 105.25 145.892 104.984 145.09 104.453C144.288 103.922 143.78 103.146 143.566 102.125L145.316 101.687C145.483 102.333 145.798 102.818 146.262 103.141C146.73 103.464 147.342 103.625 148.098 103.625C148.957 103.625 149.639 103.443 150.145 103.078C150.655 102.708 150.91 102.266 150.91 101.75C150.91 101.333 150.764 100.984 150.473 100.703C150.181 100.417 149.733 100.203 149.129 100.062L147.129 99.5937C146.03 99.3333 145.223 98.9297 144.707 98.3828C144.197 97.8307 143.941 97.1406 143.941 96.3125C143.941 95.6354 144.132 95.0365 144.512 94.5156C144.897 93.9948 145.421 93.5859 146.082 93.2891C146.749 92.9922 147.504 92.8438 148.348 92.8438C149.535 92.8438 150.467 93.1042 151.145 93.625C151.827 94.1458 152.311 94.8333 152.598 95.6875ZM160.467 105.25C159.383 105.25 158.433 104.992 157.615 104.477C156.803 103.961 156.167 103.24 155.709 102.312C155.256 101.385 155.029 100.302 155.029 99.0625C155.029 97.8125 155.256 96.7214 155.709 95.7891C156.167 94.8568 156.803 94.1328 157.615 93.6172C158.433 93.1016 159.383 92.8438 160.467 92.8438C161.55 92.8438 162.498 93.1016 163.311 93.6172C164.128 94.1328 164.764 94.8568 165.217 95.7891C165.675 96.7214 165.904 97.8125 165.904 99.0625C165.904 100.302 165.675 101.385 165.217 102.312C164.764 103.24 164.128 103.961 163.311 104.477C162.498 104.992 161.55 105.25 160.467 105.25ZM160.467 103.594C161.29 103.594 161.967 103.383 162.498 102.961C163.029 102.539 163.423 101.984 163.678 101.297C163.933 100.609 164.061 99.8646 164.061 99.0625C164.061 98.2604 163.933 97.513 163.678 96.8203C163.423 96.1276 163.029 95.5677 162.498 95.1406C161.967 94.7135 161.29 94.5 160.467 94.5C159.644 94.5 158.967 94.7135 158.436 95.1406C157.904 95.5677 157.511 96.1276 157.256 96.8203C157.001 97.513 156.873 98.2604 156.873 99.0625C156.873 99.8646 157.001 100.609 157.256 101.297C157.511 101.984 157.904 102.539 158.436 102.961C158.967 103.383 159.644 103.594 160.467 103.594ZM170.563 89V105H168.719V89H170.563ZM178.971 105.25C177.814 105.25 176.817 104.995 175.979 104.484C175.145 103.969 174.502 103.25 174.049 102.328C173.601 101.401 173.377 100.323 173.377 99.0938C173.377 97.8646 173.601 96.7812 174.049 95.8437C174.502 94.901 175.132 94.1667 175.939 93.6406C176.752 93.1094 177.7 92.8438 178.783 92.8438C179.408 92.8438 180.025 92.9479 180.635 93.1562C181.244 93.3646 181.799 93.7031 182.299 94.1719C182.799 94.6354 183.197 95.25 183.494 96.0156C183.791 96.7812 183.939 97.724 183.939 98.8437V99.625H174.689V98.0312H182.064C182.064 97.3542 181.929 96.75 181.658 96.2187C181.393 95.6875 181.012 95.2682 180.518 94.9609C180.028 94.6536 179.45 94.5 178.783 94.5C178.049 94.5 177.413 94.6823 176.877 95.0469C176.346 95.4062 175.937 95.875 175.65 96.4531C175.364 97.0312 175.221 97.651 175.221 98.3125V99.375C175.221 100.281 175.377 101.049 175.689 101.68C176.007 102.305 176.447 102.781 177.01 103.109C177.572 103.432 178.226 103.594 178.971 103.594C179.455 103.594 179.893 103.526 180.283 103.391C180.679 103.25 181.02 103.042 181.307 102.766C181.593 102.484 181.814 102.135 181.971 101.719L183.752 102.219C183.564 102.823 183.249 103.354 182.807 103.812C182.364 104.266 181.817 104.62 181.166 104.875C180.515 105.125 179.783 105.25 178.971 105.25Z" fill="#39B8FF"/>
<path d="M231.902 94V92.5937C231.902 92.1667 231.978 91.7135 232.129 91.2344C232.285 90.75 232.509 90.2839 232.801 89.8359C233.098 89.3828 233.454 88.9896 233.871 88.6562L234.871 89.4687C234.543 89.9375 234.257 90.4271 234.012 90.9375C233.772 91.4427 233.652 91.9844 233.652 92.5625V94H231.902ZM235.902 94V92.5937C235.902 92.1667 235.978 91.7135 236.129 91.2344C236.285 90.75 236.509 90.2839 236.801 89.8359C237.098 89.3828 237.454 88.9896 237.871 88.6562L238.871 89.4687C238.543 89.9375 238.257 90.4271 238.012 90.9375C237.772 91.4427 237.652 91.9844 237.652 92.5625V94H235.902ZM524.557 89V90.4062C524.557 90.8333 524.479 91.2891 524.322 91.7734C524.171 92.2526 523.947 92.7187 523.65 93.1719C523.359 93.6198 523.005 94.0104 522.588 94.3438L521.588 93.5313C521.916 93.0625 522.2 92.5755 522.439 92.0703C522.684 91.5599 522.807 91.0156 522.807 90.4375V89H524.557ZM528.557 89V90.4062C528.557 90.8333 528.479 91.2891 528.322 91.7734C528.171 92.2526 527.947 92.7187 527.65 93.1719C527.359 93.6198 527.005 94.0104 526.588 94.3438L525.588 93.5313C525.916 93.0625 526.2 92.5755 526.439 92.0703C526.684 91.5599 526.807 91.0156 526.807 90.4375V89H528.557Z" fill="#CE6B40"/>
<path d="M246.094 105H241.156V89H246.313C247.865 89 249.193 89.3203 250.297 89.9609C251.401 90.5964 252.247 91.5104 252.836 92.7031C253.424 93.8906 253.719 95.3125 253.719 96.9687C253.719 98.6354 253.422 100.07 252.828 101.273C252.234 102.471 251.37 103.393 250.234 104.039C249.099 104.68 247.719 105 246.094 105ZM243.094 103.281H245.969C247.292 103.281 248.388 103.026 249.258 102.516C250.128 102.005 250.776 101.279 251.203 100.336C251.63 99.3932 251.844 98.2708 251.844 96.9687C251.844 95.6771 251.633 94.5651 251.211 93.6328C250.789 92.6953 250.159 91.9766 249.32 91.4766C248.482 90.9714 247.438 90.7187 246.188 90.7187H243.094V103.281ZM261.75 105.25C260.594 105.25 259.596 104.995 258.758 104.484C257.924 103.969 257.281 103.25 256.828 102.328C256.38 101.401 256.156 100.323 256.156 99.0938C256.156 97.8646 256.38 96.7812 256.828 95.8437C257.281 94.901 257.911 94.1667 258.719 93.6406C259.531 93.1094 260.479 92.8438 261.562 92.8438C262.188 92.8438 262.805 92.9479 263.414 93.1562C264.023 93.3646 264.578 93.7031 265.078 94.1719C265.578 94.6354 265.977 95.25 266.273 96.0156C266.57 96.7812 266.719 97.724 266.719 98.8437V99.625H257.469V98.0312H264.844C264.844 97.3542 264.708 96.75 264.438 96.2187C264.172 95.6875 263.792 95.2682 263.297 94.9609C262.807 94.6536 262.229 94.5 261.562 94.5C260.828 94.5 260.193 94.6823 259.656 95.0469C259.125 95.4062 258.716 95.875 258.43 96.4531C258.143 97.0312 258 97.651 258 98.3125V99.375C258 100.281 258.156 101.049 258.469 101.68C258.786 102.305 259.227 102.781 259.789 103.109C260.352 103.432 261.005 103.594 261.75 103.594C262.234 103.594 262.672 103.526 263.063 103.391C263.458 103.25 263.799 103.042 264.086 102.766C264.372 102.484 264.594 102.135 264.75 101.719L266.531 102.219C266.344 102.823 266.029 103.354 265.586 103.812C265.143 104.266 264.596 104.62 263.945 104.875C263.294 105.125 262.563 105.25 261.75 105.25ZM278.971 93L274.533 105H272.658L268.221 93H270.221L273.533 102.562H273.658L276.971 93H278.971ZM286.006 105.25C284.85 105.25 283.852 104.995 283.014 104.484C282.18 103.969 281.537 103.25 281.084 102.328C280.636 101.401 280.412 100.323 280.412 99.0938C280.412 97.8646 280.636 96.7812 281.084 95.8437C281.537 94.901 282.167 94.1667 282.975 93.6406C283.787 93.1094 284.735 92.8438 285.818 92.8438C286.443 92.8438 287.061 92.9479 287.67 93.1562C288.279 93.3646 288.834 93.7031 289.334 94.1719C289.834 94.6354 290.232 95.25 290.529 96.0156C290.826 96.7812 290.975 97.724 290.975 98.8437V99.625H281.725V98.0312H289.1C289.1 97.3542 288.964 96.75 288.693 96.2187C288.428 95.6875 288.048 95.2682 287.553 94.9609C287.063 94.6536 286.485 94.5 285.818 94.5C285.084 94.5 284.449 94.6823 283.912 95.0469C283.381 95.4062 282.972 95.875 282.686 96.4531C282.399 97.0312 282.256 97.651 282.256 98.3125V99.375C282.256 100.281 282.412 101.049 282.725 101.68C283.042 102.305 283.482 102.781 284.045 103.109C284.607 103.432 285.261 103.594 286.006 103.594C286.49 103.594 286.928 103.526 287.318 103.391C287.714 103.25 288.055 103.042 288.342 102.766C288.628 102.484 288.85 102.135 289.006 101.719L290.787 102.219C290.6 102.823 290.285 103.354 289.842 103.812C289.399 104.266 288.852 104.62 288.201 104.875C287.55 105.125 286.818 105.25 286.006 105.25ZM295.623 89V105H293.779V89H295.623ZM303.875 105.25C302.792 105.25 301.841 104.992 301.023 104.477C300.211 103.961 299.576 103.24 299.117 102.312C298.664 101.385 298.438 100.302 298.438 99.0625C298.438 97.8125 298.664 96.7214 299.117 95.7891C299.576 94.8568 300.211 94.1328 301.023 93.6172C301.841 93.1016 302.792 92.8438 303.875 92.8438C304.958 92.8438 305.906 93.1016 306.719 93.6172C307.536 94.1328 308.172 94.8568 308.625 95.7891C309.083 96.7214 309.313 97.8125 309.313 99.0625C309.313 100.302 309.083 101.385 308.625 102.312C308.172 103.24 307.536 103.961 306.719 104.477C305.906 104.992 304.958 105.25 303.875 105.25ZM303.875 103.594C304.698 103.594 305.375 103.383 305.906 102.961C306.438 102.539 306.831 101.984 307.086 101.297C307.341 100.609 307.469 99.8646 307.469 99.0625C307.469 98.2604 307.341 97.513 307.086 96.8203C306.831 96.1276 306.438 95.5677 305.906 95.1406C305.375 94.7135 304.698 94.5 303.875 94.5C303.052 94.5 302.375 94.7135 301.844 95.1406C301.313 95.5677 300.919 96.1276 300.664 96.8203C300.409 97.513 300.281 98.2604 300.281 99.0625C300.281 99.8646 300.409 100.609 300.664 101.297C300.919 101.984 301.313 102.539 301.844 102.961C302.375 103.383 303.052 103.594 303.875 103.594ZM312.127 109.5V93H313.908V94.9062H314.127C314.262 94.6979 314.45 94.4323 314.689 94.1094C314.934 93.7812 315.283 93.4896 315.736 93.2344C316.195 92.974 316.814 92.8438 317.596 92.8438C318.606 92.8438 319.497 93.0964 320.268 93.6016C321.038 94.1068 321.64 94.8229 322.072 95.75C322.505 96.6771 322.721 97.7708 322.721 99.0313C322.721 100.302 322.505 101.404 322.072 102.336C321.64 103.263 321.041 103.982 320.275 104.492C319.51 104.997 318.627 105.25 317.627 105.25C316.856 105.25 316.239 105.122 315.775 104.867C315.312 104.607 314.955 104.312 314.705 103.984C314.455 103.651 314.262 103.375 314.127 103.156H313.971V109.5H312.127ZM313.939 99C313.939 99.9062 314.072 100.706 314.338 101.398C314.604 102.086 314.992 102.625 315.502 103.016C316.012 103.401 316.637 103.594 317.377 103.594C318.148 103.594 318.791 103.391 319.307 102.984C319.827 102.573 320.218 102.021 320.479 101.328C320.744 100.63 320.877 99.8542 320.877 99C320.877 98.1562 320.747 97.3958 320.486 96.7187C320.231 96.0365 319.843 95.4974 319.322 95.1016C318.807 94.7005 318.158 94.5 317.377 94.5C316.627 94.5 315.997 94.6901 315.486 95.0703C314.976 95.4453 314.59 95.9714 314.33 96.6484C314.07 97.3203 313.939 98.1042 313.939 99ZM325.533 105V93H327.377V105H325.533ZM326.471 91C326.111 91 325.801 90.8776 325.541 90.6328C325.286 90.388 325.158 90.0938 325.158 89.75C325.158 89.4063 325.286 89.112 325.541 88.8672C325.801 88.6224 326.111 88.5 326.471 88.5C326.83 88.5 327.137 88.6224 327.393 88.8672C327.653 89.112 327.783 89.4063 327.783 89.75C327.783 90.0938 327.653 90.388 327.393 90.6328C327.137 90.8776 326.83 91 326.471 91ZM332.598 97.7812V105H330.754V93H332.535V94.875H332.691C332.973 94.2656 333.4 93.776 333.973 93.4063C334.546 93.0313 335.285 92.8438 336.191 92.8438C337.004 92.8438 337.715 93.0104 338.324 93.3437C338.934 93.6719 339.408 94.1719 339.746 94.8437C340.085 95.5104 340.254 96.3542 340.254 97.375V105H338.41V97.5C338.41 96.5573 338.165 95.8229 337.676 95.2969C337.186 94.7656 336.514 94.5 335.66 94.5C335.072 94.5 334.546 94.6276 334.082 94.8828C333.624 95.138 333.262 95.5104 332.996 96C332.73 96.4896 332.598 97.0833 332.598 97.7812ZM348.467 109.75C347.576 109.75 346.811 109.635 346.17 109.406C345.529 109.182 344.995 108.885 344.568 108.516C344.146 108.151 343.811 107.76 343.561 107.344L345.029 106.313C345.196 106.531 345.407 106.781 345.662 107.062C345.917 107.349 346.266 107.596 346.709 107.805C347.157 108.018 347.743 108.125 348.467 108.125C349.436 108.125 350.235 107.891 350.865 107.422C351.495 106.953 351.811 106.219 351.811 105.219V102.781H351.654C351.519 103 351.326 103.271 351.076 103.594C350.831 103.911 350.477 104.195 350.014 104.445C349.555 104.69 348.936 104.812 348.154 104.812C347.186 104.812 346.316 104.583 345.545 104.125C344.779 103.667 344.173 103 343.725 102.125C343.282 101.25 343.061 100.187 343.061 98.9375C343.061 97.7083 343.277 96.638 343.709 95.7266C344.141 94.8099 344.743 94.1016 345.514 93.6016C346.285 93.0964 347.175 92.8438 348.186 92.8438C348.967 92.8438 349.587 92.974 350.045 93.2344C350.508 93.4896 350.863 93.7812 351.107 94.1094C351.357 94.4323 351.55 94.6979 351.686 94.9062H351.873V93H353.654V105.344C353.654 106.375 353.42 107.214 352.951 107.859C352.488 108.51 351.863 108.987 351.076 109.289C350.295 109.596 349.425 109.75 348.467 109.75ZM348.404 103.156C349.144 103.156 349.769 102.987 350.279 102.648C350.79 102.31 351.178 101.823 351.443 101.188C351.709 100.552 351.842 99.7917 351.842 98.9062C351.842 98.0417 351.712 97.2786 351.451 96.6172C351.191 95.9557 350.805 95.4375 350.295 95.0625C349.785 94.6875 349.154 94.5 348.404 94.5C347.623 94.5 346.972 94.6979 346.451 95.0937C345.936 95.4896 345.548 96.0208 345.287 96.6875C345.032 97.3542 344.904 98.0937 344.904 98.9062C344.904 99.7396 345.035 100.477 345.295 101.117C345.561 101.753 345.951 102.253 346.467 102.617C346.988 102.977 347.633 103.156 348.404 103.156ZM366.373 105L361.998 89H363.967L367.311 102.031H367.467L370.873 89H373.061L376.467 102.031H376.623L379.967 89H381.936L377.561 105H375.561L372.029 92.25H371.904L368.373 105H366.373ZM388.014 105.25C386.857 105.25 385.86 104.995 385.021 104.484C384.188 103.969 383.545 103.25 383.092 102.328C382.644 101.401 382.42 100.323 382.42 99.0938C382.42 97.8646 382.644 96.7812 383.092 95.8437C383.545 94.901 384.175 94.1667 384.982 93.6406C385.795 93.1094 386.743 92.8438 387.826 92.8438C388.451 92.8438 389.068 92.9479 389.678 93.1562C390.287 93.3646 390.842 93.7031 391.342 94.1719C391.842 94.6354 392.24 95.25 392.537 96.0156C392.834 96.7812 392.982 97.724 392.982 98.8437V99.625H383.732V98.0312H391.107C391.107 97.3542 390.972 96.75 390.701 96.2187C390.436 95.6875 390.055 95.2682 389.561 94.9609C389.071 94.6536 388.493 94.5 387.826 94.5C387.092 94.5 386.456 94.6823 385.92 95.0469C385.389 95.4062 384.98 95.875 384.693 96.4531C384.407 97.0312 384.264 97.651 384.264 98.3125V99.375C384.264 100.281 384.42 101.049 384.732 101.68C385.05 102.305 385.49 102.781 386.053 103.109C386.615 103.432 387.269 103.594 388.014 103.594C388.498 103.594 388.936 103.526 389.326 103.391C389.722 103.25 390.063 103.042 390.35 102.766C390.636 102.484 390.857 102.135 391.014 101.719L392.795 102.219C392.607 102.823 392.292 103.354 391.85 103.812C391.407 104.266 390.86 104.62 390.209 104.875C389.558 105.125 388.826 105.25 388.014 105.25ZM396.037 105V89H397.881V94.9062H398.037C398.173 94.6979 398.36 94.4323 398.6 94.1094C398.844 93.7812 399.193 93.4896 399.646 93.2344C400.105 92.974 400.725 92.8438 401.506 92.8438C402.516 92.8438 403.407 93.0964 404.178 93.6016C404.949 94.1068 405.55 94.8229 405.982 95.75C406.415 96.6771 406.631 97.7708 406.631 99.0313C406.631 100.302 406.415 101.404 405.982 102.336C405.55 103.263 404.951 103.982 404.186 104.492C403.42 104.997 402.537 105.25 401.537 105.25C400.766 105.25 400.149 105.122 399.686 104.867C399.222 104.607 398.865 104.312 398.615 103.984C398.365 103.651 398.173 103.375 398.037 103.156H397.818V105H396.037ZM397.85 99C397.85 99.9062 397.982 100.706 398.248 101.398C398.514 102.086 398.902 102.625 399.412 103.016C399.923 103.401 400.548 103.594 401.287 103.594C402.058 103.594 402.701 103.391 403.217 102.984C403.738 102.573 404.128 102.021 404.389 101.328C404.654 100.63 404.787 99.8542 404.787 99C404.787 98.1562 404.657 97.3958 404.396 96.7187C404.141 96.0365 403.753 95.4974 403.232 95.1016C402.717 94.7005 402.068 94.5 401.287 94.5C400.537 94.5 399.907 94.6901 399.396 95.0703C398.886 95.4453 398.501 95.9714 398.24 96.6484C397.98 97.3203 397.85 98.1042 397.85 99ZM419.17 105.281C418.41 105.281 417.719 105.138 417.1 104.852C416.48 104.56 415.988 104.141 415.623 103.594C415.258 103.042 415.076 102.375 415.076 101.594C415.076 100.906 415.212 100.349 415.482 99.9219C415.753 99.4896 416.115 99.151 416.568 98.9062C417.021 98.6615 417.521 98.4792 418.068 98.3594C418.62 98.2344 419.175 98.1354 419.732 98.0625C420.462 97.9687 421.053 97.8984 421.506 97.8516C421.964 97.7995 422.298 97.7135 422.506 97.5937C422.719 97.474 422.826 97.2656 422.826 96.9687V96.9062C422.826 96.1354 422.615 95.5365 422.193 95.1094C421.777 94.6823 421.144 94.4687 420.295 94.4687C419.415 94.4687 418.725 94.6615 418.225 95.0469C417.725 95.4323 417.373 95.8437 417.17 96.2812L415.42 95.6562C415.732 94.9271 416.149 94.3594 416.67 93.9531C417.196 93.5417 417.769 93.2552 418.389 93.0937C419.014 92.9271 419.628 92.8438 420.232 92.8438C420.618 92.8438 421.061 92.8906 421.561 92.9844C422.066 93.0729 422.553 93.2578 423.021 93.5391C423.495 93.8203 423.889 94.2448 424.201 94.8125C424.514 95.3802 424.67 96.1406 424.67 97.0938V105H422.826V103.375H422.732C422.607 103.635 422.399 103.914 422.107 104.211C421.816 104.508 421.428 104.76 420.943 104.969C420.459 105.177 419.868 105.281 419.17 105.281ZM419.451 103.625C420.18 103.625 420.795 103.482 421.295 103.195C421.8 102.909 422.18 102.539 422.436 102.086C422.696 101.633 422.826 101.156 422.826 100.656V98.9687C422.748 99.0625 422.576 99.1484 422.311 99.2266C422.05 99.2995 421.748 99.3646 421.404 99.4219C421.066 99.474 420.735 99.5208 420.412 99.5625C420.094 99.599 419.837 99.6302 419.639 99.6562C419.16 99.7187 418.712 99.8203 418.295 99.9609C417.883 100.096 417.55 100.302 417.295 100.578C417.045 100.849 416.92 101.219 416.92 101.687C416.92 102.328 417.157 102.812 417.631 103.141C418.11 103.464 418.717 103.625 419.451 103.625ZM428.035 109.5V93H429.816V94.9062H430.035C430.171 94.6979 430.358 94.4323 430.598 94.1094C430.842 93.7812 431.191 93.4896 431.645 93.2344C432.103 92.974 432.723 92.8438 433.504 92.8438C434.514 92.8438 435.405 93.0964 436.176 93.6016C436.947 94.1068 437.548 94.8229 437.98 95.75C438.413 96.6771 438.629 97.7708 438.629 99.0313C438.629 100.302 438.413 101.404 437.98 102.336C437.548 103.263 436.949 103.982 436.184 104.492C435.418 104.997 434.535 105.25 433.535 105.25C432.764 105.25 432.147 105.122 431.684 104.867C431.22 104.607 430.863 104.312 430.613 103.984C430.363 103.651 430.171 103.375 430.035 103.156H429.879V109.5H428.035ZM429.848 99C429.848 99.9062 429.98 100.706 430.246 101.398C430.512 102.086 430.9 102.625 431.41 103.016C431.921 103.401 432.546 103.594 433.285 103.594C434.056 103.594 434.699 103.391 435.215 102.984C435.736 102.573 436.126 102.021 436.387 101.328C436.652 100.63 436.785 99.8542 436.785 99C436.785 98.1562 436.655 97.3958 436.395 96.7187C436.139 96.0365 435.751 95.4974 435.23 95.1016C434.715 94.7005 434.066 94.5 433.285 94.5C432.535 94.5 431.905 94.6901 431.395 95.0703C430.884 95.4453 430.499 95.9714 430.238 96.6484C429.978 97.3203 429.848 98.1042 429.848 99ZM441.441 109.5V93H443.223V94.9062H443.441C443.577 94.6979 443.764 94.4323 444.004 94.1094C444.249 93.7812 444.598 93.4896 445.051 93.2344C445.509 92.974 446.129 92.8438 446.91 92.8438C447.921 92.8438 448.811 93.0964 449.582 93.6016C450.353 94.1068 450.954 94.8229 451.387 95.75C451.819 96.6771 452.035 97.7708 452.035 99.0313C452.035 100.302 451.819 101.404 451.387 102.336C450.954 103.263 450.355 103.982 449.59 104.492C448.824 104.997 447.941 105.25 446.941 105.25C446.171 105.25 445.553 105.122 445.09 104.867C444.626 104.607 444.27 104.312 444.02 103.984C443.77 103.651 443.577 103.375 443.441 103.156H443.285V109.5H441.441ZM443.254 99C443.254 99.9062 443.387 100.706 443.652 101.398C443.918 102.086 444.306 102.625 444.816 103.016C445.327 103.401 445.952 103.594 446.691 103.594C447.462 103.594 448.105 103.391 448.621 102.984C449.142 102.573 449.533 102.021 449.793 101.328C450.059 100.63 450.191 99.8542 450.191 99C450.191 98.1562 450.061 97.3958 449.801 96.7187C449.546 96.0365 449.158 95.4974 448.637 95.1016C448.121 94.7005 447.473 94.5 446.691 94.5C445.941 94.5 445.311 94.6901 444.801 95.0703C444.29 95.4453 443.905 95.9714 443.645 96.6484C443.384 97.3203 443.254 98.1042 443.254 99ZM463.348 95.6875L461.691 96.1562C461.587 95.8802 461.434 95.612 461.23 95.3516C461.033 95.0859 460.762 94.8672 460.418 94.6953C460.074 94.5234 459.634 94.4375 459.098 94.4375C458.363 94.4375 457.751 94.6068 457.262 94.9453C456.777 95.2786 456.535 95.7031 456.535 96.2187C456.535 96.6771 456.702 97.0391 457.035 97.3047C457.368 97.5703 457.889 97.7917 458.598 97.9687L460.379 98.4063C461.452 98.6667 462.251 99.0651 462.777 99.6016C463.303 100.133 463.566 100.818 463.566 101.656C463.566 102.344 463.368 102.958 462.973 103.5C462.582 104.042 462.035 104.469 461.332 104.781C460.629 105.094 459.811 105.25 458.879 105.25C457.655 105.25 456.642 104.984 455.84 104.453C455.038 103.922 454.53 103.146 454.316 102.125L456.066 101.687C456.233 102.333 456.548 102.818 457.012 103.141C457.48 103.464 458.092 103.625 458.848 103.625C459.707 103.625 460.389 103.443 460.895 103.078C461.405 102.708 461.66 102.266 461.66 101.75C461.66 101.333 461.514 100.984 461.223 100.703C460.931 100.417 460.483 100.203 459.879 100.062L457.879 99.5937C456.78 99.3333 455.973 98.9297 455.457 98.3828C454.947 97.8307 454.691 97.1406 454.691 96.3125C454.691 95.6354 454.882 95.0365 455.262 94.5156C455.647 93.9948 456.171 93.5859 456.832 93.2891C457.499 92.9922 458.254 92.8438 459.098 92.8438C460.285 92.8438 461.217 93.1042 461.895 93.625C462.577 94.1458 463.061 94.8333 463.348 95.6875ZM475.248 105L471.592 93H473.529L476.123 102.188H476.248L478.811 93H480.779L483.311 102.156H483.436L486.029 93H487.967L484.311 105H482.498L479.873 95.7812H479.686L477.061 105H475.248ZM490.404 105V93H492.248V105H490.404ZM491.342 91C490.982 91 490.673 90.8776 490.412 90.6328C490.157 90.388 490.029 90.0938 490.029 89.75C490.029 89.4063 490.157 89.112 490.412 88.8672C490.673 88.6224 490.982 88.5 491.342 88.5C491.701 88.5 492.008 88.6224 492.264 88.8672C492.524 89.112 492.654 89.4063 492.654 89.75C492.654 90.0938 492.524 90.388 492.264 90.6328C492.008 90.8776 491.701 91 491.342 91ZM500.844 93V94.5625H494.625V93H500.844ZM496.438 90.125H498.281V101.562C498.281 102.083 498.357 102.474 498.508 102.734C498.664 102.99 498.862 103.161 499.102 103.25C499.346 103.333 499.604 103.375 499.875 103.375C500.078 103.375 500.245 103.365 500.375 103.344C500.505 103.318 500.609 103.297 500.688 103.281L501.063 104.937C500.938 104.984 500.763 105.031 500.539 105.078C500.315 105.13 500.031 105.156 499.688 105.156C499.167 105.156 498.656 105.044 498.156 104.82C497.661 104.596 497.25 104.255 496.922 103.797C496.599 103.339 496.438 102.76 496.438 102.062V90.125ZM505.719 97.7812V105H503.875V89H505.719V94.875H505.875C506.156 94.2552 506.578 93.763 507.141 93.3984C507.708 93.0286 508.464 92.8438 509.406 92.8438C510.224 92.8438 510.94 93.0078 511.555 93.3359C512.169 93.6589 512.646 94.1562 512.984 94.8281C513.328 95.4948 513.5 96.3437 513.5 97.375V105H511.656V97.5C511.656 96.5469 511.409 95.8099 510.914 95.2891C510.424 94.763 509.745 94.5 508.875 94.5C508.271 94.5 507.729 94.6276 507.25 94.8828C506.776 95.138 506.401 95.5104 506.125 96C505.854 96.4896 505.719 97.0833 505.719 97.7812ZM518.217 105.125C517.831 105.125 517.501 104.987 517.225 104.711C516.949 104.435 516.811 104.104 516.811 103.719C516.811 103.333 516.949 103.003 517.225 102.727C517.501 102.451 517.831 102.312 518.217 102.312C518.602 102.312 518.933 102.451 519.209 102.727C519.485 103.003 519.623 103.333 519.623 103.719C519.623 103.974 519.558 104.208 519.428 104.422C519.303 104.635 519.133 104.807 518.92 104.937C518.712 105.063 518.477 105.125 518.217 105.125ZM518.217 96.2187C517.831 96.2187 517.501 96.0807 517.225 95.8047C516.949 95.5286 516.811 95.1979 516.811 94.8125C516.811 94.4271 516.949 94.0964 517.225 93.8203C517.501 93.5443 517.831 93.4063 518.217 93.4063C518.602 93.4063 518.933 93.5443 519.209 93.8203C519.485 94.0964 519.623 94.4271 519.623 94.8125C519.623 95.0677 519.558 95.3021 519.428 95.5156C519.303 95.7292 519.133 95.901 518.92 96.0312C518.712 96.1562 518.477 96.2187 518.217 96.2187Z" fill="#FF9B71"/>
</g>
<g filter="url(#filter8_b_12_4)">
<line x1="1" x2="1" y2="379" stroke="black" stroke-width="2"/>
</g>
<g filter="url(#filter9_b_12_4)">
<line x1="637" x2="637" y2="379" stroke="black" stroke-width="2"/>
</g>
<g filter="url(#filter10_b_12_4)">
<line x1="636" y1="1" y2="1" stroke="black" stroke-width="2"/>
</g>
<g filter="url(#filter11_b_12_4)">
<line x1="636" y1="380" y2="380" stroke="black" stroke-width="2"/>
</g>
<g filter="url(#filter12_b_12_4)">
<ellipse cx="616.693" cy="22" rx="5.67857" ry="5" fill="#82E800"/>
<ellipse cx="578.079" cy="22" rx="5.67857" ry="5" fill="#C90202"/>
<ellipse cx="597.386" cy="22" rx="5.67857" ry="5" fill="#CCEB0F"/>
</g>
<defs>
<filter id="filter0_b_12_4" x="-10" y="34" width="656" height="102" filterUnits="userSpaceOnUse" color-interpolation-filters="sRGB">
<feFlood flood-opacity="0" result="BackgroundImageFix"/>
<feGaussianBlur in="BackgroundImageFix" stdDeviation="5"/>
<feComposite in2="SourceAlpha" operator="in" result="effect1_backgroundBlur_12_4"/>
<feBlend mode="normal" in="SourceGraphic" in2="effect1_backgroundBlur_12_4" result="shape"/>
</filter>
<filter id="filter1_b_12_4" x="-10" y="280" width="656" height="109" filterUnits="userSpaceOnUse" color-interpolation-filters="sRGB">
<feFlood flood-opacity="0" result="BackgroundImageFix"/>
<feGaussianBlur in="BackgroundImageFix" stdDeviation="5"/>
<feComposite in2="SourceAlpha" operator="in" result="effect1_backgroundBlur_12_4"/>
<feBlend mode="normal" in="SourceGraphic" in2="effect1_backgroundBlur_12_4" result="shape"/>
</filter>
<filter id="filter2_b_12_4" x="-10" y="198" width="656" height="102" filterUnits="userSpaceOnUse" color-interpolation-filters="sRGB">
<feFlood flood-opacity="0" result="BackgroundImageFix"/>
<feGaussianBlur in="BackgroundImageFix" stdDeviation="5"/>
<feComposite in2="SourceAlpha" operator="in" result="effect1_backgroundBlur_12_4"/>
<feBlend mode="normal" in="SourceGraphic" in2="effect1_backgroundBlur_12_4" result="shape"/>
</filter>
<filter id="filter3_b_12_4" x="-10" y="116" width="656" height="102" filterUnits="userSpaceOnUse" color-interpolation-filters="sRGB">
<feFlood flood-opacity="0" result="BackgroundImageFix"/>
<feGaussianBlur in="BackgroundImageFix" stdDeviation="5"/>
<feComposite in2="SourceAlpha" operator="in" result="effect1_backgroundBlur_12_4"/>
<feBlend mode="normal" in="SourceGraphic" in2="effect1_backgroundBlur_12_4" result="shape"/>
</filter>
<filter id="filter4_b_12_4" x="-10" y="-10" width="656" height="64" filterUnits="userSpaceOnUse" color-interpolation-filters="sRGB">
<feFlood flood-opacity="0" result="BackgroundImageFix"/>
<feGaussianBlur in="BackgroundImageFix" stdDeviation="5"/>
<feComposite in2="SourceAlpha" operator="in" result="effect1_backgroundBlur_12_4"/>
<feBlend mode="normal" in="SourceGraphic" in2="effect1_backgroundBlur_12_4" result="shape"/>
</filter>
<filter id="filter5_b_12_4" x="-10" y="33" width="656" height="21" filterUnits="userSpaceOnUse" color-interpolation-filters="sRGB">
<feFlood flood-opacity="0" result="BackgroundImageFix"/>
<feGaussianBlur in="BackgroundImageFix" stdDeviation="5"/>
<feComposite in2="SourceAlpha" operator="in" result="effect1_backgroundBlur_12_4"/>
<feBlend mode="normal" in="SourceGraphic" in2="effect1_backgroundBlur_12_4" result="shape"/>
</filter>
<filter id="filter6_b_12_4" x="-1.08322" y="1.38837" width="88.139" height="41.2623" filterUnits="userSpaceOnUse" color-interpolation-filters="sRGB">
<feFlood flood-opacity="0" result="BackgroundImageFix"/>
<feGaussianBlur in="BackgroundImageFix" stdDeviation="5"/>
<feComposite in2="SourceAlpha" operator="in" result="effect1_backgroundBlur_12_4"/>
<feBlend mode="normal" in="SourceGraphic" in2="effect1_backgroundBlur_12_4" result="shape"/>
</filter>
<filter id="filter7_b_12_4" x="57.375" y="51.0859" width="487.873" height="310.164" filterUnits="userSpaceOnUse" color-interpolation-filters="sRGB">
<feFlood flood-opacity="0" result="BackgroundImageFix"/>
<feGaussianBlur in="BackgroundImageFix" stdDeviation="5"/>
<feComposite in2="SourceAlpha" operator="in" result="effect1_backgroundBlur_12_4"/>
<feBlend mode="normal" in="SourceGraphic" in2="effect1_backgroundBlur_12_4" result="shape"/>
</filter>
<filter id="filter8_b_12_4" x="-10" y="-10" width="22" height="399" filterUnits="userSpaceOnUse" color-interpolation-filters="sRGB">
<feFlood flood-opacity="0" result="BackgroundImageFix"/>
<feGaussianBlur in="BackgroundImageFix" stdDeviation="5"/>
<feComposite in2="SourceAlpha" operator="in" result="effect1_backgroundBlur_12_4"/>
<feBlend mode="normal" in="SourceGraphic" in2="effect1_backgroundBlur_12_4" result="shape"/>
</filter>
<filter id="filter9_b_12_4" x="626" y="-10" width="22" height="399" filterUnits="userSpaceOnUse" color-interpolation-filters="sRGB">
<feFlood flood-opacity="0" result="BackgroundImageFix"/>
<feGaussianBlur in="BackgroundImageFix" stdDeviation="5"/>
<feComposite in2="SourceAlpha" operator="in" result="effect1_backgroundBlur_12_4"/>
<feBlend mode="normal" in="SourceGraphic" in2="effect1_backgroundBlur_12_4" result="shape"/>
</filter>
<filter id="filter10_b_12_4" x="-10" y="-10" width="656" height="22" filterUnits="userSpaceOnUse" color-interpolation-filters="sRGB">
<feFlood flood-opacity="0" result="BackgroundImageFix"/>
<feGaussianBlur in="BackgroundImageFix" stdDeviation="5"/>
<feComposite in2="SourceAlpha" operator="in" result="effect1_backgroundBlur_12_4"/>
<feBlend mode="normal" in="SourceGraphic" in2="effect1_backgroundBlur_12_4" result="shape"/>
</filter>
<filter id="filter11_b_12_4" x="-10" y="369" width="656" height="22" filterUnits="userSpaceOnUse" color-interpolation-filters="sRGB">
<feFlood flood-opacity="0" result="BackgroundImageFix"/>
<feGaussianBlur in="BackgroundImageFix" stdDeviation="5"/>
<feComposite in2="SourceAlpha" operator="in" result="effect1_backgroundBlur_12_4"/>
<feBlend mode="normal" in="SourceGraphic" in2="effect1_backgroundBlur_12_4" result="shape"/>
</filter>
<filter id="filter12_b_12_4" x="562.4" y="7" width="69.9714" height="30" filterUnits="userSpaceOnUse" color-interpolation-filters="sRGB">
<feFlood flood-opacity="0" result="BackgroundImageFix"/>
<feGaussianBlur in="BackgroundImageFix" stdDeviation="5"/>
<feComposite in2="SourceAlpha" operator="in" result="effect1_backgroundBlur_12_4"/>
<feBlend mode="normal" in="SourceGraphic" in2="effect1_backgroundBlur_12_4" result="shape"/>
</filter>
</defs>
</svg>
